<svg xmlns="http://www.w3.org/2000/svg" viewBox="0 0 128 128"><defs><style>.c2{fill:currentColor}.c4{fill:#fff}.c3{opacity:.5}</style></defs><title/><g style="opacity:.3"><path d="M125.7 45.663a30 30 0 0 0-23.512-25.045 19.7 19.7 0 0 1-10.932-6.549A37.011 37.011 0 0 0 27 29.441a21 21 0 0 1-10.882 13.673C1.956 50.473-5.14 69.574 7.769 87.498a16.6 16.6 0 0 0 6.352 4.91 20.58 20.58 0 0 1 10.02 10.875 28.488 28.488 0 0 0 42.624 12.637 20.06 20.06 0 0 1 16.623-2.943 29 29 0 0 0 36.038-33.793 20.08 20.08 0 0 1 2.51-14.131 29.83 29.83 0 0 0 3.764-19.39M112.005 126H17a1 1 0 1 1 0-2h95.004a1 1 0 0 1 0 2m3.208 0h-.207a1 1 0 0 1 0-2h.207a1 1 0 0 1 0 2m-101.213 0H12a1 1 0 0 1 0-2h1.999a1 1 0 0 1 0 2" class="c2"/><path d="M92.612 16.662a6.022 6.022 0 0 1 11.622-2.77 3.214 3.214 0 0 1 5.21 2.505q-.002.138-.015.274a4.795 4.795 0 0 1-1.593 9.326H94.18a4.795 4.795 0 0 1-1.568-9.335" class="c4"/><path d="M107.836 26.997H94.18a5.794 5.794 0 0 1-2.607-10.982v-.018a7.025 7.025 0 0 1 13.099-3.504 4.22 4.22 0 0 1 5.754 3.513 5.794 5.794 0 0 1-2.59 10.99m-9.238-16a5.02 5.02 0 0 0-5.025 5 5 5 0 0 0 .033.554 1 1 0 0 1-.67 1.056 3.795 3.795 0 0 0 1.244 7.39h13.656a3.795 3.795 0 0 0 1.264-7.382 1 1 0 0 1-.667-1.03q.008-.094.01-.189a2.214 2.214 0 0 0-3.589-1.72 1 1 0 0 1-1.555-.432 5.05 5.05 0 0 0-4.701-3.247" class="c2"/><path d="M94.18 16.397a4.8 4.8 0 0 0-1.581.264" class="c4"/><path d="M92.599 17.661a1 1 0 0 1-.327-1.946 5.8 5.8 0 0 1 1.908-.319 1 1 0 0 1 0 2 3.8 3.8 0 0 0-1.255.21 1 1 0 0 1-.326.055" class="c2"/><path d="M109.43 16.665a4.8 4.8 0 0 0-1.594-.268" class="c4"/><path d="M109.43 17.666a1 1 0 0 1-.33-.057 3.8 3.8 0 0 0-1.264-.213 1 1 0 0 1 0-2 5.8 5.8 0 0 1 1.923.325 1 1 0 0 1-.33 1.945" class="c2"/><path d="M104.255 13.872a3.2 3.2 0 0 0-.874 1.042" class="c4"/><path d="M103.38 15.914a1 1 0 0 1-.883-1.465 4.25 4.25 0 0 1 1.144-1.366 1 1 0 0 1 1.228 1.579 2.2 2.2 0 0 0-.602.717 1 1 0 0 1-.886.535" class="c2"/><path d="M10.772 21.015a7.984 7.984 0 0 1 11.876-8.847 10.49 10.49 0 0 1 18.802 5.25 7.496 7.496 0 0 1-2.443 14.585h-28a5.496 5.496 0 0 1-.235-10.988" class="c4"/><path d="M10.772 18.015c-.048-.185-.076-.376-.112-.565a8 8 0 0 0-.09.593c.069-.005.133-.025.202-.028" class="c4"/><path d="M11.006 33.003a6.497 6.497 0 0 1-1.42-12.838 8.5 8.5 0 0 1-.08-1.163 8.987 8.987 0 0 1 12.891-8.107 11.49 11.49 0 0 1 19.968 5.806 8.496 8.496 0 0 1-3.358 16.301Zm7.5-21a6.972 6.972 0 0 0-6.766 8.761 1 1 0 0 1-.926 1.25 4.496 4.496 0 0 0 .192 8.989h28a6.496 6.496 0 0 0 2.118-12.64 1 1 0 0 1-.669-.842 9.489 9.489 0 0 0-17.01-4.749 1 1 0 0 1-1.316.25 7 7 0 0 0-3.622-1.02" class="c2"/><path d="M40.993 22.752a1 1 0 0 1-.951-1.31 9.506 9.506 0 0 0-9.035-12.44 1 1 0 0 1 0-2 11.508 11.508 0 0 1 10.937 15.06 1 1 0 0 1-.95.69m-26.365.613a1 1 0 0 1-.66-.248 4.5 4.5 0 0 0-2.963-1.114 1 1 0 1 1 0-2 6.5 6.5 0 0 1 4.282 1.61 1 1 0 0 1-.66 1.752m10.384-8.02a1 1 0 0 1-.814-.418 7.02 7.02 0 0 0-5.691-2.924 1 1 0 0 1 0-2 9.02 9.02 0 0 1 7.316 3.76 1 1 0 0 1-.811 1.582" class="c2"/><path d="M123.01 52.03a1.1 1.1 0 0 1-.39-.08.9.9 0 0 1-.32-.22.97.97 0 0 1-.29-.71.98.98 0 0 1 .29-.7 1.02 1.02 0 0 1 1.09-.22c.06.03.12.06.17.09a.6.6 0 0 1 .15.13.98.98 0 0 1 .3.7 1 1 0 0 1-.08.39.9.9 0 0 1-.22.32.6.6 0 0 1-.15.13c-.05.03-.11.06-.17.09a1 1 0 0 1-.38.08m-2.005 3.996h-6a1 1 0 0 1 0-2h6a1 1 0 0 1 0 2m-2.001-4h-7a1 1 0 1 1 0-2h7a1 1 0 0 1 0 2m-8 4h-2a1 1 0 1 1 0-2h2a1 1 0 0 1 0 2m8.001 4.001h-8.001a1 1 0 0 1 0-2h8a1 1 0 1 1 0 2M25 56.03a1 1 0 0 1-.39-.08 1 1 0 0 1-.32-.22 1 1 0 0 1-.3-.7 1 1 0 0 1 .08-.39 1 1 0 0 1 .22-.32.9.9 0 0 1 .32-.22.97.97 0 0 1 .58-.06c.07.02.13.04.19.06.06.03.12.06.17.09a.7.7 0 0 1 .15.13.9.9 0 0 1 .22.32 1 1 0 0 1 .08.39 1 1 0 0 1-.08.38.9.9 0 0 1-.22.32.7.7 0 0 1-.15.13c-.05.03-.11.06-.17.09-.06.02-.12.04-.19.06a1 1 0 0 1-.19.02m.994-4.005h-2a1 1 0 0 1 0-2h2a1 1 0 0 1 0 2m3-4.001h-9.999a1 1 0 1 1 0-2h10a1 1 0 0 1 0 2m-9.001 4h-4a1 1 0 1 1 0-2h4a1 1 0 0 1 0 2m1 4.001h-8a1 1 0 0 1 0-2h8a1 1 0 0 1 0 2" class="c4"/></g><path d="M108 70H20a1 1 0 0 1-1-1v-6a5.006 5.006 0 0 1 5-5h7v-3a3.003 3.003 0 0 1 3-3h20a3.003 3.003 0 0 1 3 3v3h47a5.006 5.006 0 0 1 5 5v6a1 1 0 0 1-1 1m-87-2h86v-5a3.003 3.003 0 0 0-3-3H56a1 1 0 0 1-1-1v-4a1 1 0 0 0-1-1H34a1 1 0 0 0-1 1v4a1 1 0 0 1-1 1h-8a3.003 3.003 0 0 0-3 3Z" class="c2"/><path d="M108 69v-6a4 4 0 0 0-4-4H56v-4a2 2 0 0 0-2-2H34a2 2 0 0 0-2 2v4h-8a4 4 0 0 0-4 4v6" class="c4"/><path d="M108 70a1 1 0 0 1-1-1v-6a3.003 3.003 0 0 0-3-3H56a1 1 0 0 1-1-1v-4a1 1 0 0 0-1-1H34a1 1 0 0 0-1 1v4a1 1 0 0 1-1 1h-8a3.003 3.003 0 0 0-3 3v6a1 1 0 0 1-2 0v-6a5.006 5.006 0 0 1 5-5h7v-3a3.003 3.003 0 0 1 3-3h20a3.003 3.003 0 0 1 3 3v3h47a5.006 5.006 0 0 1 5 5v6a1 1 0 0 1-1 1" class="c2"/><path d="M86.352 98.172 100.6 33.729l-6.084-9.539-46.868-10.362-15.975 72.255z" class="c4"/><path d="M86.353 99.172a1 1 0 0 1-.216-.023l-54.68-12.09a1 1 0 0 1-.76-1.192L46.67 13.612a1 1 0 0 1 1.192-.76L94.73 23.213a1 1 0 0 1 .627.44l6.085 9.538a1 1 0 0 1 .134.753L87.33 98.388a1 1 0 0 1-.976.784m-53.488-13.85L85.592 96.98l13.943-63.063-5.64-8.84L48.409 15.02Z" class="c2"/><path d="m100.6 33.729-7.811-1.728 1.727-7.811z" class="c2"/><path d="M100.6 34.729a1 1 0 0 1-.215-.024l-7.812-1.727a1 1 0 0 1-.76-1.192l1.726-7.812a1 1 0 0 1 1.82-.322l6.084 9.539a1 1 0 0 1-.842 1.537m-6.619-3.488 4.478.99-3.488-5.468Z" class="c2"/><path d="M100.6 34.729a1 1 0 0 1-.215-.024l-7.812-1.727a1 1 0 0 1-.76-1.192l1.726-7.812a1 1 0 0 1 1.82-.322l6.084 9.539a1 1 0 0 1-.842 1.537m-6.619-3.488 4.478.99-3.488-5.468Z" class="c2"/><g class="c3"><path d="M57.114 41.5a1 1 0 0 1-.217-.023l-6.835-1.512a1 1 0 0 1 .432-1.953l6.835 1.511a1 1 0 0 1-.215 1.977m19.416.196a1 1 0 0 1-.217-.023L50.926 36.06a1 1 0 0 1 .431-1.953l25.387 5.613a1 1 0 0 1-.215 1.976m12.807 6.928a1 1 0 0 1-.217-.023l-29.293-6.477a1 1 0 0 1 .432-1.953l29.293 6.476a1 1 0 0 1-.215 1.977m.864-3.906a1 1 0 0 1-.218-.023l-10.74-2.375a1 1 0 0 1 .432-1.953l10.74 2.375a1 1 0 0 1-.215 1.976m-14.327-9.312a1 1 0 0 1-.217-.024l-7.811-1.727a1 1 0 0 1 .431-1.953l7.812 1.727a1 1 0 0 1-.215 1.977M62.11 46.701a1 1 0 0 1-.217-.023L49.198 43.87a1 1 0 0 1 .432-1.953l12.694 2.807a1 1 0 0 1-.215 1.976m26.364 5.83a1 1 0 0 1-.217-.024l-18.553-4.101a1 1 0 1 1 .432-1.953l18.552 4.101a1 1 0 0 1-.214 1.977m-21.482-4.75a1 1 0 0 1-.217-.023l-1.953-.432a1 1 0 0 1 .432-1.953l1.953.432a1 1 0 0 1-.215 1.976m13.782 7.144a1 1 0 0 1-.216-.023l-32.222-7.124a1 1 0 0 1 .432-1.953l32.221 7.124a1 1 0 0 1-.215 1.976m6.835 1.512a1 1 0 0 1-.216-.024l-3.906-.864a1 1 0 0 1 .432-1.953l3.905.864a1 1 0 0 1-.215 1.977m-33.085-3.219a1 1 0 0 1-.216-.023l-6.835-1.511a1 1 0 0 1 .431-1.954l6.835 1.512a1 1 0 0 1-.215 1.976m32.222 7.124a1 1 0 0 1-.217-.023l-10.74-2.375a1 1 0 1 1 .432-1.953l10.74 2.375a1 1 0 0 1-.215 1.976m-13.67-3.022a1 1 0 0 1-.217-.024l-15.622-3.454a1 1 0 0 1 .432-1.953l15.622 3.454a1 1 0 0 1-.215 1.977m-.863 3.906a1 1 0 0 1-.217-.024l-25.387-5.613a1 1 0 0 1 .432-1.953l25.387 5.613a1 1 0 0 1-.215 1.977" class="c2"/></g><path d="m45.261 77.976 20.97-51.926 44.508 17.974-20.97 51.926z" class="c4"/><path d="m53.464 68.346 14.978-37.09 37.09 14.98-14.979 37.089z" class="c4"/><g class="c3"><path d="m53.464 68.346 14.978-37.09 37.09 14.98-14.979 37.089z" class="c2"/></g><path d="M90.553 83.325 53.464 68.346l15.867-10.553 4.283 6.935 12.984-7.805z" class="c4"/><path d="M90.554 84.325a1 1 0 0 1-.374-.073L53.09 69.274a1 1 0 0 1-.18-1.76L68.777 56.96a1 1 0 0 1 1.405.308l3.764 6.094 12.136-7.296a1 1 0 0 1 1.505.709l3.956 26.402a1 1 0 0 1-.99 1.148M55.597 68.13l33.709 13.614L85.83 58.55l-11.7 7.034a1 1 0 0 1-1.366-.332l-3.74-6.055Z" class="c4"/><path d="M70.355 67.688a1 1 0 0 1-.516-1.857l4.122-2.478a1 1 0 1 1 1.031 1.713l-4.122 2.478a1 1 0 0 1-.515.144" class="c2"/><path d="M79.16 47.448a5 5 0 1 1-2.765-6.508 5 5 0 0 1 2.764 6.508" class="c4"/><path d="M89.769 96.95a1 1 0 0 1-.374-.073L44.887 78.903a1 1 0 0 1-.553-1.302l20.97-51.925a1 1 0 0 1 1.301-.553l44.508 17.974a1 1 0 0 1 .553 1.302l-20.97 51.925a1 1 0 0 1-.927.626M46.562 77.423l42.654 17.225 20.222-50.07-42.654-17.226Z" class="c2"/><path d="M90.554 84.326a1 1 0 0 1-.374-.074L53.09 69.274a1 1 0 0 1-.553-1.302l14.979-37.09a1 1 0 0 1 1.3-.552l37.09 14.979a1 1 0 0 1 .553 1.301L91.48 83.7a1 1 0 0 1-.926.626M54.766 67.794 90 82.024l14.23-35.235-35.236-14.23Z" class="c2"/><path d="M30 120h66l8-8V64H30z" class="c4"/><path d="M96 121H30a1 1 0 0 1-1-1V64a1 1 0 0 1 1-1h74a1 1 0 0 1 1 1v48a1 1 0 0 1-.293.707l-8 8A1 1 0 0 1 96 121m-65-2h64.586l7.414-7.414V65H31Z" class="c2"/><path d="M96 120v-8h8z" class="c4"/><path d="M96 121a1 1 0 0 1-1-1v-8a1 1 0 0 1 1-1h8a1 1 0 0 1 .707 1.707l-8 8A1 1 0 0 1 96 121m1-8v4.586l4.586-4.586Z" class="c2"/><path d="M96 121a1 1 0 0 1-1-1v-8a1 1 0 0 1 1-1h8a1 1 0 0 1 .707 1.707l-8 8A1 1 0 0 1 96 121m1-8v4.586l4.586-4.586Z" class="c2"/><g class="c3"><path d="M80 80a1 1 0 0 1-1-1v-7a1 1 0 0 1 2 0v7a1 1 0 0 1-1 1m4 19a1 1 0 0 1-1-1V72a1 1 0 0 1 2 0v26a1 1 0 0 1-1 1m-4 14a1 1 0 0 1-1-1V82a1 1 0 0 1 2 0v30a1 1 0 0 1-1 1m4 0a1 1 0 0 1-1-1v-11a1 1 0 0 1 2 0v11a1 1 0 0 1-1 1m6-16a1 1 0 0 1-1-1v-8a1 1 0 0 1 2 0v8a1 1 0 0 1-1 1M76 86a1 1 0 0 1-1-1V72a1 1 0 0 1 2 0v13a1 1 0 0 1-1 1m0 27a1 1 0 0 1-1-1V93a1 1 0 0 1 2 0v19a1 1 0 0 1-1 1m0-22a1 1 0 0 1-1-1v-2a1 1 0 0 1 2 0v2a1 1 0 0 1-1 1m-4 15a1 1 0 0 1-1-1V72a1 1 0 0 1 2 0v33a1 1 0 0 1-1 1m0 7a1 1 0 0 1-1-1v-4a1 1 0 0 1 2 0v4a1 1 0 0 1-1 1m-4-33a1 1 0 0 1-1-1v-7a1 1 0 0 1 2 0v7a1 1 0 0 1-1 1m0 33a1 1 0 0 1-1-1v-11a1 1 0 0 1 2 0v11a1 1 0 0 1-1 1m0-14a1 1 0 0 1-1-1V82a1 1 0 0 1 2 0v16a1 1 0 0 1-1 1m-4 0a1 1 0 0 1-1-1V72a1 1 0 0 1 2 0v26a1 1 0 0 1-1 1" class="c2"/></g><path d="M104.276 125H23.724a4 4 0 0 1-3.99-3.715l-3.429-48A4 4 0 0 1 20.296 69h87.408a4 4 0 0 1 3.99 4.285l-3.429 48a4 4 0 0 1-3.99 3.715" class="c2"/><path d="M104.275 126h-80.55a5.017 5.017 0 0 1-4.988-4.644l-3.428-48A5 5 0 0 1 20.296 68h87.408a5 5 0 0 1 4.987 5.356l-3.428 48a5.017 5.017 0 0 1-4.988 4.644m-83.98-56a3 3 0 0 0-2.992 3.214l3.428 48A3.01 3.01 0 0 0 23.725 124h80.55a3.01 3.01 0 0 0 2.994-2.786l3.428-48A3 3 0 0 0 107.704 70Z" class="c2"/></svg>