<?xml version="1.0"?><svg data-name="003_Backup &amp; Sync" id="_003_Backup_Sync" viewBox="0 0 128 128" xmlns="http://www.w3.org/2000/svg"><defs><style>.cls-1{opacity:0.3;}.cls-2,.cls-4{fill:currentColor;}.cls-3{fill:#fff;}.cls-4,.cls-5{opacity:0.5;}</style></defs><title/><g class="cls-1"><path class="cls-2" d="M126.68858,47.6628A30.00054,30.00054,0,0,0,103.177,22.6175a19.68952,19.68952,0,0,1-10.93272-6.5484,37.01137,37.01137,0,0,0-64.2547,15.3718,21.01346,21.01346,0,0,1-10.8821,13.6736C2.94458,52.4729-4.151,71.5733,8.75758,89.4977a16.60166,16.60166,0,0,0,6.3523,4.9094,20.57826,20.57826,0,0,1,10.0195,10.876,28.48782,28.48782,0,0,0,42.6239,12.6366A20.05874,20.05874,0,0,1,84.377,114.9771a29.0008,29.0008,0,0,0,36.03818-33.7927,20.07988,20.07988,0,0,1,2.5095-14.1316A29.83224,29.83224,0,0,0,126.68858,47.6628Z"/><path class="cls-3" d="M107.56768,22.2648a6.02242,6.02242,0,0,0-11.6221-2.7701A3.21341,3.21341,0,0,0,90.73668,22c0,.0925.0062.1834.0139.2739A4.79483,4.79483,0,0,0,92.34338,31.6H106a4.79512,4.79512,0,0,0,1.56768-9.3352Z"/><path class="cls-2" d="M106,32.6001H92.34375a5.79416,5.79416,0,0,1-2.58984-10.99024,4.21174,4.21174,0,0,1,5.75195-3.51074,7.02475,7.02475,0,0,1,13.10059,3.501v.01758A5.79441,5.79441,0,0,1,106,32.6001ZM93.9502,19.7998A2.20946,2.20946,0,0,0,91.73633,22c0,.06348.00586.126.01074.188a.99984.99984,0,0,1-.667,1.03027,3.7948,3.7948,0,0,0,1.26367,7.38184H106a3.79526,3.79526,0,0,0,1.24316-7.38965,1.00048,1.00048,0,0,1-.66992-1.05713,4.92033,4.92033,0,0,0,.03321-.55322,5.0253,5.0253,0,0,0-9.72559-1.75244.99952.99952,0,0,1-1.55566.43115A2.1968,2.1968,0,0,0,93.9502,19.7998Z"/><path class="cls-3" d="M106,22a4.832,4.832,0,0,1,1.58078.2641"/><path class="cls-2" d="M107.58105,23.26465a.997.997,0,0,1-.32714-.05567A3.8306,3.8306,0,0,0,106,23a1,1,0,0,1,0-2,5.81846,5.81846,0,0,1,1.9082.31934,1.00015,1.00015,0,0,1-.32715,1.94531Z"/><path class="cls-3" d="M90.74988,22.2685A4.83205,4.83205,0,0,1,92.34338,22"/><path class="cls-2" d="M90.75,23.269a1.00031,1.00031,0,0,1-.3291-1.94482A5.82894,5.82894,0,0,1,92.34375,21a1,1,0,0,1,0,2,3.838,3.838,0,0,0-1.26465.21289A.9963.9963,0,0,1,90.75,23.269Z"/><path class="cls-3" d="M95.92448,19.4752a3.21635,3.21635,0,0,1,.8739,1.0422"/><path class="cls-2" d="M96.7998,21.51758a.99937.99937,0,0,1-.88574-.53467,2.23651,2.23651,0,0,0-.60351-.71826,1.00035,1.00035,0,0,1,1.22851-1.5791,4.25149,4.25149,0,0,1,1.14453,1.3667.99923.99923,0,0,1-.88379,1.46533Z"/><path class="cls-3" d="M125,44a.9994.9994,0,0,1-.37988-.08008.93951.93951,0,0,1-.33008-.21A1.04871,1.04871,0,0,1,124,43a.83226.83226,0,0,1,.08008-.38037,1.00133,1.00133,0,0,1,1.10937-.59961.60652.60652,0,0,1,.19043.05957.75628.75628,0,0,1,.17969.09033A1.54122,1.54122,0,0,1,125.71,42.29a.93067.93067,0,0,1,.21.32959A.99993.99993,0,0,1,126,43a1.05326,1.05326,0,0,1-.29.71c-.0498.04-.10058.08008-.15039.11963a.75628.75628,0,0,1-.17969.09033.61989.61989,0,0,1-.19043.06006A1.24691,1.24691,0,0,1,125,44Z"/><path class="cls-3" d="M122.99805,47.99951h-6a1,1,0,0,1,0-2h6a1,1,0,0,1,0,2Z"/><path class="cls-3" d="M120.99805,43.999h-7a1,1,0,0,1,0-2h7a1,1,0,0,1,0,2Z"/><path class="cls-3" d="M112.99707,47.999h-1.999a1,1,0,0,1,0-2h1.999a1,1,0,0,1,0,2Z"/><path class="cls-3" d="M120.99805,52h-8.001a1,1,0,0,1,0-2h8.001a1,1,0,0,1,0,2Z"/><path class="cls-3" d="M13,72a.99719.99719,0,0,1-.7002-1.71,1.03425,1.03425,0,0,1,1.41016,0A.99183.99183,0,0,1,14,71a1.00938,1.00938,0,0,1-.29.71A1.03574,1.03574,0,0,1,13,72Z"/><path class="cls-3" d="M14.001,67.99951h-2a1,1,0,1,1,0-2h2a1,1,0,0,1,0,2Z"/><path class="cls-3" d="M17.001,63.999H7.002a1,1,0,1,1,0-2h9.999a1,1,0,0,1,0,2Z"/><path class="cls-3" d="M8,67.999H4.001a1,1,0,1,1,0-2H8a1,1,0,0,1,0,2Z"/><path class="cls-3" d="M9,72H1a1,1,0,0,1,0-2H9a1,1,0,0,1,0,2Z"/><path class="cls-3" d="M26.26588,20.0122a7.98427,7.98427,0,0,1,11.8753-8.8472,10.48929,10.48929,0,0,1,18.8025,5.2505,7.49625,7.49625,0,0,1-2.4432,14.5843L26.49968,31a5.49632,5.49632,0,0,1-.2338-10.9878Z"/><path class="cls-3" d="M26.26588,17.0119c-.04788-.1845-.076-.3761-.11188-.5651-.03842.1951-.06672.3936-.09062.5935C26.13218,17.0348,26.19638,17.0148,26.26588,17.0119Z"/><path class="cls-2" d="M54.5,32h-28a6.49743,6.49743,0,0,1-1.41992-12.83838A8.54149,8.54149,0,0,1,25,17.99951,8.98613,8.98613,0,0,1,37.89062,9.89258,11.489,11.489,0,0,1,57.8584,15.69824,8.496,8.496,0,0,1,54.5,32ZM34,11a6.97219,6.97219,0,0,0-6.7666,8.76123.99939.99939,0,0,1-.92578,1.25A4.49637,4.49637,0,0,0,26.5,30h28a6.49628,6.49628,0,0,0,2.11719-12.63916,1.00064,1.00064,0,0,1-.669-.84326,9.48831,9.48831,0,0,0-17.00976-4.748.99986.99986,0,0,1-1.31543.25049A6.98477,6.98477,0,0,0,34,11Z"/><path class="cls-2" d="M56.4873,21.74951a1.00139,1.00139,0,0,1-.95117-1.30908A9.50963,9.50963,0,0,0,46.5,8a1,1,0,0,1,0-2A11.50953,11.50953,0,0,1,57.43848,21.05762,1.00114,1.00114,0,0,1,56.4873,21.74951Z"/><path class="cls-2" d="M30.12207,22.3623a.99517.99517,0,0,1-.65918-.248A4.49342,4.49342,0,0,0,26.5,21.00049a1,1,0,0,1,0-2,6.49345,6.49345,0,0,1,4.28125,1.60986,1,1,0,0,1-.65918,1.752Z"/><path class="cls-2" d="M40.50488,14.3418a.99914.99914,0,0,1-.81347-.417A7.02076,7.02076,0,0,0,34,11a1,1,0,0,1,0-2,9.0239,9.0239,0,0,1,7.31641,3.75879,1,1,0,0,1-.81153,1.583Z"/><path class="cls-2" d="M118.999,113H12a1,1,0,0,1,0-2H118.999a1,1,0,0,1,0,2Z"/><path class="cls-2" d="M123,113h-1a1,1,0,0,1,0-2h1a1,1,0,0,1,0,2Z"/><path class="cls-2" d="M5.999,113h-1a1,1,0,0,1,0-2h1a1,1,0,1,1,0,2Z"/><path class="cls-2" d="M8.999,113H8.7998a1,1,0,1,1,0-2H8.999a1,1,0,1,1,0,2Z"/></g><rect class="cls-3" height="23" rx="2" width="70" x="11" y="20"/><rect class="cls-4" height="23" rx="2" width="23" x="58" y="20"/><path class="cls-2" d="M65,28H63a1,1,0,0,1,0-2h2a1,1,0,0,1,0,2Z"/><path class="cls-2" d="M65,32H63a1,1,0,0,1,0-2h2a1,1,0,0,1,0,2Z"/><circle class="cls-3" cx="72" cy="29" r="3"/><path class="cls-2" d="M72,33a4,4,0,1,1,4-4A4.00427,4.00427,0,0,1,72,33Zm0-6a2,2,0,1,0,2,2A2.00229,2.00229,0,0,0,72,27Z"/><path class="cls-2" d="M63,36a1.05232,1.05232,0,0,1-.71-.29,1.68289,1.68289,0,0,1-.12012-.1499.73875.73875,0,0,1-.08984-.18018.65326.65326,0,0,1-.06055-.18017A1.38369,1.38369,0,0,1,62,35a.99993.99993,0,0,1,.08008-.38037,1.02673,1.02673,0,0,1,.21-.32959A1,1,0,0,1,64,35a1.2596,1.2596,0,0,1-.02051.19971.61936.61936,0,0,1-.05957.18017.77556.77556,0,0,1-.08984.18018c-.04.0498-.08008.09961-.12012.1499A1.03574,1.03574,0,0,1,63,36Z"/><path class="cls-2" d="M67,36a1.00405,1.00405,0,0,1-.71-1.71,1.00528,1.00528,0,0,1,.89941-.27.60652.60652,0,0,1,.19043.05957.75628.75628,0,0,1,.17969.09033c.04981.04.10059.08008.15039.12012A1,1,0,0,1,67,36Z"/><path class="cls-2" d="M71,36a1.25961,1.25961,0,0,1-.19043-.02.61409.61409,0,0,1-.18945-.06006.762.762,0,0,1-.18067-.09033C70.38965,35.79,70.33984,35.75,70.29,35.71a1.01394,1.01394,0,0,1,0-1.41992l.14941-.12012a.762.762,0,0,1,.18067-.09033.60083.60083,0,0,1,.18945-.05957,1.027,1.027,0,0,1,.90039.27A1,1,0,0,1,71,36Z"/><path class="cls-2" d="M75,36a1.00405,1.00405,0,0,1-.71-1.71,1.53409,1.53409,0,0,1,.14941-.12012.762.762,0,0,1,.18067-.09033.60083.60083,0,0,1,.18945-.05957,1.00637,1.00637,0,0,1,.90039.27A1,1,0,0,1,75,36Z"/><path class="cls-2" d="M63,40a1.05232,1.05232,0,0,1-.71-.29.93705.93705,0,0,1-.21-.33008A.9994.9994,0,0,1,62,39a1,1,0,1,1,1.71.71,1.53391,1.53391,0,0,1-.15039.11963.75628.75628,0,0,1-.17969.09033.65938.65938,0,0,1-.17968.06006A1.40381,1.40381,0,0,1,63,40Z"/><path class="cls-2" d="M67,40a1.00405,1.00405,0,0,1-.71-1.71,1.03011,1.03011,0,0,1,.33008-.21045A1.01792,1.01792,0,0,1,67.71,38.29a1.01394,1.01394,0,0,1,0,1.41992c-.0498.04-.10058.08008-.15039.11963a.75628.75628,0,0,1-.17969.09033.61989.61989,0,0,1-.19043.06006A1.24691,1.24691,0,0,1,67,40Z"/><path class="cls-2" d="M71,40a1.25961,1.25961,0,0,1-.19043-.02.61409.61409,0,0,1-.18945-.06006.762.762,0,0,1-.18067-.09033A1.52675,1.52675,0,0,1,70.29,39.71,1.04871,1.04871,0,0,1,70,39a.99993.99993,0,0,1,.08008-.38037,1.1515,1.1515,0,0,1,.21-.32959,1.53409,1.53409,0,0,1,.14941-.12012.762.762,0,0,1,.18067-.09033.60083.60083,0,0,1,.18945-.05957.99846.99846,0,0,1,.90039.27A1,1,0,0,1,71,40Z"/><path class="cls-2" d="M75,40a.99042.99042,0,1,1,.71-.29A1.05232,1.05232,0,0,1,75,40Z"/><path class="cls-2" d="M65,38a1.00405,1.00405,0,0,1-.71-1.71,1.00528,1.00528,0,0,1,.89941-.27.60652.60652,0,0,1,.19043.05957.75628.75628,0,0,1,.17969.09033c.04981.04.10059.08008.15039.12012a1.01394,1.01394,0,0,1,0,1.41992,1.53391,1.53391,0,0,1-.15039.11963.75628.75628,0,0,1-.17969.09033.61989.61989,0,0,1-.19043.06006A1.24691,1.24691,0,0,1,65,38Z"/><path class="cls-2" d="M69,38a.99042.99042,0,0,1-1-1,1.0478,1.0478,0,0,1,.29-.71l.14941-.12012a.762.762,0,0,1,.18067-.09033A.63174.63174,0,0,1,68.7998,36.02a1.02527,1.02527,0,0,1,.91016.27A1,1,0,0,1,69,38Z"/><path class="cls-2" d="M73,38a1.39,1.39,0,0,1-.2002-.02.64867.64867,0,0,1-.17968-.06006.762.762,0,0,1-.18067-.09033C72.38965,37.79,72.33984,37.75,72.29,37.71A1.04871,1.04871,0,0,1,72,37a1.02955,1.02955,0,0,1,.29-.71l.14941-.12012a.762.762,0,0,1,.18067-.09033A.63174.63174,0,0,1,72.7998,36.02a.95858.95858,0,0,1,.58008.05957A1.16213,1.16213,0,0,1,73.71,36.29a1.01394,1.01394,0,0,1,0,1.41992,1.17124,1.17124,0,0,1-.33008.21A.9994.9994,0,0,1,73,38Z"/><path class="cls-2" d="M79,44H13a3.00328,3.00328,0,0,1-3-3V22a3.00328,3.00328,0,0,1,3-3H79a3.00328,3.00328,0,0,1,3,3V41A3.00328,3.00328,0,0,1,79,44ZM13,21a1.001,1.001,0,0,0-1,1V41a1.001,1.001,0,0,0,1,1H79a1.001,1.001,0,0,0,1-1V22a1.001,1.001,0,0,0-1-1Z"/><g class="cls-5"><rect class="cls-2" height="9" width="4" x="17" y="26"/><rect class="cls-2" height="9" width="4" x="25" y="26"/><rect class="cls-2" height="9" width="4" x="33" y="26"/><rect class="cls-2" height="9" width="4" x="41" y="26"/><rect class="cls-2" height="9" width="4" x="49" y="26"/></g><path class="cls-2" d="M21,36H17a.99974.99974,0,0,1-1-1V26a.99974.99974,0,0,1,1-1h4a.99974.99974,0,0,1,1,1v9A.99974.99974,0,0,1,21,36Zm-3-2h2V27H18Z"/><path class="cls-2" d="M29,36H25a.99974.99974,0,0,1-1-1V26a.99974.99974,0,0,1,1-1h4a.99974.99974,0,0,1,1,1v9A.99974.99974,0,0,1,29,36Zm-3-2h2V27H26Z"/><path class="cls-2" d="M37,36H33a.99974.99974,0,0,1-1-1V26a.99974.99974,0,0,1,1-1h4a.99974.99974,0,0,1,1,1v9A.99974.99974,0,0,1,37,36Zm-3-2h2V27H34Z"/><path class="cls-2" d="M45,36H41a.99974.99974,0,0,1-1-1V26a.99974.99974,0,0,1,1-1h4a.99974.99974,0,0,1,1,1v9A.99974.99974,0,0,1,45,36Zm-3-2h2V27H42Z"/><path class="cls-2" d="M53,36H49a.99974.99974,0,0,1-1-1V26a.99974.99974,0,0,1,1-1h4a.99974.99974,0,0,1,1,1v9A.99974.99974,0,0,1,53,36Zm-3-2h2V27H50Z"/><path class="cls-2" d="M21,40H17a1,1,0,0,1,0-2h4a1,1,0,0,1,0,2Z"/><path class="cls-2" d="M29,40H25a1,1,0,0,1,0-2h4a1,1,0,0,1,0,2Z"/><path class="cls-2" d="M37,40H33a1,1,0,0,1,0-2h4a1,1,0,0,1,0,2Z"/><path class="cls-2" d="M45,40H41a1,1,0,0,1,0-2h4a1,1,0,0,1,0,2Z"/><path class="cls-2" d="M53,40H49a1,1,0,0,1,0-2h4a1,1,0,0,1,0,2Z"/><rect class="cls-3" height="23" rx="2" width="70" x="11" y="43"/><rect class="cls-4" height="23" rx="2" width="23" x="58" y="43"/><path class="cls-2" d="M65,51H63a1,1,0,0,1,0-2h2a1,1,0,0,1,0,2Z"/><path class="cls-2" d="M65,55H63a1,1,0,0,1,0-2h2a1,1,0,0,1,0,2Z"/><circle class="cls-3" cx="72" cy="52" r="3"/><path class="cls-2" d="M72,56a4,4,0,1,1,4-4A4.00427,4.00427,0,0,1,72,56Zm0-6a2,2,0,1,0,2,2A2.00229,2.00229,0,0,0,72,50Z"/><path class="cls-2" d="M63,59a.99042.99042,0,0,1-1-1,.99993.99993,0,0,1,.08008-.38037,1.02673,1.02673,0,0,1,.21-.32959A1.00405,1.00405,0,0,1,63.71,58.71a1.53391,1.53391,0,0,1-.15039.11963.75628.75628,0,0,1-.17969.09033.65938.65938,0,0,1-.17968.06006A1.40381,1.40381,0,0,1,63,59Z"/><path class="cls-2" d="M67,59a1.00405,1.00405,0,0,1-.71-1.71,1.0344,1.0344,0,0,1,.89941-.27.60652.60652,0,0,1,.19043.05957.75628.75628,0,0,1,.17969.09033c.04981.04.10059.08008.15039.12012A1,1,0,0,1,67,59Z"/><path class="cls-2" d="M71,59a1.25961,1.25961,0,0,1-.19043-.02.61409.61409,0,0,1-.18945-.06006.762.762,0,0,1-.18067-.09033C70.38965,58.79,70.33984,58.75,70.29,58.71a1.15384,1.15384,0,0,1-.21-.33008A.9994.9994,0,0,1,70,58a1.0478,1.0478,0,0,1,.29-.71l.14941-.12012a.762.762,0,0,1,.18067-.09033.60083.60083,0,0,1,.18945-.05957.85152.85152,0,0,1,.39063,0,.64181.64181,0,0,1,.17968.05957.55863.55863,0,0,1,.16992.09033c.05958.04.11036.08008.16016.12012A1.05234,1.05234,0,0,1,72,58a.9994.9994,0,0,1-.08008.37988,1.15384,1.15384,0,0,1-.21.33008A1.05421,1.05421,0,0,1,71,59Z"/><path class="cls-2" d="M75,59a.99042.99042,0,1,1,.71-.29A1.05232,1.05232,0,0,1,75,59Z"/><path class="cls-2" d="M63,63a.99042.99042,0,0,1-1-1,1.02955,1.02955,0,0,1,.29-.71A1.00405,1.00405,0,0,1,63.71,62.71,1.03574,1.03574,0,0,1,63,63Z"/><path class="cls-2" d="M67,63a.9994.9994,0,0,1-.37988-.08008,1.03724,1.03724,0,0,1-.33008-.21,1.01394,1.01394,0,0,1,0-1.41992,1.03234,1.03234,0,0,1,1.41992,0,1.01394,1.01394,0,0,1,0,1.41992A1.03574,1.03574,0,0,1,67,63Z"/><path class="cls-2" d="M71,63a1.25961,1.25961,0,0,1-.19043-.02.61409.61409,0,0,1-.18945-.06006.762.762,0,0,1-.18067-.09033A1.52675,1.52675,0,0,1,70.29,62.71,1.04871,1.04871,0,0,1,70,62a1.02955,1.02955,0,0,1,.29-.71l.14941-.12012a.762.762,0,0,1,.18067-.09033.60083.60083,0,0,1,.18945-.05957.99846.99846,0,0,1,.90039.27,1.01394,1.01394,0,0,1,0,1.41992.94971.94971,0,0,1-.16016.11963.55863.55863,0,0,1-.16992.09033.65938.65938,0,0,1-.17968.06006A1.40381,1.40381,0,0,1,71,63Z"/><path class="cls-2" d="M75,63a1.25961,1.25961,0,0,1-.19043-.02.61409.61409,0,0,1-.18945-.06006.762.762,0,0,1-.18067-.09033A1.52675,1.52675,0,0,1,74.29,62.71,1.01394,1.01394,0,1,1,75,63Z"/><path class="cls-2" d="M65,61a1.05232,1.05232,0,0,1-.71-.29A1.02955,1.02955,0,0,1,64,60a1.00405,1.00405,0,1,1,1,1Z"/><path class="cls-2" d="M69,61a.99042.99042,0,0,1-1-1,.99993.99993,0,0,1,.08008-.38037.93067.93067,0,0,1,.21-.32959A1.00405,1.00405,0,1,1,69,61Z"/><path class="cls-2" d="M73,61a1.39,1.39,0,0,1-.2002-.02.64867.64867,0,0,1-.17968-.06006.762.762,0,0,1-.18067-.09033C72.38965,60.79,72.33984,60.75,72.29,60.71A1.04871,1.04871,0,0,1,72,60a1.02955,1.02955,0,0,1,.29-.71l.14941-.12012a.762.762,0,0,1,.18067-.09033A.63174.63174,0,0,1,72.7998,59.02a.95858.95858,0,0,1,.58008.05957A1.16213,1.16213,0,0,1,73.71,59.29a1.01394,1.01394,0,0,1,0,1.41992,1.17124,1.17124,0,0,1-.33008.21A.9994.9994,0,0,1,73,61Z"/><path class="cls-2" d="M79,67H13a3.00328,3.00328,0,0,1-3-3V45a3.00328,3.00328,0,0,1,3-3H79a3.00328,3.00328,0,0,1,3,3V64A3.00328,3.00328,0,0,1,79,67ZM13,44a1.001,1.001,0,0,0-1,1V64a1.001,1.001,0,0,0,1,1H79a1.001,1.001,0,0,0,1-1V45a1.001,1.001,0,0,0-1-1Z"/><g class="cls-5"><rect class="cls-2" height="9" width="4" x="17" y="49"/><rect class="cls-2" height="9" width="4" x="25" y="49"/><rect class="cls-2" height="9" width="4" x="33" y="49"/><rect class="cls-2" height="9" width="4" x="41" y="49"/><rect class="cls-2" height="9" width="4" x="49" y="49"/></g><path class="cls-2" d="M21,59H17a.99974.99974,0,0,1-1-1V49a.99974.99974,0,0,1,1-1h4a.99974.99974,0,0,1,1,1v9A.99974.99974,0,0,1,21,59Zm-3-2h2V50H18Z"/><path class="cls-2" d="M29,59H25a.99974.99974,0,0,1-1-1V49a.99974.99974,0,0,1,1-1h4a.99974.99974,0,0,1,1,1v9A.99974.99974,0,0,1,29,59Zm-3-2h2V50H26Z"/><path class="cls-2" d="M37,59H33a.99974.99974,0,0,1-1-1V49a.99974.99974,0,0,1,1-1h4a.99974.99974,0,0,1,1,1v9A.99974.99974,0,0,1,37,59Zm-3-2h2V50H34Z"/><path class="cls-2" d="M45,59H41a.99974.99974,0,0,1-1-1V49a.99974.99974,0,0,1,1-1h4a.99974.99974,0,0,1,1,1v9A.99974.99974,0,0,1,45,59Zm-3-2h2V50H42Z"/><path class="cls-2" d="M53,59H49a.99974.99974,0,0,1-1-1V49a.99974.99974,0,0,1,1-1h4a.99974.99974,0,0,1,1,1v9A.99974.99974,0,0,1,53,59Zm-3-2h2V50H50Z"/><path class="cls-2" d="M21,63H17a1,1,0,0,1,0-2h4a1,1,0,0,1,0,2Z"/><path class="cls-2" d="M29,63H25a1,1,0,0,1,0-2h4a1,1,0,0,1,0,2Z"/><path class="cls-2" d="M37,63H33a1,1,0,0,1,0-2h4a1,1,0,0,1,0,2Z"/><path class="cls-2" d="M45,63H41a1,1,0,0,1,0-2h4a1,1,0,0,1,0,2Z"/><path class="cls-2" d="M53,63H49a1,1,0,0,1,0-2h4a1,1,0,0,1,0,2Z"/><rect class="cls-3" height="23" rx="2" width="70" x="11" y="66"/><rect class="cls-4" height="23" rx="2" width="23" x="58" y="66"/><path class="cls-2" d="M65,74H63a1,1,0,0,1,0-2h2a1,1,0,0,1,0,2Z"/><path class="cls-2" d="M65,78H63a1,1,0,0,1,0-2h2a1,1,0,0,1,0,2Z"/><circle class="cls-3" cx="72" cy="75" r="3"/><path class="cls-2" d="M72,79a4,4,0,1,1,4-4A4.00427,4.00427,0,0,1,72,79Zm0-6a2,2,0,1,0,2,2A2.00229,2.00229,0,0,0,72,73Z"/><path class="cls-2" d="M63,82a.99042.99042,0,0,1-1-1,1.02955,1.02955,0,0,1,.29-.71A1.00405,1.00405,0,0,1,63.71,81.71,1.03574,1.03574,0,0,1,63,82Z"/><path class="cls-2" d="M67,82a1.00405,1.00405,0,0,1-.71-1.71,1.0344,1.0344,0,0,1,.89941-.27.60652.60652,0,0,1,.19043.05957.75628.75628,0,0,1,.17969.09033A1.54122,1.54122,0,0,1,67.71,80.29,1,1,0,0,1,67,82Z"/><path class="cls-2" d="M71,82a1.25961,1.25961,0,0,1-.19043-.02.61409.61409,0,0,1-.18945-.06006.762.762,0,0,1-.18067-.09033C70.38965,81.79,70.33984,81.75,70.29,81.71a1.03418,1.03418,0,0,1-.21-.33008A.9994.9994,0,0,1,70,81a1.02955,1.02955,0,0,1,.29-.71l.14941-.12012a.762.762,0,0,1,.18067-.09033.60083.60083,0,0,1,.18945-.05957.99846.99846,0,0,1,.90039.27,1.01394,1.01394,0,0,1,0,1.41992.94971.94971,0,0,1-.16016.11963.55863.55863,0,0,1-.16992.09033.65938.65938,0,0,1-.17968.06006A1.40381,1.40381,0,0,1,71,82Z"/><path class="cls-2" d="M75,82a.99042.99042,0,1,1,.71-.29A1.05232,1.05232,0,0,1,75,82Z"/><path class="cls-2" d="M63,86a1.05232,1.05232,0,0,1-.71-.29A1.02955,1.02955,0,0,1,62,85a1,1,0,1,1,1.71.71c-.0498.04-.10058.08008-.15039.11963a.75628.75628,0,0,1-.17969.09033.65938.65938,0,0,1-.17968.06006A1.40381,1.40381,0,0,1,63,86Z"/><path class="cls-2" d="M67,86a.9994.9994,0,0,1-.37988-.08008,1.03724,1.03724,0,0,1-.33008-.21,1.01394,1.01394,0,0,1,0-1.41992,1.03011,1.03011,0,0,1,.33008-.21045A1.017,1.017,0,0,1,67.71,84.29,1,1,0,0,1,67,86Z"/><path class="cls-2" d="M71,86a1.25961,1.25961,0,0,1-.19043-.02.61409.61409,0,0,1-.18945-.06006.762.762,0,0,1-.18067-.09033C70.38965,85.79,70.33984,85.75,70.29,85.71A1.02955,1.02955,0,0,1,70,85a1.0478,1.0478,0,0,1,.29-.71,1.53409,1.53409,0,0,1,.14941-.12012.762.762,0,0,1,.18067-.09033.60083.60083,0,0,1,.18945-.05957,1.00637,1.00637,0,0,1,.90039.27A1,1,0,0,1,71,86Z"/><path class="cls-2" d="M75,86a1.05232,1.05232,0,0,1-.71-.29,1.15384,1.15384,0,0,1-.21-.33008A.83154.83154,0,0,1,74,85a1,1,0,1,1,2,0,.9994.9994,0,0,1-.08008.37988,1.15384,1.15384,0,0,1-.21.33008A1.05421,1.05421,0,0,1,75,86Z"/><path class="cls-2" d="M65,84a.99042.99042,0,1,1,.71-.29A1.05232,1.05232,0,0,1,65,84Z"/><path class="cls-2" d="M69,84a1.39,1.39,0,0,1-.2002-.02.64867.64867,0,0,1-.17968-.06006.762.762,0,0,1-.18067-.09033C68.38965,83.79,68.33984,83.75,68.29,83.71A1.01394,1.01394,0,1,1,69,84Z"/><path class="cls-2" d="M73,84a1.39,1.39,0,0,1-.2002-.02.64867.64867,0,0,1-.17968-.06006.762.762,0,0,1-.18067-.09033C72.38965,83.79,72.33984,83.75,72.29,83.71A1.04871,1.04871,0,0,1,72,83a1.02955,1.02955,0,0,1,.29-.71l.14941-.12012a.762.762,0,0,1,.18067-.09033A.63174.63174,0,0,1,72.7998,82.02a.95858.95858,0,0,1,.58008.05957A1.16213,1.16213,0,0,1,73.71,82.29a1.01394,1.01394,0,0,1,0,1.41992,1.17124,1.17124,0,0,1-.33008.21A.9994.9994,0,0,1,73,84Z"/><path class="cls-2" d="M79,90H13a3.00328,3.00328,0,0,1-3-3V68a3.00328,3.00328,0,0,1,3-3H79a3.00328,3.00328,0,0,1,3,3V87A3.00328,3.00328,0,0,1,79,90ZM13,67a1.001,1.001,0,0,0-1,1V87a1.001,1.001,0,0,0,1,1H79a1.001,1.001,0,0,0,1-1V68a1.001,1.001,0,0,0-1-1Z"/><g class="cls-5"><rect class="cls-2" height="9" width="4" x="17" y="72"/><rect class="cls-2" height="9" width="4" x="25" y="72"/><rect class="cls-2" height="9" width="4" x="33" y="72"/><rect class="cls-2" height="9" width="4" x="41" y="72"/><rect class="cls-2" height="9" width="4" x="49" y="72"/></g><path class="cls-2" d="M21,82H17a.99974.99974,0,0,1-1-1V72a.99974.99974,0,0,1,1-1h4a.99974.99974,0,0,1,1,1v9A.99974.99974,0,0,1,21,82Zm-3-2h2V73H18Z"/><path class="cls-2" d="M29,82H25a.99974.99974,0,0,1-1-1V72a.99974.99974,0,0,1,1-1h4a.99974.99974,0,0,1,1,1v9A.99974.99974,0,0,1,29,82Zm-3-2h2V73H26Z"/><path class="cls-2" d="M37,82H33a.99974.99974,0,0,1-1-1V72a.99974.99974,0,0,1,1-1h4a.99974.99974,0,0,1,1,1v9A.99974.99974,0,0,1,37,82Zm-3-2h2V73H34Z"/><path class="cls-2" d="M45,82H41a.99974.99974,0,0,1-1-1V72a.99974.99974,0,0,1,1-1h4a.99974.99974,0,0,1,1,1v9A.99974.99974,0,0,1,45,82Zm-3-2h2V73H42Z"/><path class="cls-2" d="M53,82H49a.99974.99974,0,0,1-1-1V72a.99974.99974,0,0,1,1-1h4a.99974.99974,0,0,1,1,1v9A.99974.99974,0,0,1,53,82Zm-3-2h2V73H50Z"/><path class="cls-2" d="M21,86H17a1,1,0,0,1,0-2h4a1,1,0,0,1,0,2Z"/><path class="cls-2" d="M29,86H25a1,1,0,0,1,0-2h4a1,1,0,0,1,0,2Z"/><path class="cls-2" d="M37,86H33a1,1,0,0,1,0-2h4a1,1,0,0,1,0,2Z"/><path class="cls-2" d="M45,86H41a1,1,0,0,1,0-2h4a1,1,0,0,1,0,2Z"/><path class="cls-2" d="M53,86H49a1,1,0,0,1,0-2h4a1,1,0,0,1,0,2Z"/><rect class="cls-3" height="23" rx="2" width="70" x="11" y="89"/><rect class="cls-4" height="23" rx="2" width="23" x="58" y="89"/><path class="cls-2" d="M65,97H63a1,1,0,0,1,0-2h2a1,1,0,0,1,0,2Z"/><path class="cls-2" d="M65,101H63a1,1,0,0,1,0-2h2a1,1,0,0,1,0,2Z"/><circle class="cls-3" cx="72" cy="98" r="3"/><path class="cls-2" d="M72,102a4,4,0,1,1,4-4A4.00427,4.00427,0,0,1,72,102Zm0-6a2,2,0,1,0,2,2A2.00229,2.00229,0,0,0,72,96Z"/><path class="cls-2" d="M63,105a1.05232,1.05232,0,0,1-.71-.29A1.02955,1.02955,0,0,1,62,104a1,1,0,1,1,1.71.71c-.0498.04-.10058.08008-.15039.11963a.75628.75628,0,0,1-.17969.09033.65938.65938,0,0,1-.17968.06006A1.40381,1.40381,0,0,1,63,105Z"/><path class="cls-2" d="M67,105a1.00405,1.00405,0,0,1-.71-1.71,1.0344,1.0344,0,0,1,.89941-.27.60652.60652,0,0,1,.19043.05957.75628.75628,0,0,1,.17969.09033A1.54122,1.54122,0,0,1,67.71,103.29,1,1,0,0,1,67,105Z"/><path class="cls-2" d="M71,105a1.25961,1.25961,0,0,1-.19043-.02.61409.61409,0,0,1-.18945-.06006.762.762,0,0,1-.18067-.09033c-.0498-.03955-.09961-.07959-.14941-.11963a1.01394,1.01394,0,0,1,0-1.41992l.14941-.12012a.762.762,0,0,1,.18067-.09033.60083.60083,0,0,1,.18945-.05957.99846.99846,0,0,1,.90039.27A1,1,0,0,1,71,105Z"/><path class="cls-2" d="M75,105a1.25961,1.25961,0,0,1-.19043-.02.61409.61409,0,0,1-.18945-.06006.762.762,0,0,1-.18067-.09033A1.52675,1.52675,0,0,1,74.29,104.71,1.01394,1.01394,0,1,1,75,105Z"/><path class="cls-2" d="M63,109a.99042.99042,0,0,1-1-1,.99993.99993,0,0,1,.08008-.38037.93067.93067,0,0,1,.21-.32959,1.01727,1.01727,0,0,1,.91016-.27.64181.64181,0,0,1,.17968.05957.75628.75628,0,0,1,.17969.09033A1.54122,1.54122,0,0,1,63.71,107.29a1.01394,1.01394,0,0,1,0,1.41992A1.03574,1.03574,0,0,1,63,109Z"/><path class="cls-2" d="M67,109a.9994.9994,0,0,1-.37988-.08008,1.03724,1.03724,0,0,1-.33008-.21,1.01394,1.01394,0,0,1,0-1.41992,1.03011,1.03011,0,0,1,.33008-.21045A1.017,1.017,0,0,1,67.71,107.29,1,1,0,0,1,67,109Z"/><path class="cls-2" d="M71,109a1.25961,1.25961,0,0,1-.19043-.02.61409.61409,0,0,1-.18945-.06006.762.762,0,0,1-.18067-.09033A1.52675,1.52675,0,0,1,70.29,108.71,1.04871,1.04871,0,0,1,70,108a.99993.99993,0,0,1,.08008-.38037,1.1515,1.1515,0,0,1,.21-.32959,1.53409,1.53409,0,0,1,.14941-.12012.762.762,0,0,1,.18067-.09033.60083.60083,0,0,1,.18945-.05957.99846.99846,0,0,1,.90039.27A1,1,0,0,1,71,109Z"/><path class="cls-2" d="M75,109a.99042.99042,0,1,1,.71-.29A1.05232,1.05232,0,0,1,75,109Z"/><path class="cls-2" d="M65,107a1.00405,1.00405,0,0,1-.71-1.71,1.0344,1.0344,0,0,1,.89941-.27.60652.60652,0,0,1,.19043.05957.75628.75628,0,0,1,.17969.09033A1.54122,1.54122,0,0,1,65.71,105.29a1.01394,1.01394,0,0,1,0,1.41992,1.53391,1.53391,0,0,1-.15039.11963.75628.75628,0,0,1-.17969.09033.61989.61989,0,0,1-.19043.06006A1.24691,1.24691,0,0,1,65,107Z"/><path class="cls-2" d="M69,107a1.0321,1.0321,0,0,1-.71-.29,1.01394,1.01394,0,0,1,0-1.41992l.14941-.12012a.762.762,0,0,1,.18067-.09033.63174.63174,0,0,1,.17968-.05957A1.00067,1.00067,0,1,1,69,107Z"/><path class="cls-2" d="M73,107a1.39,1.39,0,0,1-.2002-.02.64867.64867,0,0,1-.17968-.06006.762.762,0,0,1-.18067-.09033c-.0498-.03955-.09961-.07959-.14941-.11963A1.04871,1.04871,0,0,1,72,106a1.02955,1.02955,0,0,1,.29-.71l.14941-.12012a.762.762,0,0,1,.18067-.09033.63174.63174,0,0,1,.17968-.05957.95858.95858,0,0,1,.58008.05957A1.16213,1.16213,0,0,1,73.71,105.29a1.01394,1.01394,0,0,1,0,1.41992,1.17124,1.17124,0,0,1-.33008.21A.9994.9994,0,0,1,73,107Z"/><path class="cls-2" d="M79,113H13a3.00328,3.00328,0,0,1-3-3V91a3.00328,3.00328,0,0,1,3-3H79a3.00328,3.00328,0,0,1,3,3v19A3.00328,3.00328,0,0,1,79,113ZM13,90a1.001,1.001,0,0,0-1,1v19a1.001,1.001,0,0,0,1,1H79a1.001,1.001,0,0,0,1-1V91a1.001,1.001,0,0,0-1-1Z"/><g class="cls-5"><rect class="cls-2" height="9" width="4" x="17" y="95"/><rect class="cls-2" height="9" width="4" x="25" y="95"/><rect class="cls-2" height="9" width="4" x="33" y="95"/><rect class="cls-2" height="9" width="4" x="41" y="95"/><rect class="cls-2" height="9" width="4" x="49" y="95"/></g><path class="cls-2" d="M21,105H17a.99974.99974,0,0,1-1-1V95a.99974.99974,0,0,1,1-1h4a.99974.99974,0,0,1,1,1v9A.99974.99974,0,0,1,21,105Zm-3-2h2V96H18Z"/><path class="cls-2" d="M29,105H25a.99974.99974,0,0,1-1-1V95a.99974.99974,0,0,1,1-1h4a.99974.99974,0,0,1,1,1v9A.99974.99974,0,0,1,29,105Zm-3-2h2V96H26Z"/><path class="cls-2" d="M37,105H33a.99974.99974,0,0,1-1-1V95a.99974.99974,0,0,1,1-1h4a.99974.99974,0,0,1,1,1v9A.99974.99974,0,0,1,37,105Zm-3-2h2V96H34Z"/><path class="cls-2" d="M45,105H41a.99974.99974,0,0,1-1-1V95a.99974.99974,0,0,1,1-1h4a.99974.99974,0,0,1,1,1v9A.99974.99974,0,0,1,45,105Zm-3-2h2V96H42Z"/><path class="cls-2" d="M53,105H49a.99974.99974,0,0,1-1-1V95a.99974.99974,0,0,1,1-1h4a.99974.99974,0,0,1,1,1v9A.99974.99974,0,0,1,53,105Zm-3-2h2V96H50Z"/><path class="cls-2" d="M21,109H17a1,1,0,0,1,0-2h4a1,1,0,0,1,0,2Z"/><path class="cls-2" d="M29,109H25a1,1,0,0,1,0-2h4a1,1,0,0,1,0,2Z"/><path class="cls-2" d="M37,109H33a1,1,0,0,1,0-2h4a1,1,0,0,1,0,2Z"/><path class="cls-2" d="M45,109H41a1,1,0,0,1,0-2h4a1,1,0,0,1,0,2Z"/><path class="cls-2" d="M53,109H49a1,1,0,0,1,0-2h4a1,1,0,0,1,0,2Z"/><rect class="cls-3" height="71.9999" rx="4" width="44.00012" x="74.99988" y="40"/><path class="cls-2" d="M107,40.0001v3a2,2,0,0,1-2,2H89a2,2,0,0,1-2-2v-3Z"/><path class="cls-2" d="M115,113H79a5.00588,5.00588,0,0,1-5-5V44a5.00588,5.00588,0,0,1,5-5h36a5.00588,5.00588,0,0,1,5,5v64A5.00588,5.00588,0,0,1,115,113ZM79,41a3.00328,3.00328,0,0,0-3,3v64a3.00328,3.00328,0,0,0,3,3h36a3.00328,3.00328,0,0,0,3-3V44a3.00328,3.00328,0,0,0-3-3Z"/><path class="cls-2" d="M105,46H89a3.00328,3.00328,0,0,1-3-3V40a1,1,0,0,1,2,0v3a1.001,1.001,0,0,0,1,1h16a1.001,1.001,0,0,0,1-1V40a1,1,0,0,1,2,0v3A3.00328,3.00328,0,0,1,105,46Z"/><circle class="cls-2" cx="97" cy="77" r="19"/><path class="cls-3" d="M97,90A13.01474,13.01474,0,0,1,84,77a1,1,0,0,1,2,0,10.99952,10.99952,0,1,0,2.2002-6.60059l-.16016.209a1.00025,1.00025,0,0,1-1.58789-1.2168l.1543-.20117A13.00024,13.00024,0,1,1,97,90Z"/><path class="cls-3" d="M92,71H87a.99974.99974,0,0,1-1-1V65a1,1,0,0,1,2,0v4h4a1,1,0,0,1,0,2Z"/><path class="cls-3" d="M102.34375,81.81738a.99569.99569,0,0,1-.58008-.186L96.419,77.814A1.0015,1.0015,0,0,1,96,77V70a1,1,0,0,1,2,0v6.48535l4.92578,3.51807a1.0002,1.0002,0,0,1-.582,1.814Z"/><path class="cls-3" d="M97,79a2,2,0,1,1,2-2A2.00229,2.00229,0,0,1,97,79Zm0-2.00146v0Z"/></svg>
