<svg xmlns="http://www.w3.org/2000/svg" viewBox="0 0 128 128"><defs><style>.cls-2,.cls-4{fill:currentColor}.cls-3{fill:#fff}.cls-4{opacity:.5}</style></defs><title/><g style="opacity:.3"><path d="M115.979 48.043a38.995 38.995 0 1 0-77.044-12.094 20.62 20.62 0 0 1-15.39 16.762 30.749 30.749 0 1 0 22.01 56.985c7.607-4 17.032-2.678 22.639 3.835a33.748 33.748 0 0 0 53.41-41.094 33.64 33.64 0 0 1-5.625-24.394" class="cls-2"/><path d="M9 11v50l50-50Zm9 9h19.272L18 39.273Z" class="cls-3"/><path d="M9 62a1 1 0 0 1-1-1V11a1 1 0 0 1 1-1h50a1 1 0 0 1 .707 1.707l-50 50A1 1 0 0 1 9 62m1-50v46.586L56.586 12Zm8 28.272a1 1 0 0 1-1-1V20a1 1 0 0 1 1-1h19.272a1 1 0 0 1 .707 1.707L18.707 39.979a1 1 0 0 1-.707.293M19 21v15.858L34.858 21Z" class="cls-2"/><path d="M13 14a1 1 0 0 1-1-1v-2a1 1 0 0 1 2 0v2a1 1 0 0 1-1 1m4-1a1 1 0 0 1-1-1v-1a1 1 0 0 1 2 0v1a1 1 0 0 1-1 1m4 1a1 1 0 0 1-1-1v-2a1 1 0 0 1 2 0v2a1 1 0 0 1-1 1m4-1a1 1 0 0 1-1-1v-1a1 1 0 0 1 2 0v1a1 1 0 0 1-1 1m4 1a1 1 0 0 1-1-1v-2a1 1 0 0 1 2 0v2a1 1 0 0 1-1 1m4-1a1 1 0 0 1-1-1v-1a1 1 0 0 1 2 0v1a1 1 0 0 1-1 1m4 1a1 1 0 0 1-1-1v-2a1 1 0 0 1 2 0v2a1 1 0 0 1-1 1m4-1a1 1 0 0 1-1-1v-1a1 1 0 0 1 2 0v1a1 1 0 0 1-1 1m4 1a1 1 0 0 1-1-1v-2a1 1 0 0 1 2 0v2a1 1 0 0 1-1 1m4-1a1 1 0 0 1-1-1v-1a1 1 0 0 1 2 0v1a1 1 0 0 1-1 1m4 1a1 1 0 0 1-1-1v-2a1 1 0 0 1 2 0v2a1 1 0 0 1-1 1" class="cls-2"/><path d="m74 27-7-3 7-3 2 3z" class="cls-3"/><path d="M74 28a1 1 0 0 1-.394-.081l-7-3a1 1 0 0 1 0-1.838l7-3a1 1 0 0 1 1.226.364l2 3a1 1 0 0 1 0 1.11l-2 3A1 1 0 0 1 74 28m-4.46-4 4.089 1.753L74.798 24l-1.17-1.753Z" class="cls-2"/><path d="M112 27H74l2-3-2-3h38z" class="cls-3"/><path d="M112 28H74a1 1 0 0 1-.832-1.555L74.798 24l-1.63-2.445A1 1 0 0 1 74 20h38a1 1 0 0 1 1 1v6a1 1 0 0 1-1 1m-36.132-2H111v-4H75.868l.964 1.445a1 1 0 0 1 0 1.11Z" class="cls-2"/><path d="M112 21h4v6h-4z" class="cls-3"/><path d="M116 28h-4a1 1 0 0 1-1-1v-6a1 1 0 0 1 1-1h4a1 1 0 0 1 1 1v6a1 1 0 0 1-1 1m-3-2h2v-4h-2Z" class="cls-2"/><path d="M120 27h-4v-6h4a3 3 0 0 1 3 3 3 3 0 0 1-3 3" class="cls-3"/><path d="M120 28h-4a1 1 0 0 1-1-1v-6a1 1 0 0 1 1-1h4a4 4 0 0 1 0 8m-3-2h3a2 2 0 0 0 0-4h-3Z" class="cls-2"/><path d="M118 13h-12V7h12a2.006 2.006 0 0 1 2 2v2a2.006 2.006 0 0 1-2 2m-43 0-6-2V9l6-2z" class="cls-3"/><path d="M75 14a1 1 0 0 1-.316-.051l-6-2A1 1 0 0 1 68 11V9a1 1 0 0 1 .684-.949l6-2A1 1 0 0 1 76 7v6a1 1 0 0 1-1 1m-5-3.72 4 1.333V8.387l-4 1.334Z" class="cls-2"/><path d="M106 13V7H93l-3 1-3-1H75v6h12l3-1 3 1z" class="cls-3"/><path d="M118 14h-12a1 1 0 0 1-1-1V7a1 1 0 0 1 1-1h12a3.003 3.003 0 0 1 3 3v2a3.003 3.003 0 0 1-3 3m-11-2h11a1 1 0 0 0 1-1V9a1 1 0 0 0-1-1h-11Zm-20 2H75a1 1 0 0 1-1-1V7a1 1 0 0 1 1-1h12a1 1 0 0 1 1 1v6a1 1 0 0 1-1 1m-11-2h10V8H76Z" class="cls-2"/><path d="M79 14a1 1 0 0 1-1-1V7a1 1 0 0 1 2 0v6a1 1 0 0 1-1 1m4 0a1 1 0 0 1-1-1V7a1 1 0 0 1 2 0v6a1 1 0 0 1-1 1m23 0H93a1 1 0 0 1-1-1V7a1 1 0 0 1 1-1h13a1 1 0 0 1 1 1v6a1 1 0 0 1-1 1m-12-2h11V8H94Zm-7 2a1 1 0 0 1-1-1V7a1 1 0 0 1 1.316-.949l3 1A1 1 0 0 1 91 8v4a1 1 0 0 1-.684.949l-3 1A1 1 0 0 1 87 14m1-5.613v3.226l1-.334V8.721Z" class="cls-2"/><path d="M93 14a1 1 0 0 1-.316-.051l-3-1A1 1 0 0 1 89 12V8a1 1 0 0 1 .684-.949l3-1A1 1 0 0 1 94 7v6a1 1 0 0 1-1 1m-2-2.72 1 .333V8.387l-1 .334ZM69 11h-2a1 1 0 0 1 0-2h2a1 1 0 0 1 0 2m47 6h-11a1 1 0 0 1 0-2h10v-3a1 1 0 0 1 2 0v4a1 1 0 0 1-1 1" class="cls-2"/><path d="M120 9h3v2h-3z" class="cls-3"/><path d="M123 12h-3a1 1 0 0 1-1-1V9a1 1 0 0 1 1-1h3a1 1 0 0 1 1 1v2a1 1 0 0 1-1 1m-2-2" class="cls-2"/><path d="M111 41h8v7h-8z" class="cls-3"/><path d="M111 41h8v7h-8z" class="cls-4"/><path d="M119 49h-8a1 1 0 0 1-1-1v-7a1 1 0 0 1 1-1h8a1 1 0 0 1 1 1v7a1 1 0 0 1-1 1m-7-2h6v-5h-6Z" class="cls-2"/><path d="M111 36h8v5h-8z" class="cls-3"/><path d="M119 42h-8a1 1 0 0 1-1-1v-5a1 1 0 0 1 1-1h8a1 1 0 0 1 1 1v5a1 1 0 0 1-1 1m-7-2h6v-3h-6Z" class="cls-2"/><path d="M111 48h8v4h-8z" class="cls-3"/><path d="M119 53h-8a1 1 0 0 1-1-1v-4a1 1 0 0 1 1-1h8a1 1 0 0 1 1 1v4a1 1 0 0 1-1 1m-7-2h6v-2h-6Z" class="cls-2"/><path d="M33 114h56v9H33z" class="cls-3"/><path d="M89 124H33a1 1 0 0 1-1-1v-9a1 1 0 0 1 1-1h56a1 1 0 0 1 1 1v9a1 1 0 0 1-1 1m-55-2h54v-7H34Z" class="cls-2"/><path d="M37 117a1 1 0 0 1-1-1v-2a1 1 0 0 1 2 0v2a1 1 0 0 1-1 1m4-1a1 1 0 0 1-1-1v-1a1 1 0 0 1 2 0v1a1 1 0 0 1-1 1m4 1a1 1 0 0 1-1-1v-2a1 1 0 0 1 2 0v2a1 1 0 0 1-1 1m4-1a1 1 0 0 1-1-1v-1a1 1 0 0 1 2 0v1a1 1 0 0 1-1 1m4 1a1 1 0 0 1-1-1v-2a1 1 0 0 1 2 0v2a1 1 0 0 1-1 1m4-1a1 1 0 0 1-1-1v-1a1 1 0 0 1 2 0v1a1 1 0 0 1-1 1m4 1a1 1 0 0 1-1-1v-2a1 1 0 0 1 2 0v2a1 1 0 0 1-1 1m4-1a1 1 0 0 1-1-1v-1a1 1 0 0 1 2 0v1a1 1 0 0 1-1 1m4 1a1 1 0 0 1-1-1v-2a1 1 0 0 1 2 0v2a1 1 0 0 1-1 1m4-1a1 1 0 0 1-1-1v-1a1 1 0 0 1 2 0v1a1 1 0 0 1-1 1m8 0a1 1 0 0 1-1-1v-1a1 1 0 0 1 2 0v1a1 1 0 0 1-1 1m-4 1a1 1 0 0 1-1-1v-2a1 1 0 0 1 2 0v2a1 1 0 0 1-1 1m8 0a1 1 0 0 1-1-1v-2a1 1 0 0 1 2 0v2a1 1 0 0 1-1 1" class="cls-2"/><path d="M29 97h-2l-2-1-2 1-2-1-2 1-2-1-2 1-2-1-2 1H9v-2l1-2-1-2 1-2-1-2 1-2-1-2 1-2-1-2v-2h2l2 1 2-1 2 1 2-1 2 1 2-1 2 1 2-1h2v2l-1 2 1 2-1 2 1 2-1 2 1 2-1 2 1 2z" class="cls-3"/><path d="M29 98h-2a1 1 0 0 1-.447-.105L25 97.118l-1.553.777a1 1 0 0 1-.894 0L21 97.118l-1.553.777a1 1 0 0 1-.894 0L17 97.118l-1.553.777a1 1 0 0 1-.894 0L13 97.118l-1.553.777A1 1 0 0 1 11 98H9a1 1 0 0 1-1-1v-2a1 1 0 0 1 .105-.447L8.882 93l-.777-1.553a1 1 0 0 1 0-.894L8.882 89l-.777-1.552a1 1 0 0 1 0-.895L8.882 85l-.777-1.553a1 1 0 0 1 0-.894L8.882 81l-.777-1.553A1 1 0 0 1 8 79v-2a1 1 0 0 1 1-1h2a1 1 0 0 1 .447.105l1.553.777 1.553-.777a1 1 0 0 1 .894 0l1.553.777 1.553-.777a1 1 0 0 1 .894 0l1.553.777 1.553-.777a1 1 0 0 1 .894 0l1.553.777 1.553-.777A1 1 0 0 1 27 76h2a1 1 0 0 1 1 1v2a1 1 0 0 1-.105.447L29.118 81l.777 1.553a1 1 0 0 1 0 .894L29.118 85l.777 1.553a1 1 0 0 1 0 .895L29.118 89l.777 1.553a1 1 0 0 1 0 .894L29.118 93l.777 1.553A1 1 0 0 1 30 95v2a1 1 0 0 1-1 1m-1.764-2H28v-.764l-.895-1.789a1 1 0 0 1 0-.894L27.882 91l-.777-1.553a1 1 0 0 1 0-.894L27.882 87l-.777-1.552a1 1 0 0 1 0-.895L27.882 83l-.777-1.553a1 1 0 0 1 0-.894L28 78.764V78h-.764l-1.789.895a1 1 0 0 1-.894 0L23 78.118l-1.553.777a1 1 0 0 1-.894 0L19 78.118l-1.553.777a1 1 0 0 1-.894 0L15 78.118l-1.553.777a1 1 0 0 1-.894 0L10.763 78H10v.764l.895 1.789a1 1 0 0 1 0 .894L10.118 83l.777 1.553a1 1 0 0 1 0 .895L10.118 87l.777 1.553a1 1 0 0 1 0 .894L10.118 91l.777 1.553a1 1 0 0 1 0 .894L10 95.236V96h.764l1.789-.895a1 1 0 0 1 .894 0l1.553.777 1.553-.777a1 1 0 0 1 .894 0l1.553.777 1.553-.777a1 1 0 0 1 .894 0l1.553.777 1.553-.777a1 1 0 0 1 .894 0Z" class="cls-2"/><path d="M14 82h10v10H14z" class="cls-2"/><path d="M24 93H14a1 1 0 0 1-1-1V82a1 1 0 0 1 1-1h10a1 1 0 0 1 1 1v10a1 1 0 0 1-1 1m-9-2h8v-8h-8Z" class="cls-2"/><path d="M114 90v-8h8z" class="cls-3"/><path d="M114 90H88V56h34v26h-8z" class="cls-3"/><path d="M88 56h34v5H88z" class="cls-4"/><path d="M114 91a1 1 0 0 1-1-1v-8a1 1 0 0 1 1-1h8a1 1 0 0 1 .707 1.707l-8 8A1 1 0 0 1 114 91m1-8v4.586L119.586 83Z" class="cls-2"/><path d="M114 91H88a1 1 0 0 1-1-1V56a1 1 0 0 1 1-1h34a1 1 0 0 1 1 1v26a1 1 0 0 1-1 1h-7v7a1 1 0 0 1-1 1m-25-2h24v-7a1 1 0 0 1 1-1h7V57H89Z" class="cls-2"/></g><path d="m24.158 107.121-9.335-61.293A2 2 0 0 1 16.5 43.55l81.066-12.346a2 2 0 0 1 2.278 1.676l9.335 61.293a2 2 0 0 1-1.676 2.278l-81.066 12.346a2 2 0 0 1-2.278-1.676" class="cls-3"/><path d="M26.129 109.82a3 3 0 0 1-2.96-2.549l-9.334-61.293a3.004 3.004 0 0 1 2.514-3.417l81.065-12.346a3 3 0 0 1 3.417 2.514l9.335 61.293a3.003 3.003 0 0 1-2.514 3.418l-81.065 12.346a3 3 0 0 1-.458.035m71.74-77.64a1 1 0 0 0-.154.012L16.649 44.538a1 1 0 0 0-.837 1.14l9.335 61.293a1 1 0 0 0 1.14.838l81.065-12.347a1 1 0 0 0 .837-1.139L98.854 33.03a1 1 0 0 0-.986-.85" class="cls-2"/><path d="M92.5 85.55a.997.997 0 0 1 1-1 .997.997 0 0 1 1 1 .995.995 0 0 1-1 .99.995.995 0 0 1-1-.99m-4 0a.997.997 0 0 1 1-1 .997.997 0 0 1 1 1 .995.995 0 0 1-1 .99.995.995 0 0 1-1-.99m-4 0a.997.997 0 0 1 1-1 .997.997 0 0 1 1 1 .995.995 0 0 1-1 .99.995.995 0 0 1-1-.99m-4 0a.997.997 0 0 1 1-1 .997.997 0 0 1 1 1 .995.995 0 0 1-1 .99.995.995 0 0 1-1-.99m-4 0a.997.997 0 0 1 1-1 .997.997 0 0 1 1 1 .995.995 0 0 1-1 .99.995.995 0 0 1-1-.99m-4 0a.997.997 0 0 1 1-1 .997.997 0 0 1 1 1 .995.995 0 0 1-1 .99.995.995 0 0 1-1-.99m-4 0a.997.997 0 0 1 1-1 .997.997 0 0 1 1 1 .995.995 0 0 1-1 .99.995.995 0 0 1-1-.99m-4 0a.997.997 0 0 1 1-1 .997.997 0 0 1 1 1 .995.995 0 0 1-1 .99.995.995 0 0 1-1-.99m-4 0a.997.997 0 0 1 1-1 .997.997 0 0 1 1 1 .995.995 0 0 1-1 .99.995.995 0 0 1-1-.99m-4 0a.997.997 0 0 1 1-1 .997.997 0 0 1 1 1 .995.995 0 0 1-1 .99.995.995 0 0 1-1-.99m-4 0a.997.997 0 0 1 1-1 .997.997 0 0 1 1 1 .995.995 0 0 1-1 .99.995.995 0 0 1-1-.99m-4 0a.997.997 0 0 1 1-1 .997.997 0 0 1 1 1 .995.995 0 0 1-1 .99.995.995 0 0 1-1-.99m-4 0a.997.997 0 0 1 1-1 .997.997 0 0 1 1 1 .995.995 0 0 1-1 .99.995.995 0 0 1-1-.99m-4 0a.997.997 0 0 1 1-1 .997.997 0 0 1 1 1 .995.995 0 0 1-1 .99.995.995 0 0 1-1-.99m-4 0a.997.997 0 0 1 1-1 .997.997 0 0 1 1 1 .995.995 0 0 1-1 .99.995.995 0 0 1-1-.99m-4 0a.997.997 0 0 1 1-1 .997.997 0 0 1 1 1 .995.995 0 0 1-1 .99.995.995 0 0 1-1-.99" class="cls-3"/><path d="M19 98V37h84a2 2 0 0 1 2 2v62a2 2 0 0 1-2 2H24a5 5 0 0 1-5-5" class="cls-3"/><path d="M19 98V37h84a2 2 0 0 1 2 2v62a2 2 0 0 1-2 2H24a5 5 0 0 1-5-5" class="cls-4"/><path d="M92 99a1.003 1.003 0 0 1 1-1 1.003 1.003 0 0 1 1 1 1.003 1.003 0 0 1-1 1 1.003 1.003 0 0 1-1-1m-4 0a1.003 1.003 0 0 1 1-1 1.003 1.003 0 0 1 1 1 1.003 1.003 0 0 1-1 1 1.003 1.003 0 0 1-1-1m-4 0a1.003 1.003 0 0 1 1-1 1.003 1.003 0 0 1 1 1 1.003 1.003 0 0 1-1 1 1.003 1.003 0 0 1-1-1m-4 0a1.003 1.003 0 0 1 1-1 1.003 1.003 0 0 1 1 1 1.003 1.003 0 0 1-1 1 1.003 1.003 0 0 1-1-1m-4 0a1.003 1.003 0 0 1 1-1 1.003 1.003 0 0 1 1 1 1.003 1.003 0 0 1-1 1 1.003 1.003 0 0 1-1-1m-4 0a1.003 1.003 0 0 1 1-1 1.003 1.003 0 0 1 1 1 1.003 1.003 0 0 1-1 1 1.003 1.003 0 0 1-1-1m-4 0a1.003 1.003 0 0 1 1-1 1.003 1.003 0 0 1 1 1 1.003 1.003 0 0 1-1 1 1.003 1.003 0 0 1-1-1m-4 0a1.003 1.003 0 0 1 1-1 1.003 1.003 0 0 1 1 1 1.003 1.003 0 0 1-1 1 1.003 1.003 0 0 1-1-1m-4 0a1.003 1.003 0 0 1 1-1 1.003 1.003 0 0 1 1 1 1.003 1.003 0 0 1-1 1 1.003 1.003 0 0 1-1-1m-4 0a1.003 1.003 0 0 1 1-1 1.003 1.003 0 0 1 1 1 1.003 1.003 0 0 1-1 1 1.003 1.003 0 0 1-1-1m-4 0a1.003 1.003 0 0 1 1-1 1.003 1.003 0 0 1 1 1 1.003 1.003 0 0 1-1 1 1.003 1.003 0 0 1-1-1m-4 0a1.003 1.003 0 0 1 1-1 1.003 1.003 0 0 1 1 1 1.003 1.003 0 0 1-1 1 1.003 1.003 0 0 1-1-1m-4 0a1.003 1.003 0 0 1 1-1 1.003 1.003 0 0 1 1 1 1.003 1.003 0 0 1-1 1 1.003 1.003 0 0 1-1-1m-4 0a1.003 1.003 0 0 1 1-1 1.003 1.003 0 0 1 1 1 1.003 1.003 0 0 1-1 1 1.003 1.003 0 0 1-1-1m-4 0a1.003 1.003 0 0 1 1-1 1.003 1.003 0 0 1 1 1 1.003 1.003 0 0 1-1 1 1.003 1.003 0 0 1-1-1m-4 0a1.003 1.003 0 0 1 1-1 1.003 1.003 0 0 1 1 1 1.003 1.003 0 0 1-1 1 1.003 1.003 0 0 1-1-1m-4 0a1.003 1.003 0 0 1 1-1 1.003 1.003 0 0 1 1 1 1.003 1.003 0 0 1-1 1 1.003 1.003 0 0 1-1-1m-4 0a1.003 1.003 0 0 1 1-1 1.003 1.003 0 0 1 1 1 1.003 1.003 0 0 1-1 1 1.003 1.003 0 0 1-1-1m-4 0a1.003 1.003 0 0 1 1-1 1.003 1.003 0 0 1 1 1 1.003 1.003 0 0 1-1 1 1.003 1.003 0 0 1-1-1m72-58a1.003 1.003 0 0 1 1-1 1.003 1.003 0 0 1 1 1 1.003 1.003 0 0 1-1 1 1.003 1.003 0 0 1-1-1m-4 0a1.003 1.003 0 0 1 1-1 1.003 1.003 0 0 1 1 1 1.003 1.003 0 0 1-1 1 1.003 1.003 0 0 1-1-1m-4 0a1.003 1.003 0 0 1 1-1 1.003 1.003 0 0 1 1 1 1.003 1.003 0 0 1-1 1 1.003 1.003 0 0 1-1-1m-4 0a1.003 1.003 0 0 1 1-1 1.003 1.003 0 0 1 1 1 1.003 1.003 0 0 1-1 1 1.003 1.003 0 0 1-1-1m-4 0a1.003 1.003 0 0 1 1-1 1.003 1.003 0 0 1 1 1 1.003 1.003 0 0 1-1 1 1.003 1.003 0 0 1-1-1m-4 0a1.003 1.003 0 0 1 1-1 1.003 1.003 0 0 1 1 1 1.003 1.003 0 0 1-1 1 1.003 1.003 0 0 1-1-1m-4 0a1.003 1.003 0 0 1 1-1 1.003 1.003 0 0 1 1 1 1.003 1.003 0 0 1-1 1 1.003 1.003 0 0 1-1-1m-4 0a1.003 1.003 0 0 1 1-1 1.003 1.003 0 0 1 1 1 1.003 1.003 0 0 1-1 1 1.003 1.003 0 0 1-1-1m-4 0a1.003 1.003 0 0 1 1-1 1.003 1.003 0 0 1 1 1 1.003 1.003 0 0 1-1 1 1.003 1.003 0 0 1-1-1m-4 0a1.003 1.003 0 0 1 1-1 1.003 1.003 0 0 1 1 1 1.003 1.003 0 0 1-1 1 1.003 1.003 0 0 1-1-1m-4 0a1.003 1.003 0 0 1 1-1 1.003 1.003 0 0 1 1 1 1.003 1.003 0 0 1-1 1 1.003 1.003 0 0 1-1-1m-4 0a1.003 1.003 0 0 1 1-1 1.003 1.003 0 0 1 1 1 1.003 1.003 0 0 1-1 1 1.003 1.003 0 0 1-1-1m-4 0a1.003 1.003 0 0 1 1-1 1.003 1.003 0 0 1 1 1 1.003 1.003 0 0 1-1 1 1.003 1.003 0 0 1-1-1m-4 0a1.003 1.003 0 0 1 1-1 1.003 1.003 0 0 1 1 1 1.003 1.003 0 0 1-1 1 1.003 1.003 0 0 1-1-1m-4 0a1.003 1.003 0 0 1 1-1 1.003 1.003 0 0 1 1 1 1.003 1.003 0 0 1-1 1 1.003 1.003 0 0 1-1-1m-4 0a1.003 1.003 0 0 1 1-1 1.003 1.003 0 0 1 1 1 1.003 1.003 0 0 1-1 1 1.003 1.003 0 0 1-1-1m-4 0a1.003 1.003 0 0 1 1-1 1.003 1.003 0 0 1 1 1 1.003 1.003 0 0 1-1 1 1.003 1.003 0 0 1-1-1m-4 0a1.003 1.003 0 0 1 1-1 1.003 1.003 0 0 1 1 1 1.003 1.003 0 0 1-1 1 1.003 1.003 0 0 1-1-1m-4 0a1.003 1.003 0 0 1 1-1 1.003 1.003 0 0 1 1 1 1.003 1.003 0 0 1-1 1 1.003 1.003 0 0 1-1-1m81 51a1 1 0 0 1-.38-.08.9.9 0 0 1-.54-.54.8.8 0 0 1-.08-.38 1.05 1.05 0 0 1 .29-.71 1 1 0 0 1 .33-.21 1 1 0 0 1 .76 0 1.2 1.2 0 0 1 .33.21 1.05 1.05 0 0 1 .29.71 1 1 0 0 1-.08.38 1.2 1.2 0 0 1-.21.33 1.05 1.05 0 0 1-.71.29m-1-4.82a1.003 1.003 0 0 1 1-1 1.003 1.003 0 0 1 1 1 1.003 1.003 0 0 1-1 1 1.003 1.003 0 0 1-1-1m0-3.82a1.003 1.003 0 0 1 1-1 1.003 1.003 0 0 1 1 1 .997.997 0 0 1-1 1 .997.997 0 0 1-1-1m0-3.82a1.003 1.003 0 0 1 1-1 1.003 1.003 0 0 1 1 1 .997.997 0 0 1-1 1 .997.997 0 0 1-1-1m0-3.81a1.003 1.003 0 0 1 1-1 1.003 1.003 0 0 1 1 1 1.003 1.003 0 0 1-1 1 1.003 1.003 0 0 1-1-1m0-3.82a1.003 1.003 0 0 1 1-1 1.003 1.003 0 0 1 1 1 1.003 1.003 0 0 1-1 1 1.003 1.003 0 0 1-1-1m0-3.82a1.003 1.003 0 0 1 1-1 1.003 1.003 0 0 1 1 1 1.003 1.003 0 0 1-1 1 1.003 1.003 0 0 1-1-1m0-3.82a1.003 1.003 0 0 1 1-1 1.003 1.003 0 0 1 1 1 1.003 1.003 0 0 1-1 1 1.003 1.003 0 0 1-1-1m0-3.81a.997.997 0 0 1 1-1 .997.997 0 0 1 1 1 .994.994 0 0 1-1 .99.994.994 0 0 1-1-.99m0-3.82a.997.997 0 0 1 1-1 .997.997 0 0 1 1 1 1.003 1.003 0 0 1-1 1 1.003 1.003 0 0 1-1-1m0-3.82a1.003 1.003 0 0 1 1-1 1.003 1.003 0 0 1 1 1 1.003 1.003 0 0 1-1 1 1.003 1.003 0 0 1-1-1m1-2.82a.84.84 0 0 1-.38-.08 1.2 1.2 0 0 1-.33-.21 1 1 0 0 1-.21-.33.8.8 0 0 1-.08-.38 1.05 1.05 0 0 1 .29-.71 1.2 1.2 0 0 1 .33-.21 1 1 0 0 1 1.09.21 1.2 1.2 0 0 1 .21.33.94.94 0 0 1 0 .76.9.9 0 0 1-.21.33 1.05 1.05 0 0 1-.71.29m0 50h-4a1 1 0 0 1 0-2h3v-3a1 1 0 0 1 2 0v4a1 1 0 0 1-1 1m0-54a1 1 0 0 1-1-1v-3h-3a1 1 0 0 1 0-2h4a1 1 0 0 1 1 1v4a1 1 0 0 1-1 1" class="cls-3"/><path d="M103.001 104H24a6.007 6.007 0 0 1-6-6V37a1 1 0 0 1 1-1h84.001a3.003 3.003 0 0 1 3 3v62a3.003 3.003 0 0 1-3 3M20 38v60a4.004 4.004 0 0 0 4 4h79.001a1 1 0 0 0 1-1V39a1 1 0 0 0-1-1Z" class="cls-2"/><path d="M24 31a5 5 0 0 0-5 5v62a5 5 0 0 1 5-5 5 5 0 0 1 5 5V36a5 5 0 0 0-5-5" class="cls-3"/><path d="M29.001 99a1 1 0 0 1-1-1A4 4 0 0 0 20 98a1 1 0 0 1-2 0V36a6.007 6.007 0 0 1 6-6h.001a6.007 6.007 0 0 1 6 6v62a1 1 0 0 1-1 1M24 92a5.98 5.98 0 0 1 4.001 1.532V36A4 4 0 0 0 20 36v57.532A5.98 5.98 0 0 1 24 92" class="cls-2"/><path d="M64 67.97a1 1 0 0 1-.448-.106L43.74 57.918c-.012-.005-.095-.051-.108-.058a1 1 0 0 1 .036-1.768l19.883-9.986a1 1 0 0 1 .898 0l19.883 9.986a1 1 0 0 1 .036 1.768c-.013.007-.096.053-.108.058l-19.812 9.946a1 1 0 0 1-.448.106M46.345 56.986 64 65.85l17.658-8.864L64 48.119Z" class="cls-3"/><path d="M64 94a1 1 0 0 1-.45-.106l-19.882-9.985a1 1 0 0 1-.55-.894V57.167a1 1 0 0 1 2 0v25.231L64 91.881l5.815-2.92a1 1 0 0 1 .899 1.787l-6.265 3.146A1 1 0 0 1 64 94m19.883-29.943a1 1 0 0 1-1-1v-5.89a1 1 0 0 1 2 0v5.89a1 1 0 0 1-1 1" class="cls-3"/><path d="M64 94a1 1 0 0 1-1-1V66.97a1 1 0 0 1 2 0V93a1 1 0 0 1-1 1m6.267-2.146a2 2 0 0 1-.9-3.787l12.516-6.286V64.167a2 2 0 0 1 4 0v18.848a2 2 0 0 1-1.103 1.787l-13.618 6.84a2 2 0 0 1-.895.212m31.662 8.075a3.96 3.96 0 0 1 1.806-1.022l-3.252-3.252a20 20 0 0 1-2.828 2.828l3.252 3.252a3.96 3.96 0 0 1 1.022-1.806" class="cls-3"/><path d="M100.907 102.735a1 1 0 0 1-.707-.293l-3.253-3.252a1 1 0 0 1 .075-1.48 19 19 0 0 0 2.688-2.689 1 1 0 0 1 .724-.365 1 1 0 0 1 .756.292l3.252 3.252a1 1 0 0 1-.452 1.674 2.88 2.88 0 0 0-2.116 2.116 1 1 0 0 1-.967.745m-1.785-4.198 1.468 1.467a4.8 4.8 0 0 1 .632-.782v-.001a5 5 0 0 1 .781-.633l-1.466-1.465q-.674.74-1.415 1.414" class="cls-2"/><path d="m112.071 115.728-10.142-10.142a4 4 0 0 1 0-5.657 4 4 0 0 1 5.657 0l10.142 10.142a4 4 0 0 1 0 5.657 4 4 0 0 1-5.657 0" class="cls-3"/><path d="M114.9 117.9a4.97 4.97 0 0 1-3.536-1.465l-10.142-10.142a5 5 0 0 1 7.071-7.071l10.142 10.142a5 5 0 0 1-3.536 8.535m-10.142-18.141a2.999 2.999 0 0 0-2.122 5.12l10.142 10.142a3.073 3.073 0 0 0 4.243 0 3 3 0 0 0 0-4.243l-10.142-10.142a3 3 0 0 0-2.121-.877" class="cls-2"/><path d="M85 63a20 20 0 1 0 20 20 20 20 0 0 0-20-20m0 36a16 16 0 1 1 16-16 16 16 0 0 1-16 16" class="cls-3"/><path d="M85 104a21 21 0 1 1 21-21 21.024 21.024 0 0 1-21 21m0-40a19 19 0 1 0 19 19 19.02 19.02 0 0 0-19-19m0 36a17 17 0 1 1 17-17 17.02 17.02 0 0 1-17 17m0-32a15 15 0 1 0 15 15 15.017 15.017 0 0 0-15-15" class="cls-2"/><circle cx="85" cy="83" r="16" class="cls-3" style="opacity:.5"/><path d="M85 100a17 17 0 1 1 17-17 17.02 17.02 0 0 1-17 17m0-32a15 15 0 1 0 15 15 15.017 15.017 0 0 0-15-15" class="cls-2"/></svg>