<svg xmlns="http://www.w3.org/2000/svg" viewBox="0 0 128 128"><defs><style>.cls-1{opacity:.3}.cls-2{fill:currentColor}.cls-3{fill:#fff}.cls-4{opacity:.5}</style></defs><title/><g class="cls-1"><path d="M1.813 45.69a30 30 0 0 1 23.512-25.045 19.7 19.7 0 0 0 10.933-6.549 37.01 37.01 0 0 1 64.326 15.682 19.57 19.57 0 0 0 10.427 13.168 28.003 28.003 0 1 1-37.667 37.343 9.41 9.41 0 0 0-8.516-5.291q-.43.003-.86-.004a12.39 12.39 0 0 0-12.031 9.738A20.004 20.004 0 0 1 25.88 98.875a19.98 19.98 0 0 1-13.348-17.9 21.4 21.4 0 0 0-4.525-12.323A29.9 29.9 0 0 1 1.813 45.69" class="cls-2"/><path d="M57 6h6v21h-6z" class="cls-3"/><path d="M63 28h-6a1 1 0 0 1-1-1V6a1 1 0 0 1 1-1h6a1 1 0 0 1 1 1v21a1 1 0 0 1-1 1m-5-2h4V7h-4Z" class="cls-2"/><path d="M45 6h6v21h-6z" class="cls-3"/><path d="M51 28h-6a1 1 0 0 1-1-1V6a1 1 0 0 1 1-1h6a1 1 0 0 1 1 1v21a1 1 0 0 1-1 1m-5-2h4V7h-4Z" class="cls-2"/><path d="M51 6h6v21h-6z" class="cls-3"/><path d="M57 28h-6a1 1 0 0 1-1-1V6a1 1 0 0 1 1-1h6a1 1 0 0 1 1 1v21a1 1 0 0 1-1 1m-5-2h4V7h-4Z" class="cls-2"/><path d="M45 27.002h-6v-21h6z" class="cls-3"/><path d="M45 28.002h-6a1 1 0 0 1-1-1v-21a1 1 0 0 1 1-1h6a1 1 0 0 1 1 1v21a1 1 0 0 1-1 1m-5-2h4v-19h-4Z" class="cls-2"/><path d="M39 27.002h-6v-21h6z" class="cls-3"/><path d="M39 28.002h-6a1 1 0 0 1-1-1v-21a1 1 0 0 1 1-1h6a1 1 0 0 1 1 1v21a1 1 0 0 1-1 1m-5-2h4v-19h-4Z" class="cls-2"/><path d="M12 15h15v12H12z" class="cls-3"/><path d="M27 28H12a1 1 0 0 1-1-1V15a1 1 0 0 1 1-1h15a1 1 0 0 1 1 1v12a1 1 0 0 1-1 1m-14-2h13V16H13Z" class="cls-2"/><path d="M11 10h17v5H11z" class="cls-3"/><path d="M28 16H11a1 1 0 0 1-1-1v-5a1 1 0 0 1 1-1h17a1 1 0 0 1 1 1v5a1 1 0 0 1-1 1m-16-2h15v-3H12Zm10 6h-5a1 1 0 0 1 0-2h5a1 1 0 0 1 0 2" class="cls-2"/><path d="M85 6h6v21h-6z" class="cls-3"/><path d="M91 28h-6a1 1 0 0 1-1-1V6a1 1 0 0 1 1-1h6a1 1 0 0 1 1 1v21a1 1 0 0 1-1 1m-5-2h4V7h-4Z" class="cls-2"/><path d="M91 6h6v21h-6z" class="cls-3"/><path d="M97 28h-6a1 1 0 0 1-1-1V6a1 1 0 0 1 1-1h6a1 1 0 0 1 1 1v21a1 1 0 0 1-1 1m-5-2h4V7h-4Z" class="cls-2"/><path d="M85 27.002h-6v-21h6z" class="cls-3"/><path d="M85 28.002h-6a1 1 0 0 1-1-1v-21a1 1 0 0 1 1-1h6a1 1 0 0 1 1 1v21a1 1 0 0 1-1 1m-5-2h4v-19h-4Z" class="cls-2"/><path d="M79 27.002h-6v-21h6z" class="cls-3"/><path d="M79 28.002h-6a1 1 0 0 1-1-1v-21a1 1 0 0 1 1-1h6a1 1 0 0 1 1 1v21a1 1 0 0 1-1 1m-5-2h4v-19h-4Z" class="cls-2"/><path d="m97 7.073 5.694-1.89 6.616 19.93-5.694 1.89z" class="cls-3"/><path d="M103.616 28.004a1 1 0 0 1-.949-.685L96.051 7.39a1 1 0 0 1 .634-1.265l5.694-1.89a1 1 0 0 1 1.265.633l6.616 19.93a1 1 0 0 1-.634 1.265l-5.694 1.891a1 1 0 0 1-.316.05M98.264 7.707l5.986 18.032 3.797-1.26-5.986-18.032Z" class="cls-2"/><g class="cls-4"><path d="M57 10.999h-6a1 1 0 0 1 0-2h6a1 1 0 0 1 0 2m0 13h-6a1 1 0 0 1 0-2h6a1 1 0 0 1 0 2" class="cls-2"/><path d="M63 10.999h-6a1 1 0 0 1 0-2h6a1 1 0 0 1 0 2m0 13h-6a1 1 0 0 1 0-2h6a1 1 0 0 1 0 2m-12-13h-6a1 1 0 0 1 0-2h6a1 1 0 0 1 0 2m0 13h-6a1 1 0 0 1 0-2h6a1 1 0 0 1 0 2m-12-13h-6a1 1 0 0 1 0-2h6a1 1 0 0 1 0 2m0 13h-6a1 1 0 0 1 0-2h6a1 1 0 0 1 0 2" class="cls-2"/><path d="M45 10.999h-6a1 1 0 0 1 0-2h6a1 1 0 0 1 0 2m0 13h-6a1 1 0 0 1 0-2h6a1 1 0 0 1 0 2m52-13h-6a1 1 0 0 1 0-2h6a1 1 0 0 1 0 2m0 13h-6a1 1 0 0 1 0-2h6a1 1 0 0 1 0 2" class="cls-2"/><path d="M98.26 11.87a1 1 0 0 1-.315-1.95l5.695-1.89a1 1 0 1 1 .63 1.898l-5.694 1.89a1 1 0 0 1-.315.051m4.095 12.338a1 1 0 0 1-.315-1.95l5.694-1.89a1 1 0 1 1 .631 1.899l-5.694 1.89a1 1 0 0 1-.316.051M91 10.999h-6a1 1 0 0 1 0-2h6a1 1 0 0 1 0 2m0 13h-6a1 1 0 0 1 0-2h6a1 1 0 0 1 0 2m-12-13h-6a1 1 0 0 1 0-2h6a1 1 0 0 1 0 2m0 13h-6a1 1 0 0 1 0-2h6a1 1 0 0 1 0 2" class="cls-2"/><path d="M85 10.999h-6a1 1 0 0 1 0-2h6a1 1 0 0 1 0 2m0 13h-6a1 1 0 0 1 0-2h6a1 1 0 0 1 0 2" class="cls-2"/></g><path d="M8 28H7a1 1 0 0 1 0-2h1a1 1 0 0 1 0 2m111 0h-1a1 1 0 0 1 0-2h1a1 1 0 0 1 0 2" class="cls-2"/><path d="M16 39h-4v-6h6zm98 0h-4l-2-6h6zM8 27h110v6H8z" class="cls-3"/><path d="M16 40h-4a1 1 0 0 1-1-1v-6a1 1 0 0 1 1-1h6a1 1 0 0 1 .948 1.316l-2 6A1 1 0 0 1 16 40m-3-2h2.28l1.332-4H13Zm101 2h-4a1 1 0 0 1-.948-.684l-2-6A1 1 0 0 1 108 32h6a1 1 0 0 1 1 1v6a1 1 0 0 1-1 1m-3.28-2H113v-4h-3.612Z" class="cls-2"/><path d="M118 34H8a1 1 0 0 1-1-1v-6a1 1 0 0 1 1-1h110a1 1 0 0 1 1 1v6a1 1 0 0 1-1 1M9 32h108v-4H9Z" class="cls-2"/><path d="M4.007 83.998h6v21h-6z" class="cls-3"/><path d="M10.007 105.998h-6a1 1 0 0 1-1-1v-21a1 1 0 0 1 1-1h6a1 1 0 0 1 1 1v21a1 1 0 0 1-1 1m-5-2h4v-19h-4Z" class="cls-2"/><path d="M22.008 84h6v21h-6z" class="cls-3"/><path d="M28.008 106h-6a1 1 0 0 1-1-1V84a1 1 0 0 1 1-1h6a1 1 0 0 1 1 1v21a1 1 0 0 1-1 1m-5-2h4V85h-4Z" class="cls-2"/><path d="M28.008 84h6v21h-6z" class="cls-3"/><path d="M34.008 106h-6a1 1 0 0 1-1-1V84a1 1 0 0 1 1-1h6a1 1 0 0 1 1 1v21a1 1 0 0 1-1 1m-5-2h4V85h-4Z" class="cls-2"/><path d="M16.007 83.998h6v21h-6z" class="cls-3"/><path d="M22.007 105.998h-6a1 1 0 0 1-1-1v-21a1 1 0 0 1 1-1h6a1 1 0 0 1 1 1v21a1 1 0 0 1-1 1m-5-2h4v-19h-4Z" class="cls-2"/><path d="M10.007 83.998h6v21h-6z" class="cls-3"/><path d="M16.007 105.998h-6a1 1 0 0 1-1-1v-21a1 1 0 0 1 1-1h6a1 1 0 0 1 1 1v21a1 1 0 0 1-1 1m-5-2h4v-19h-4Z" class="cls-2"/><path d="M34.008 84h6v21h-6z" class="cls-3"/><path d="M40.008 106h-6a1 1 0 0 1-1-1V84a1 1 0 0 1 1-1h6a1 1 0 0 1 1 1v21a1 1 0 0 1-1 1m-5-2h4V85h-4Z" class="cls-2"/><path d="M122 106H3a1 1 0 0 1 0-2h119a1 1 0 0 1 0 2m4.001 0h-1a1 1 0 0 1 0-2h1a1 1 0 0 1 0 2" class="cls-2"/><g class="cls-4"><path d="M16 88.999h-6a1 1 0 0 1 0-2h6a1 1 0 0 1 0 2m0 13h-6a1 1 0 0 1 0-2h6a1 1 0 0 1 0 2" class="cls-2"/><path d="M22 88.999h-6a1 1 0 0 1 0-2h6a1 1 0 0 1 0 2m0 13h-6a1 1 0 0 1 0-2h6a1 1 0 0 1 0 2m-12-13H4a1 1 0 0 1 0-2h6a1 1 0 0 1 0 2m0 13H4a1 1 0 0 1 0-2h6a1 1 0 0 1 0 2m24-13h-6a1 1 0 0 1 0-2h6a1 1 0 0 1 0 2m0 13h-6a1 1 0 0 1 0-2h6a1 1 0 0 1 0 2" class="cls-2"/><path d="M40 88.999h-6a1 1 0 0 1 0-2h6a1 1 0 0 1 0 2m0 13h-6a1 1 0 0 1 0-2h6a1 1 0 0 1 0 2m-12-13h-6a1 1 0 0 1 0-2h6a1 1 0 0 1 0 2m0 13h-6a1 1 0 0 1 0-2h6a1 1 0 0 1 0 2" class="cls-2"/></g><path d="M106.37 68.979c.05-4.346 3.634-6.234 3.631-5.951a7.05 7.05 0 0 1 3.63 6.187A6.34 6.34 0 0 1 109.818 75a6.66 6.66 0 0 1-3.45-6.021" class="cls-3"/><path d="M109.82 76a1 1 0 0 1-.432-.099 7.62 7.62 0 0 1-4.018-6.934l1 .012-1-.012a7.86 7.86 0 0 1 3.693-6.677 1.43 1.43 0 0 1 1.438-.144 1 1 0 0 1 .1.07 8 8 0 0 1 4.029 7.01 7.29 7.29 0 0 1-4.453 6.708 1 1 0 0 1-.358.066m.069-11.878a5.88 5.88 0 0 0-2.519 4.868 5.65 5.65 0 0 0 2.497 4.878 5.28 5.28 0 0 0 2.763-4.665 5.97 5.97 0 0 0-2.741-5.08" class="cls-2"/><path d="M102.99 73.98c-2.412-3.616-.52-7.198-.364-6.963a7.05 7.05 0 0 1 6.49 3.058 6.34 6.34 0 0 1 .12 6.926 6.66 6.66 0 0 1-6.247-3.022" class="cls-3"/><path d="M108.605 78.038a7.62 7.62 0 0 1-6.448-3.504 7.86 7.86 0 0 1-.72-7.596 1.42 1.42 0 0 1 1.104-.93h.122a8 8 0 0 1 7.284 3.513 7.3 7.3 0 0 1 .112 8.05 1 1 0 0 1-.67.42 5.5 5.5 0 0 1-.784.047m-4.784-4.613a5.65 5.65 0 0 0 4.77 2.616h.046a5.28 5.28 0 0 0-.354-5.411 6.09 6.09 0 0 0-5.132-2.645 5.88 5.88 0 0 0 .67 5.44" class="cls-2"/><path d="M99.198 78.254c-2.752-3.363-1.218-7.112-1.039-6.894a7.05 7.05 0 0 1 6.756 2.413 6.34 6.34 0 0 1 .794 6.881 6.66 6.66 0 0 1-6.511-2.4" class="cls-3"/><path d="M104.43 81.783a7.58 7.58 0 0 1-6.006-2.896 7.86 7.86 0 0 1-1.458-7.488c.105-.277.351-.927 1.01-1.035q.06-.01.122-.011a7.99 7.99 0 0 1 7.59 2.786 7.3 7.3 0 0 1 .895 8.002 1 1 0 0 1-.626.482 6.6 6.6 0 0 1-1.527.16m-5.654-9.512a5.88 5.88 0 0 0 1.197 5.35 5.65 5.65 0 0 0 5.046 2.135 5.28 5.28 0 0 0-.878-5.35 5.97 5.97 0 0 0-5.365-2.135" class="cls-2"/><path d="M117.01 73.98c2.412-3.616.52-7.198.364-6.963a7.05 7.05 0 0 0-6.489 3.058 6.34 6.34 0 0 0-.12 6.926 6.66 6.66 0 0 0 6.246-3.022" class="cls-3"/><path d="M111.395 78.038a5.5 5.5 0 0 1-.783-.048 1 1 0 0 1-.67-.42 7.3 7.3 0 0 1 .11-8.05 8 8 0 0 1 7.285-3.511h.122a1.42 1.42 0 0 1 1.105.93 7.85 7.85 0 0 1-.721 7.595 7.61 7.61 0 0 1-6.448 3.504m-.029-1.997h.045a5.65 5.65 0 0 0 4.768-2.616 5.88 5.88 0 0 0 .67-5.44 5.96 5.96 0 0 0-5.132 2.645 5.3 5.3 0 0 0-.35 5.411" class="cls-2"/><path d="M120.83 78.22c2.71-3.398 1.129-7.127.953-6.906a7.05 7.05 0 0 0-6.725 2.497 6.34 6.34 0 0 0-.708 6.89 6.66 6.66 0 0 0 6.48-2.481" class="cls-3"/><path d="M115.545 81.814a6.5 6.5 0 0 1-1.43-.141 1 1 0 0 1-.632-.475 7.29 7.29 0 0 1 .792-8.01 8.02 8.02 0 0 1 7.657-2.865 1 1 0 0 1 .524.214c.85.68 1.93 4.827-.843 8.306a7.59 7.59 0 0 1-6.068 2.971m-.514-2.02a5.65 5.65 0 0 0 5.019-2.198h-.001a5.87 5.87 0 0 0 1.128-5.364 5.97 5.97 0 0 0-5.338 2.203 5.3 5.3 0 0 0-.808 5.36m5.8-1.574" class="cls-2"/><path d="M106.37 73.979c.05-4.346 3.634-6.234 3.631-5.951a7.05 7.05 0 0 1 3.63 6.187A6.34 6.34 0 0 1 109.818 80a6.66 6.66 0 0 1-3.45-6.021" class="cls-3"/><path d="M109.82 81a1 1 0 0 1-.432-.099 7.62 7.62 0 0 1-4.018-6.934l1 .012-1-.012a7.86 7.86 0 0 1 3.693-6.677 1.43 1.43 0 0 1 1.438-.144 1 1 0 0 1 .1.07 8 8 0 0 1 4.029 7.01 7.29 7.29 0 0 1-4.453 6.708 1 1 0 0 1-.358.066m.069-11.878a5.88 5.88 0 0 0-2.519 4.868 5.65 5.65 0 0 0 2.497 4.878 5.28 5.28 0 0 0 2.763-4.665 5.97 5.97 0 0 0-2.741-5.08" class="cls-2"/><path d="M97.914 84.903c-3.558-2.495-3.094-6.52-2.862-6.357a7.05 7.05 0 0 1 7.156.498 6.34 6.34 0 0 1 2.623 6.411 6.66 6.66 0 0 1-6.917-.552" class="cls-3"/><path d="M101.799 87.182a7.65 7.65 0 0 1-4.46-1.46c-3.645-2.556-3.777-6.84-3.152-7.732a1.03 1.03 0 0 1 .443-.352 8 8 0 0 1 8.152.588 7.29 7.29 0 0 1 3.022 7.461 1 1 0 0 1-.472.633 7.56 7.56 0 0 1-3.533.862m-3.31-3.097a5.65 5.65 0 0 0 5.435.691 5.28 5.28 0 0 0-2.29-4.914 6 6 0 0 0-5.742-.604 5.88 5.88 0 0 0 2.596 4.827" class="cls-2"/><path d="M121.982 84.903c3.558-2.495 3.094-6.52 2.862-6.357a7.05 7.05 0 0 0-7.156.498 6.34 6.34 0 0 0-2.623 6.411 6.66 6.66 0 0 0 6.917-.552" class="cls-3"/><path d="M118.098 87.182a7.56 7.56 0 0 1-3.534-.862 1 1 0 0 1-.471-.632 7.29 7.29 0 0 1 3.021-7.462 8 8 0 0 1 8.153-.588 1.03 1.03 0 0 1 .443.352c.625.893.492 5.175-3.153 7.732a7.65 7.65 0 0 1-4.46 1.46m-2.124-2.405a5.65 5.65 0 0 0 5.434-.692 5.88 5.88 0 0 0 2.597-4.828 5.96 5.96 0 0 0-5.742.605 5.28 5.28 0 0 0-2.29 4.915m6.008.126" class="cls-2"/><path d="M101.99 82.98c-2.412-3.616-.52-7.198-.364-6.963a7.05 7.05 0 0 1 6.49 3.058 6.34 6.34 0 0 1 .12 6.926 6.66 6.66 0 0 1-6.247-3.022" class="cls-3"/><path d="M107.605 87.038a7.62 7.62 0 0 1-6.448-3.504 7.86 7.86 0 0 1-.72-7.596 1.42 1.42 0 0 1 1.104-.93h.122a8.01 8.01 0 0 1 7.284 3.513 7.3 7.3 0 0 1 .112 8.05 1 1 0 0 1-.67.42 5.5 5.5 0 0 1-.784.047m-4.784-4.613a5.65 5.65 0 0 0 4.77 2.616h.046a5.28 5.28 0 0 0-.354-5.411 6.07 6.07 0 0 0-5.132-2.645 5.88 5.88 0 0 0 .67 5.44" class="cls-2"/><path d="M118.01 82.98c2.412-3.616.52-7.198.364-6.963a7.05 7.05 0 0 0-6.489 3.058 6.34 6.34 0 0 0-.12 6.926 6.66 6.66 0 0 0 6.246-3.022" class="cls-3"/><path d="M112.395 87.038a5.5 5.5 0 0 1-.783-.048 1 1 0 0 1-.67-.42 7.3 7.3 0 0 1 .11-8.05 8 8 0 0 1 7.285-3.511h.122a1.42 1.42 0 0 1 1.105.93 7.85 7.85 0 0 1-.721 7.595 7.61 7.61 0 0 1-6.448 3.504m-.029-1.997a5.71 5.71 0 0 0 4.813-2.616 5.88 5.88 0 0 0 .67-5.44 5.95 5.95 0 0 0-5.132 2.645 5.3 5.3 0 0 0-.35 5.411" class="cls-2"/><path d="M106.37 79.979c.05-4.346 3.634-6.234 3.631-5.951a7.05 7.05 0 0 1 3.63 6.187A6.34 6.34 0 0 1 109.818 86a6.66 6.66 0 0 1-3.45-6.021" class="cls-3"/><path d="M109.82 87a1 1 0 0 1-.432-.099 7.62 7.62 0 0 1-4.018-6.934l1 .012-1-.012a7.86 7.86 0 0 1 3.693-6.677 1.43 1.43 0 0 1 1.438-.144 1 1 0 0 1 .1.07 8 8 0 0 1 4.029 7.01 7.29 7.29 0 0 1-4.453 6.708 1 1 0 0 1-.358.066m.069-11.878a5.88 5.88 0 0 0-2.519 4.868 5.65 5.65 0 0 0 2.497 4.878 5.28 5.28 0 0 0 2.763-4.665 5.97 5.97 0 0 0-2.741-5.08" class="cls-2"/><path d="M118.849 105.002h-17.697a2 2 0 0 1-1.964-1.622L97 92.002h26l-2.187 11.378a2 2 0 0 1-1.965 1.622" style="fill:#fff;fill-rule:evenodd"/><path d="M95 84.001h30.001v8.001H95z" class="cls-3"/><path d="M118.849 106.002H101.15a3.005 3.005 0 0 1-2.945-2.433L96.018 92.19A1 1 0 0 1 97 91.002h26.001a1 1 0 0 1 .982 1.188l-2.188 11.378a3 3 0 0 1-2.946 2.434m-20.638-13 1.959 10.19a1 1 0 0 0 .981.81h17.698a1 1 0 0 0 .981-.81l1.96-10.19Z" class="cls-2"/><path d="M125.001 93.002H95a1 1 0 0 1-1-1V84a1 1 0 0 1 1-1h30.001a1 1 0 0 1 1 1v8.001a1 1 0 0 1-1 1m-29.001-2h28.001V85H96Zm29.005 35H5a1 1 0 1 1 0-2h120.004a1 1 0 0 1 0 2m-122.945 0h-.06a1 1 0 0 1 0-2 1.025 1.025 0 0 1 1.03 1 .974.974 0 0 1-.97 1" class="cls-2"/></g><circle cx="73" cy="50.001" r="13" class="cls-2"/><path d="M73 64.001a14 14 0 1 1 14-14 14.016 14.016 0 0 1-14 14m0-26a12 12 0 1 0 12 12 12.013 12.013 0 0 0-12-12" class="cls-2"/><path d="M79.753 44.903a.87.87 0 0 0-.349-.58v-.002a.894.894 0 0 0-1.222.16l-6.19 5.838-2.986-.93c-.578-.273-.88-.28-1.209.05a.88.88 0 0 0-.259.629.86.86 0 0 0 .248.606l3.596 4.027a1.1 1.1 0 0 0 .767.312l.08-.003a1.1 1.1 0 0 0 .799-.437l6.557-9.016a.87.87 0 0 0 .168-.654" class="cls-3"/><path d="M19.997 55.996H110a3 3 0 0 1 3 3v62H16.997v-62a3 3 0 0 1 3-3" class="cls-2"/><path d="M112.999 121.997H16.997a1 1 0 0 1-1-1v-62a4.004 4.004 0 0 1 4-4H110a4.004 4.004 0 0 1 4 4v62a1 1 0 0 1-1 1m-95.002-2H112v-61a2.003 2.003 0 0 0-2-2H19.997a2.003 2.003 0 0 0-2 2Z" class="cls-2"/><path d="M50.998 117.997H79.03v1a2 2 0 0 1-2 2H53a2 2 0 0 1-2-2z" class="cls-3"/><path d="M77.03 121.997H52.997a3.003 3.003 0 0 1-3-3v-1a1 1 0 0 1 1-1h28.031a1 1 0 0 1 1 1v1a3.003 3.003 0 0 1-3 3m-25.032-3a1 1 0 0 0 1 1H77.03a1 1 0 0 0 1-1Z" class="cls-2"/><path d="M20.997 59.996h88.002v54.001H20.997z" class="cls-3"/><path d="M108.999 114.997H20.997a1 1 0 0 1-1-1v-54a1 1 0 0 1 1-1H109a1 1 0 0 1 1 1v54a1 1 0 0 1-1 1m-87.002-2H108v-52H21.997Z" class="cls-2"/><path d="M121 117.997H78.997v1a2 2 0 0 1-2 2h-24a2 2 0 0 1-2-2v-1h-42v3a4 4 0 0 0 4 4h104.001a4 4 0 0 0 4-4Z" class="cls-3"/><path d="M116.999 125.997H12.997a5.006 5.006 0 0 1-5-5v-3a1 1 0 0 1 1-1h42.001a1 1 0 0 1 1 1v1a1 1 0 0 0 1 1h24a1 1 0 0 0 1-1v-1a1 1 0 0 1 1-1H121a1 1 0 0 1 1 1v3a5.006 5.006 0 0 1-5 5m-107.002-7v2a3.003 3.003 0 0 0 3 3H117a3.003 3.003 0 0 0 3-3v-2H79.998a3.003 3.003 0 0 1-3 3h-24a3.003 3.003 0 0 1-3-3Z" class="cls-2"/><rect width="22" height="22" x="95" y="88" class="cls-3" rx="3"/><path d="M114 111H98a4.004 4.004 0 0 1-4-4V91a4.004 4.004 0 0 1 4-4h16a4.004 4.004 0 0 1 4 4v16a4.004 4.004 0 0 1-4 4M98 89a2.003 2.003 0 0 0-2 2v16a2.003 2.003 0 0 0 2 2h16a2.003 2.003 0 0 0 2-2V91a2.003 2.003 0 0 0-2-2Z" class="cls-2"/><path d="M106.982 96v-4.751a.49.49 0 0 0-.906-.267l-4.999 8.226a.498.498 0 0 0 .415.764h3.526v4.78a.49.49 0 0 0 .906.266l4.999-8.253a.498.498 0 0 0-.415-.765Z" class="cls-2"/><rect width="32" height="24" x="15" y="21" class="cls-3" rx="3"/><path d="M44 46H18a4.004 4.004 0 0 1-4-4V24a4.004 4.004 0 0 1 4-4h26a4.004 4.004 0 0 1 4 4v18a4.004 4.004 0 0 1-4 4M18 22a2.003 2.003 0 0 0-2 2v18a2.003 2.003 0 0 0 2 2h26a2.003 2.003 0 0 0 2-2V24a2.003 2.003 0 0 0-2-2Z" class="cls-2"/><circle cx="31" cy="32" r="8" class="cls-2"/><path d="M29.091 35.182v-6.364L34.182 32z" class="cls-3"/><path d="M29.09 36.182a1 1 0 0 1-1-1v-6.364a1 1 0 0 1 1.531-.847l5.09 3.181a1 1 0 0 1 0 1.696l-5.09 3.181a1 1 0 0 1-.53.153m1-5.559v2.754L32.296 32Z" class="cls-3"/><rect width="50" height="20" x="6" y="68" class="cls-2" rx="3"/><path d="M53 89H9a4.004 4.004 0 0 1-4-4V71a4.004 4.004 0 0 1 4-4h44a4.004 4.004 0 0 1 4 4v14a4.004 4.004 0 0 1-4 4M9 69a2.003 2.003 0 0 0-2 2v14a2.003 2.003 0 0 0 2 2h44a2.003 2.003 0 0 0 2-2V71a2.003 2.003 0 0 0-2-2Z" class="cls-2"/><path d="M26 77h12a3 3 0 0 0 3-3 3 3 0 0 0-3-3H26a3 3 0 0 0-3 3 3 3 0 0 0 3 3" style="fill:#fff;opacity:.5"/><path d="M25 83h24a2 2 0 0 0 2-2 2 2 0 0 0-2-2H25a2 2 0 0 0-2 2 2 2 0 0 0 2 2" class="cls-3"/><circle cx="16" cy="76" r="5" class="cls-3"/><path d="m75.627 89.485-14.549-9.673a.654.654 0 0 0-.99.726l4.848 16.785a.654.654 0 0 0 1.21.117l1.437-2.797a.654.654 0 0 1 1.11-.088l4.015 5.478a.654.654 0 0 0 .914.14l2.11-1.547a.654.654 0 0 0 .141-.914l-4.015-5.477a.654.654 0 0 1 .417-1.032l3.1-.529a.654.654 0 0 0 .252-1.19" class="cls-3"/><path d="m75.627 89.485-14.549-9.673a.654.654 0 0 0-.99.726l4.848 16.785a.654.654 0 0 0 1.21.117l1.437-2.797a.654.654 0 0 1 1.11-.088l4.015 5.478a.654.654 0 0 0 .914.14l2.11-1.547a.654.654 0 0 0 .141-.914l-4.015-5.477a.654.654 0 0 1 .417-1.032l3.1-.529a.654.654 0 0 0 .252-1.19" class="cls-2"/><path d="M73.238 101.299a1.65 1.65 0 0 1-1.337-.676l-3.684-5.024-1.18 2.298a1.655 1.655 0 0 1-3.062-.296l-4.848-16.786a1.654 1.654 0 0 1 2.505-1.836L76.18 88.65a1.654 1.654 0 0 1-.638 3.008l-2.548.436 3.685 5.026a1.653 1.653 0 0 1-.357 2.312l-2.11 1.547a1.65 1.65 0 0 1-.975.319m-5.07-8.01a1.64 1.64 0 0 1 1.331.675l3.812 5.198 1.551-1.138-3.811-5.199a1.653 1.653 0 0 1 1.055-2.607l2.242-.383-13.037-8.668 4.343 15.042 1.04-2.022a1.65 1.65 0 0 1 1.34-.894q.067-.005.134-.005m6.904-2.973.001.001Z" class="cls-2"/><path d="M112.122 22.928a7.3 7.3 0 0 0 .246-1.845 7.418 7.418 0 0 0-11.252-6.265 9.752 9.752 0 0 0-17.427 4.813A6.862 6.862 0 0 0 85.954 33h25.952a5.038 5.038 0 0 0 .216-10.072" class="cls-3"/><g class="cls-1"><path d="M112.122 19.928c.051.002.098.017.149.02-.022-.137-.041-.275-.07-.41-.028.13-.045.263-.079.39" class="cls-3"/></g><path d="M111.905 34H85.953a7.86 7.86 0 0 1-3.177-15.088 10.758 10.758 0 0 1 18.588-5.358 8.415 8.415 0 0 1 12.004 7.529 8 8 0 0 1-.064.999A6.034 6.034 0 0 1 111.905 34M93.368 12a8.66 8.66 0 0 0-8.683 7.734 1 1 0 0 1-.672.843A5.862 5.862 0 0 0 85.953 32h25.952a4.038 4.038 0 0 0 .175-8.073 1 1 0 0 1-.925-1.253 6.3 6.3 0 0 0 .213-1.591 6.38 6.38 0 0 0-6.414-6.333 6.45 6.45 0 0 0-3.322.925 1 1 0 0 1-1.309-.248A8.7 8.7 0 0 0 93.368 12" class="cls-2"/><path d="M84.112 24.604a1 1 0 0 1-.95-.688 10.6 10.6 0 0 1-.468-4.39.98.98 0 0 1 1.099-.89 1 1 0 0 1 .89 1.1 9 9 0 0 0-.045.889 8.5 8.5 0 0 0 .424 2.666 1 1 0 0 1-.95 1.313m24.436.561a1 1 0 0 1-.655-1.756 6.13 6.13 0 0 1 4.012-1.492 1 1 0 0 1 0 2 4.12 4.12 0 0 0-2.702 1.004 1 1 0 0 1-.655.244m-9.623-7.352a1 1 0 0 1-.809-1.586 8.4 8.4 0 0 1 2.48-2.274 1 1 0 0 1 1.03 1.715 6.4 6.4 0 0 0-1.89 1.732 1 1 0 0 1-.811.413" class="cls-2"/></svg>