<svg xmlns="http://www.w3.org/2000/svg" viewBox="0 0 128 128"><defs><style>.c2{opacity:.3}.c1,.c4{fill:currentColor}.c2,.c3{fill:#fff}.c4,.cls-4{opacity:.5}</style></defs><title/><g style="opacity:.3"><path d="M.813 49.69a30 30 0 0 1 23.512-25.045 19.7 19.7 0 0 0 10.933-6.549 37.01 37.01 0 0 1 64.326 15.682 19.57 19.57 0 0 0 10.427 13.168 28.003 28.003 0 1 1-37.667 37.343 9.41 9.41 0 0 0-8.516-5.291q-.43.003-.86-.004a12.39 12.39 0 0 0-12.031 9.738 20.004 20.004 0 0 1-26.057 14.143 19.98 19.98 0 0 1-13.348-17.9 21.4 21.4 0 0 0-4.525-12.323A29.9 29.9 0 0 1 .813 49.69" class="c1"/><path d="M3.007 87.998h6v21h-6z" class="c3"/><path d="M9.007 109.998h-6a1 1 0 0 1-1-1v-21a1 1 0 0 1 1-1h6a1 1 0 0 1 1 1v21a1 1 0 0 1-1 1m-5-2h4v-19h-4Z" class="c1"/><path d="M21.008 88h6v21h-6z" class="c3"/><path d="M27.008 110h-6a1 1 0 0 1-1-1V88a1 1 0 0 1 1-1h6a1 1 0 0 1 1 1v21a1 1 0 0 1-1 1m-5-2h4V89h-4Z" class="c1"/><path d="M27.008 88h6v21h-6z" class="c3"/><path d="M33.008 110h-6a1 1 0 0 1-1-1V88a1 1 0 0 1 1-1h6a1 1 0 0 1 1 1v21a1 1 0 0 1-1 1m-5-2h4V89h-4Z" class="c1"/><path d="M15.007 87.998h6v21h-6z" class="c3"/><path d="M21.007 109.998h-6a1 1 0 0 1-1-1v-21a1 1 0 0 1 1-1h6a1 1 0 0 1 1 1v21a1 1 0 0 1-1 1m-5-2h4v-19h-4Z" class="c1"/><path d="M9.007 87.998h6v21h-6z" class="c3"/><path d="M15.007 109.998h-6a1 1 0 0 1-1-1v-21a1 1 0 0 1 1-1h6a1 1 0 0 1 1 1v21a1 1 0 0 1-1 1m-5-2h4v-19h-4Z" class="c1"/><path d="M33.008 88h6v21h-6z" class="c3"/><path d="M39.008 110h-6a1 1 0 0 1-1-1V88a1 1 0 0 1 1-1h6a1 1 0 0 1 1 1v21a1 1 0 0 1-1 1m-5-2h4V89h-4Z" class="c1"/><path d="M95 110H2a1 1 0 0 1 0-2h93a1 1 0 0 1 0 2" class="c1"/><g class="cls-4"><path d="M15 93H9a1 1 0 0 1 0-2h6a1 1 0 0 1 0 2m0 13H9a1 1 0 0 1 0-2h6a1 1 0 0 1 0 2" class="c1"/><path d="M21 93h-6a1 1 0 0 1 0-2h6a1 1 0 0 1 0 2m0 13h-6a1 1 0 0 1 0-2h6a1 1 0 0 1 0 2M9 93H3a1 1 0 1 1 0-2h6a1 1 0 0 1 0 2m0 13H3a1 1 0 1 1 0-2h6a1 1 0 0 1 0 2m24-13h-6a1 1 0 0 1 0-2h6a1 1 0 0 1 0 2m0 13h-6a1 1 0 0 1 0-2h6a1 1 0 0 1 0 2" class="c1"/><path d="M39 93h-6a1 1 0 0 1 0-2h6a1 1 0 0 1 0 2m0 13h-6a1 1 0 0 1 0-2h6a1 1 0 0 1 0 2M27 93h-6a1 1 0 0 1 0-2h6a1 1 0 0 1 0 2m0 13h-6a1 1 0 0 1 0-2h6a1 1 0 0 1 0 2" class="c1"/></g><path d="M108.005 126H17a1 1 0 0 1 0-2h91.005a1 1 0 0 1 0 2m5 0H111a1 1 0 0 1 0-2h2.005a1 1 0 0 1 0 2m-99.006 0a1.043 1.043 0 0 1-1.05-1 .96.96 0 0 1 .951-1h.1a1 1 0 0 1 0 2" class="c1"/><path d="M57 11h6v21h-6z" class="c3"/><path d="M63 33h-6a1 1 0 0 1-1-1V11a1 1 0 0 1 1-1h6a1 1 0 0 1 1 1v21a1 1 0 0 1-1 1m-5-2h4V12h-4Z" class="c1"/><path d="M45 11h6v21h-6z" class="c3"/><path d="M51 33h-6a1 1 0 0 1-1-1V11a1 1 0 0 1 1-1h6a1 1 0 0 1 1 1v21a1 1 0 0 1-1 1m-5-2h4V12h-4Z" class="c1"/><path d="M51 11h6v21h-6z" class="c3"/><path d="M57 33h-6a1 1 0 0 1-1-1V11a1 1 0 0 1 1-1h6a1 1 0 0 1 1 1v21a1 1 0 0 1-1 1m-5-2h4V12h-4Z" class="c1"/><path d="M45 32.002h-6v-21h6z" class="c3"/><path d="M45 33.002h-6a1 1 0 0 1-1-1v-21a1 1 0 0 1 1-1h6a1 1 0 0 1 1 1v21a1 1 0 0 1-1 1m-5-2h4v-19h-4Z" class="c1"/><path d="M39 32.002h-6v-21h6z" class="c3"/><path d="M39 33.002h-6a1 1 0 0 1-1-1v-21a1 1 0 0 1 1-1h6a1 1 0 0 1 1 1v21a1 1 0 0 1-1 1m-5-2h4v-19h-4Z" class="c1"/><path d="M12 20h15v12H12z" class="c3"/><path d="M27 33H12a1 1 0 0 1-1-1V20a1 1 0 0 1 1-1h15a1 1 0 0 1 1 1v12a1 1 0 0 1-1 1m-14-2h13V21H13Z" class="c1"/><path d="M11 15h17v5H11z" class="c3"/><path d="M28 21H11a1 1 0 0 1-1-1v-5a1 1 0 0 1 1-1h17a1 1 0 0 1 1 1v5a1 1 0 0 1-1 1m-16-2h15v-3H12Zm10 6h-5a1 1 0 0 1 0-2h5a1 1 0 0 1 0 2" class="c1"/><g class="cls-4"><path d="M57 16h-6a1 1 0 0 1 0-2h6a1 1 0 0 1 0 2m0 13h-6a1 1 0 0 1 0-2h6a1 1 0 0 1 0 2" class="c1"/><path d="M63 16h-6a1 1 0 0 1 0-2h6a1 1 0 0 1 0 2m0 13h-6a1 1 0 0 1 0-2h6a1 1 0 0 1 0 2M51 16h-6a1 1 0 0 1 0-2h6a1 1 0 0 1 0 2m0 13h-6a1 1 0 0 1 0-2h6a1 1 0 0 1 0 2M39 16h-6a1 1 0 0 1 0-2h6a1 1 0 0 1 0 2m0 13h-6a1 1 0 0 1 0-2h6a1 1 0 0 1 0 2" class="c1"/><path d="M45 16h-6a1 1 0 0 1 0-2h6a1 1 0 0 1 0 2m0 13h-6a1 1 0 0 1 0-2h6a1 1 0 0 1 0 2" class="c1"/></g><path d="M85 11h6v21h-6z" class="c3"/><path d="M91 33h-6a1 1 0 0 1-1-1V11a1 1 0 0 1 1-1h6a1 1 0 0 1 1 1v21a1 1 0 0 1-1 1m-5-2h4V12h-4Z" class="c1"/><path d="M91 11h6v21h-6z" class="c3"/><path d="M97 33h-6a1 1 0 0 1-1-1V11a1 1 0 0 1 1-1h6a1 1 0 0 1 1 1v21a1 1 0 0 1-1 1m-5-2h4V12h-4Z" class="c1"/><path d="M85 32.002h-6v-21h6z" class="c3"/><path d="M85 33.002h-6a1 1 0 0 1-1-1v-21a1 1 0 0 1 1-1h6a1 1 0 0 1 1 1v21a1 1 0 0 1-1 1m-5-2h4v-19h-4Z" class="c1"/><path d="M79 32.002h-6v-21h6z" class="c3"/><path d="M79 33.002h-6a1 1 0 0 1-1-1v-21a1 1 0 0 1 1-1h6a1 1 0 0 1 1 1v21a1 1 0 0 1-1 1m-5-2h4v-19h-4Z" class="c1"/><path d="m97 12.073 5.694-1.89 6.616 19.93-5.694 1.89z" class="c3"/><path d="M103.617 33.004a1 1 0 0 1-.95-.685l-6.616-19.93a1 1 0 0 1 .634-1.265l5.694-1.89a1 1 0 0 1 1.265.634l6.616 19.93a1 1 0 0 1-.634 1.265l-5.694 1.89a1 1 0 0 1-.315.05m-5.353-20.296 5.986 18.032 3.797-1.26-5.986-18.033Z" class="c1"/><g class="cls-4"><path d="M97 16h-6a1 1 0 0 1 0-2h6a1 1 0 0 1 0 2m0 13h-6a1 1 0 0 1 0-2h6a1 1 0 0 1 0 2" class="c1"/><path d="m98.26 15.869 5.695-1.89" class="c3"/><path d="M98.26 16.87a1 1 0 0 1-.315-1.95l5.695-1.89a1 1 0 1 1 .63 1.898l-5.695 1.89a1 1 0 0 1-.315.052" class="c1"/><path d="m102.356 28.207 5.695-1.891" class="c3"/><path d="M102.356 29.208a1 1 0 0 1-.314-1.95l5.694-1.89a1 1 0 1 1 .63 1.898l-5.695 1.89a1 1 0 0 1-.315.052M91 16h-6a1 1 0 0 1 0-2h6a1 1 0 0 1 0 2m0 13h-6a1 1 0 0 1 0-2h6a1 1 0 0 1 0 2M79 16h-6a1 1 0 0 1 0-2h6a1 1 0 0 1 0 2m0 13h-6a1 1 0 0 1 0-2h6a1 1 0 0 1 0 2" class="c1"/><path d="M85 16h-6a1 1 0 0 1 0-2h6a1 1 0 0 1 0 2m0 13h-6a1 1 0 0 1 0-2h6a1 1 0 0 1 0 2" class="c1"/></g><path d="M105.37 54.979c.05-4.346 3.634-6.234 3.631-5.951a7.05 7.05 0 0 1 3.63 6.187A6.34 6.34 0 0 1 108.818 61a6.66 6.66 0 0 1-3.45-6.021" class="c3"/><path d="M108.82 62a1 1 0 0 1-.433-.098 7.62 7.62 0 0 1-4.017-6.935l1 .012-1-.012a7.86 7.86 0 0 1 3.69-6.675 1.43 1.43 0 0 1 1.44-.146 1 1 0 0 1 .1.07 8 8 0 0 1 4.03 7.011 7.3 7.3 0 0 1-4.453 6.707 1 1 0 0 1-.358.066m.069-11.878a5.88 5.88 0 0 0-2.519 4.868 5.66 5.66 0 0 0 2.497 4.878 5.28 5.28 0 0 0 2.763-4.664 5.97 5.97 0 0 0-2.741-5.082" class="c1"/><path d="M101.99 59.98c-2.412-3.616-.52-7.198-.364-6.963a7.05 7.05 0 0 1 6.49 3.058 6.34 6.34 0 0 1 .12 6.926 6.66 6.66 0 0 1-6.247-3.022" class="c3"/><path d="M107.605 64.038a7.62 7.62 0 0 1-6.448-3.504c-2.47-3.704-1.041-7.743-.135-8.348a1 1 0 0 1 .54-.168 8 8 0 0 1 7.385 3.502 7.3 7.3 0 0 1 .111 8.05 1 1 0 0 1-.67.42 5.5 5.5 0 0 1-.783.048m-4.784-4.614a5.67 5.67 0 0 0 4.78 2.616h.035a5.28 5.28 0 0 0-.353-5.41 6 6 0 0 0-5.132-2.645 5.88 5.88 0 0 0 .67 5.44Z" class="c1"/><path d="M98.198 64.254c-2.752-3.363-1.218-7.112-1.039-6.894a7.05 7.05 0 0 1 6.756 2.413 6.34 6.34 0 0 1 .794 6.881 6.66 6.66 0 0 1-6.511-2.4" class="c3"/><path d="M103.43 67.784a7.58 7.58 0 0 1-6.006-2.896 7.86 7.86 0 0 1-1.458-7.489c.105-.277.351-.927 1.01-1.034a1 1 0 0 1 .122-.012 8 8 0 0 1 7.591 2.787 7.3 7.3 0 0 1 .894 8 1 1 0 0 1-.626.483 6.6 6.6 0 0 1-1.528.16m-4.458-4.163a5.65 5.65 0 0 0 5.047 2.135 5.28 5.28 0 0 0-.878-5.35 5.99 5.99 0 0 0-5.365-2.133 5.88 5.88 0 0 0 1.196 5.348" class="c1"/><path d="M116.01 59.98c2.412-3.616.52-7.198.364-6.963a7.05 7.05 0 0 0-6.489 3.058 6.34 6.34 0 0 0-.12 6.926 6.66 6.66 0 0 0 6.246-3.022" class="c3"/><path d="M110.395 64.038a5.5 5.5 0 0 1-.783-.048 1 1 0 0 1-.67-.42 7.3 7.3 0 0 1 .11-8.05 8 8 0 0 1 7.386-3.502 1 1 0 0 1 .54.168c.907.605 2.336 4.644-.135 8.348a7.62 7.62 0 0 1-6.448 3.504m-.03-1.997a5.59 5.59 0 0 0 4.814-2.617 5.88 5.88 0 0 0 .67-5.44 5.95 5.95 0 0 0-5.133 2.646 5.28 5.28 0 0 0-.351 5.41" class="c1"/><path d="M119.83 64.22c2.71-3.398 1.129-7.127.953-6.906a7.05 7.05 0 0 0-6.725 2.497 6.34 6.34 0 0 0-.708 6.89 6.66 6.66 0 0 0 6.48-2.481" class="c3"/><path d="M114.544 67.815a6.5 6.5 0 0 1-1.43-.142 1 1 0 0 1-.632-.474 7.3 7.3 0 0 1 .794-8.012 8 8 0 0 1 7.556-2.881 1 1 0 0 1 .122.01c.66.1.914.747 1.023 1.023a7.86 7.86 0 0 1-1.365 7.505 7.59 7.59 0 0 1-6.068 2.971m-.514-2.02a5.65 5.65 0 0 0 5.019-2.198 5.88 5.88 0 0 0 1.128-5.364 5.97 5.97 0 0 0-5.337 2.201 5.28 5.28 0 0 0-.81 5.361m5.8-1.575" class="c1"/><path d="M105.37 59.979c.05-4.346 3.634-6.234 3.631-5.951a7.05 7.05 0 0 1 3.63 6.187A6.34 6.34 0 0 1 108.818 66a6.66 6.66 0 0 1-3.45-6.021" class="c3"/><path d="M108.82 67a1 1 0 0 1-.433-.098 7.62 7.62 0 0 1-4.017-6.935l1 .012-1-.012a7.86 7.86 0 0 1 3.69-6.675 1.43 1.43 0 0 1 1.44-.146 1 1 0 0 1 .1.07 8 8 0 0 1 4.03 7.011 7.3 7.3 0 0 1-4.453 6.707 1 1 0 0 1-.358.066m.069-11.878a5.88 5.88 0 0 0-2.519 4.868 5.66 5.66 0 0 0 2.497 4.878 5.28 5.28 0 0 0 2.763-4.664 5.97 5.97 0 0 0-2.741-5.082" class="c1"/><path d="M96.914 70.903c-3.558-2.495-3.094-6.52-2.862-6.357a7.05 7.05 0 0 1 7.156.498 6.34 6.34 0 0 1 2.623 6.411 6.66 6.66 0 0 1-6.917-.552" class="c3"/><path d="M100.8 73.181a7.65 7.65 0 0 1-4.46-1.459c-3.646-2.556-3.778-6.84-3.153-7.732a1 1 0 0 1 .443-.352 8.01 8.01 0 0 1 8.152.587 7.3 7.3 0 0 1 3.022 7.462 1 1 0 0 1-.472.634 7.6 7.6 0 0 1-3.533.86m-3.312-3.097a5.67 5.67 0 0 0 5.435.692 5.28 5.28 0 0 0-2.29-4.913 6 6 0 0 0-5.741-.605 5.88 5.88 0 0 0 2.596 4.826" class="c1"/><path d="M120.982 70.903c3.558-2.495 3.094-6.52 2.862-6.357a7.05 7.05 0 0 0-7.156.498 6.34 6.34 0 0 0-2.623 6.411 6.66 6.66 0 0 0 6.917-.552" class="c3"/><path d="M117.097 73.181a7.6 7.6 0 0 1-3.533-.86 1 1 0 0 1-.472-.633 7.3 7.3 0 0 1 3.022-7.463 8.01 8.01 0 0 1 8.152-.587 1 1 0 0 1 .443.352c.625.893.493 5.176-3.152 7.732a7.65 7.65 0 0 1-4.46 1.46m-2.123-2.403a5.66 5.66 0 0 0 5.435-.694 5.88 5.88 0 0 0 2.595-4.827 5.96 5.96 0 0 0-5.742.606 5.3 5.3 0 0 0-2.288 4.915m6.008.125" class="c1"/><path d="M100.99 68.98c-2.412-3.616-.52-7.198-.364-6.963a7.05 7.05 0 0 1 6.49 3.058 6.34 6.34 0 0 1 .12 6.927 6.66 6.66 0 0 1-6.247-3.023" class="c3"/><path d="M106.605 73.038a7.62 7.62 0 0 1-6.448-3.504c-2.47-3.704-1.041-7.743-.135-8.348a1 1 0 0 1 .54-.168 8.01 8.01 0 0 1 7.385 3.502 7.3 7.3 0 0 1 .111 8.05 1 1 0 0 1-.67.42 5.5 5.5 0 0 1-.783.048m-4.784-4.614a5.72 5.72 0 0 0 4.815 2.616 5.28 5.28 0 0 0-.353-5.41 6.01 6.01 0 0 0-5.132-2.645 5.88 5.88 0 0 0 .67 5.44Z" class="c1"/><path d="M117.01 68.98c2.412-3.616.52-7.198.364-6.963a7.05 7.05 0 0 0-6.489 3.058 6.34 6.34 0 0 0-.12 6.927 6.66 6.66 0 0 0 6.246-3.023" class="c3"/><path d="M111.395 73.038a5.5 5.5 0 0 1-.783-.048 1 1 0 0 1-.67-.42 7.3 7.3 0 0 1 .11-8.05 8.01 8.01 0 0 1 7.386-3.502 1 1 0 0 1 .54.168c.907.605 2.336 4.644-.135 8.348a7.62 7.62 0 0 1-6.448 3.504m-.03-1.997a5.56 5.56 0 0 0 4.814-2.617 5.88 5.88 0 0 0 .67-5.44 5.95 5.95 0 0 0-5.133 2.646 5.28 5.28 0 0 0-.351 5.41" class="c1"/><path d="M105.37 65.979c.05-4.346 3.634-6.234 3.631-5.951a7.05 7.05 0 0 1 3.63 6.187A6.34 6.34 0 0 1 108.818 72a6.66 6.66 0 0 1-3.45-6.021" class="c3"/><path d="M108.82 73a1 1 0 0 1-.433-.098 7.62 7.62 0 0 1-4.017-6.935l1 .012-1-.012a7.86 7.86 0 0 1 3.69-6.675 1.43 1.43 0 0 1 1.44-.145 1 1 0 0 1 .1.068 8 8 0 0 1 4.03 7.012 7.3 7.3 0 0 1-4.453 6.707 1 1 0 0 1-.358.066m.069-11.878a5.88 5.88 0 0 0-2.519 4.868 5.66 5.66 0 0 0 2.497 4.878 5.28 5.28 0 0 0 2.763-4.664 5.97 5.97 0 0 0-2.741-5.082" class="c1"/><path d="M117.848 91.002h-17.696a2 2 0 0 1-1.964-1.622L96 78.002h26l-2.188 11.378a2 2 0 0 1-1.964 1.622" style="fill:#fff;fill-rule:evenodd"/><path d="M94 70.001h30.001v8.001H94z" class="c3"/><path d="M117.849 92.002h-17.697a3 3 0 0 1-2.946-2.434l-2.188-11.377A1 1 0 0 1 96 77h26a1 1 0 0 1 .982 1.19l-2.188 11.378a3.004 3.004 0 0 1-2.945 2.433m-20.639-13 1.96 10.189a1 1 0 0 0 .982.81h17.697a1 1 0 0 0 .982-.81L120.79 79Z" class="c1"/><path d="M124 79.002H94a1 1 0 0 1-1-1V70a1 1 0 0 1 1-1h30a1 1 0 0 1 1 1v8.001a1 1 0 0 1-1 1m-29-2h28V71H95ZM9 33H8a1 1 0 0 1 0-2h1a1 1 0 0 1 0 2m109 0h-1a1 1 0 0 1 0-2h1a1 1 0 0 1 0 2" class="c1"/><path d="M17 44h-4v-6h6zm96 0h-4l-2-6h6zM9 32h108v6H9z" class="c3"/><path d="M17 45h-4a1 1 0 0 1-1-1v-6a1 1 0 0 1 1-1h6a1 1 0 0 1 .949 1.316l-2 6A1 1 0 0 1 17 45m-3-2h2.28l1.333-4H14Zm99 2h-4a1 1 0 0 1-.949-.684l-2-6A1 1 0 0 1 107 37h6a1 1 0 0 1 1 1v6a1 1 0 0 1-1 1m-3.28-2H112v-4h-3.613Z" class="c1"/><path d="M117 39H9a1 1 0 0 1-1-1v-6a1 1 0 0 1 1-1h108a1 1 0 0 1 1 1v6a1 1 0 0 1-1 1M10 37h106v-4H10Zm81 55h-1a1 1 0 0 1 0-2h1a1 1 0 0 1 0 2m34 0h-1a1 1 0 0 1 0-2h1a1 1 0 0 1 0 2" class="c1"/><path d="M91 91h33v6H91z" class="c3"/><path d="M124 98H91a1 1 0 0 1-1-1v-6a1 1 0 0 1 1-1h33a1 1 0 0 1 1 1v6a1 1 0 0 1-1 1m-32-2h31v-4H92Z" class="c1"/></g><path d="M33 125.002h-3l-1-4h5zm65 0h-3l-1-4h5z" style="fill:#75859e;fill-rule:evenodd"/><path d="M33 126.002h-3a1 1 0 0 1-.97-.757l-1-4a1 1 0 0 1 .97-1.243h5a1 1 0 0 1 .97 1.242l-1 4a1 1 0 0 1-.97.758m-2.22-2h1.44l.499-2H30.28Zm67.22 2h-3a1 1 0 0 1-.97-.757l-1-4a1 1 0 0 1 .97-1.243h5a1 1 0 0 1 .97 1.242l-1 4a1 1 0 0 1-.97.758m-2.22-2h1.44l.499-2H95.28Z" class="c1"/><rect width="82" height="98" x="23" y="23" class="c1" rx="6"/><path d="M99 122H29a7.01 7.01 0 0 1-7-7V29a7.01 7.01 0 0 1 7-7h70a7.01 7.01 0 0 1 7 7v86a7.01 7.01 0 0 1-7 7M29 24a5.006 5.006 0 0 0-5 5v86a5.006 5.006 0 0 0 5 5h70a5.006 5.006 0 0 0 5-5V29a5.006 5.006 0 0 0-5-5Z" class="c1"/><path d="M27 115V87h74v28a2 2 0 0 1-2 2H29a2 2 0 0 1-2-2" class="c3"/><path d="M50 91h28v8H50z" class="c3"/><path d="M78 100H50a1 1 0 0 1-1-1v-8a1 1 0 0 1 1-1h28a1 1 0 0 1 1 1v8a1 1 0 0 1-1 1m-27-2h26v-6H51Z" class="c1"/><path d="M67 96h-6a1 1 0 0 1 0-2h6a1 1 0 0 1 0 2" class="c4"/><path d="M74 110H54a4.004 4.004 0 0 1-4-4 2 2 0 1 1 4 0v.003L74 106a2 2 0 1 1 4 0 4.004 4.004 0 0 1-4 4" class="c3"/><path d="M74 111H54a5.006 5.006 0 0 1-5-5 3 3 0 0 1 5.83-.997L73.17 105a3 3 0 0 1 5.83 1 5.006 5.006 0 0 1-5 5m-22-6a1 1 0 0 0-1 1 3.003 3.003 0 0 0 3 3h20a3.003 3.003 0 0 0 3-3 1 1 0 0 0-2 0 1 1 0 0 1-1 1l-20 .003a1 1 0 0 1-1-1A1 1 0 0 0 52 105" class="c1"/><path d="M99 118H29a3.003 3.003 0 0 1-3-3V87a1 1 0 0 1 1-1h74a1 1 0 0 1 1 1v28a3.003 3.003 0 0 1-3 3M28 88v27a1 1 0 0 0 1 1h70a1 1 0 0 0 1-1V88Z" class="c1"/><path d="M101 29v28H27V29a2 2 0 0 1 2-2h70a2 2 0 0 1 2 2" class="c3"/><path d="M101 58H27a1 1 0 0 1-1-1V29a3.003 3.003 0 0 1 3-3h70a3.003 3.003 0 0 1 3 3v28a1 1 0 0 1-1 1m-73-2h72V29a1 1 0 0 0-1-1H29a1 1 0 0 0-1 1Z" class="c1"/><path d="M50 31h28v8H50z" class="c3"/><path d="M78 40H50a1 1 0 0 1-1-1v-8a1 1 0 0 1 1-1h28a1 1 0 0 1 1 1v8a1 1 0 0 1-1 1m-27-2h26v-6H51Z" class="c1"/><path d="M68 36h-8a1 1 0 0 1 0-2h8a1 1 0 0 1 0 2" class="c4"/><path d="M74 53H54a5.006 5.006 0 0 1-5-5 3 3 0 0 1 5.83-.997L73.17 47A3 3 0 0 1 79 48a5.006 5.006 0 0 1-5 5" class="c2"/><path d="M74 50H54a4.004 4.004 0 0 1-4-4 2 2 0 0 1 4 0v.003L74 46a2 2 0 0 1 4 0 4.004 4.004 0 0 1-4 4" class="c3"/><path d="M76 44a2 2 0 0 0-1.5.69A1.98 1.98 0 0 1 75 46a4.004 4.004 0 0 1-4 4h3a4.004 4.004 0 0 0 4-4 2 2 0 0 0-2-2" class="c2"/><path d="M53 46a1.98 1.98 0 0 1 .5-1.31A1.992 1.992 0 0 0 50 46a4.004 4.004 0 0 0 4 4h3a4.004 4.004 0 0 1-4-4" class="c3"/><path d="M74 51H54a5.006 5.006 0 0 1-5-5 3 3 0 0 1 5.83-.997L73.17 45A3 3 0 0 1 79 46a5.006 5.006 0 0 1-5 5m-22-6a1 1 0 0 0-1 1 3.003 3.003 0 0 0 3 3h20a3.003 3.003 0 0 0 3-3 1 1 0 0 0-2 0 1 1 0 0 1-1 1l-20 .003a1 1 0 0 1-1-1A1 1 0 0 0 52 45" class="c1"/><path d="M26.875 58 26 65h4l.875-7z" class="c3"/><path d="M30.875 58 30 65h68.019l-.875-7z" class="c3"/><path d="M30.875 58 30 65h68.019l-.875-7z" class="c4"/><path d="M97.125 58 98 65h4l-.875-7zm-8.103 7 .236-.114-12.531-25.992-29.03 13.996L53.535 65z" class="c3"/><path d="m81.313 65 3.41-1.644L75.1 43.395l-19.961 9.624L60.915 65z" class="c1"/><path d="m71.804 65 4.039-4.577-11.095-1.379 2.567-3.647-12.176-2.378L60.915 65z" class="c3"/><path d="m55.139 53.019 12.176 2.378-2.567 3.647-7.416-1.476z" class="c2"/><path d="M73.46 54.026a2.77 2.77 0 1 1 1.292-3.698 2.77 2.77 0 0 1-1.292 3.698" class="c3"/><path d="M89.022 66a1 1 0 0 1-.958-1.288L76.261 40.23 49.03 53.356l5.405 11.21a1 1 0 1 1-1.802.868l-5.838-12.11a1 1 0 0 1 .467-1.335l29.03-13.995a1 1 0 0 1 1.335.466l12.531 25.993a1 1 0 0 1-.469 1.336l-.236.113a1 1 0 0 1-.432.098" class="c1"/><path d="m67.467 65-2.586-16.262-8.355-6.062-23.427 3.725L36.056 65z" class="c3"/><path d="m56.526 42.676 1.147 7.208 7.208-1.146z" class="c4"/><path d="M67.466 66a1 1 0 0 1-.987-.843l-2.52-15.853-7.685-5.576-22.03 3.503 2.8 17.612a1 1 0 0 1-1.976.314l-2.957-18.599a1 1 0 0 1 .83-1.145l23.428-3.725a1 1 0 0 1 .745.178l8.355 6.062a1 1 0 0 1 .4.653l2.586 16.262a1 1 0 0 1-.83 1.145 1 1 0 0 1-.16.012" class="c1"/><g class="cls-4"><path d="M44.155 53.034A1 1 0 0 1 44 51.046l2.703-.43a1 1 0 1 1 .314 1.975l-2.703.43a1 1 0 0 1-.159.013m6.308-1.004a1 1 0 0 1-.155-1.988l3.604-.572a1 1 0 0 1 .313 1.975l-3.604.573a1 1 0 0 1-.158.012m-5.734 4.608a1 1 0 0 1-.156-1.988l4.505-.716a1 1 0 0 1 .315 1.975l-4.506.716a1 1 0 0 1-.158.013m8.109-1.29a1 1 0 0 1-.156-1.988l1.802-.286a1 1 0 0 1 .315 1.975l-1.802.287a1 1 0 0 1-.16.012m5.408-.86a1 1 0 0 1-.156-1.988l1.802-.286a1 1 0 1 1 .314 1.975l-1.802.287a1 1 0 0 1-.158.012m-12.943 5.754a1 1 0 0 1-.156-1.988l6.307-1.003a1 1 0 1 1 .315 1.976L45.46 60.23a1 1 0 0 1-.158.012m9.911-1.576a1 1 0 0 1-.155-1.988l5.406-.86a1 1 0 1 1 .314 1.976l-5.406.86a1 1 0 0 1-.159.012m-9.338 5.18a1 1 0 0 1-.156-1.988l2.704-.43a1 1 0 0 1 .313 1.976l-2.703.43a1 1 0 0 1-.158.012m6.308-1.003a1 1 0 0 1-.157-1.988l9.011-1.433a1 1 0 1 1 .315 1.976l-9.011 1.433a1 1 0 0 1-.158.012" class="c1"/></g><g class="cls-4"><path d="M39.65 53.75a1 1 0 0 1-.156-1.987l.901-.144a1 1 0 0 1 .314 1.975l-.9.143a1 1 0 0 1-.16.013m.574 3.604a1 1 0 0 1-.155-1.988l.9-.143a1 1 0 0 1 .314 1.976l-.9.143a1 1 0 0 1-.159.012m.573 3.605a1 1 0 0 1-.155-1.988l.901-.143a1 1 0 1 1 .313 1.975l-.9.143a1 1 0 0 1-.159.013m.574 3.604a1 1 0 0 1-.157-1.988l.902-.143a1 1 0 1 1 .314 1.975l-.901.144a1 1 0 0 1-.159.012" class="c1"/></g><path d="M60.353 65H93.96l-3.205-10.568a1.295 1.295 0 0 0-1.61-.873l-28.313 8.589a1.295 1.295 0 0 0-.853 1.62Z" class="c3"/><path d="M60.353 65H93.96l-3.205-10.568a1.295 1.295 0 0 0-1.61-.873l-28.313 8.589a1.295 1.295 0 0 0-.853 1.62Z" style="fill:#75859e;opacity:.2"/><path d="m83.851 65 6.275-11.34-30.053 9.117L64.382 65z" class="c3"/><path d="M60.353 66a1 1 0 0 1-.957-.71l-.374-1.231a2.3 2.3 0 0 1 1.52-2.869l28.313-8.588a2.26 2.26 0 0 1 1.749.18 2.3 2.3 0 0 1 1.107 1.36l3.207 10.567a1 1 0 0 1-1.915.582l-3.206-10.568a.3.3 0 0 0-.148-.184.27.27 0 0 0-.213-.023l-28.314 8.588a.296.296 0 0 0-.185.374l.374 1.231A1 1 0 0 1 60.353 66" class="c1"/><path d="m77.127 65 1.095-2.171-20.527-10.353L51.378 65z" class="c3"/><path d="m77.108 65 1.114-2.171-20.527-10.353-2.67 5.204L69.538 65z" class="c4"/><path d="M51.377 66a1 1 0 0 1-.892-1.45l6.317-12.525a1 1 0 0 1 1.344-.442l20.526 10.353a1 1 0 0 1 .443 1.343L78.02 65.45a1 1 0 1 1-1.786-.9l.645-1.279-18.741-9.452L52.27 65.45a1 1 0 0 1-.894.55m-25.375 0a1 1 0 0 1-.125-.008 1 1 0 0 1-.868-1.116l1-8a1 1 0 0 1 1.984.248l-1 8a1 1 0 0 1-.99.876m3.999 0a1 1 0 0 1-.125-.008 1 1 0 0 1-.868-1.116l1-8a1 1 0 0 1 1.984.248l-1 8a1 1 0 0 1-.99.876m67.997 0a1 1 0 0 1-.991-.876l-1-8a1 1 0 0 1 1.984-.248l1 8a1 1 0 0 1-.868 1.116 1 1 0 0 1-.125.008m4 0a1 1 0 0 1-.991-.876l-1-8a1 1 0 0 1 1.984-.248l1 8a1 1 0 0 1-.868 1.116 1 1 0 0 1-.125.008" class="c1"/><path d="M26 65h76v30H26z" class="c3"/><path d="M102 96H26a1 1 0 0 1-1-1V65a1 1 0 0 1 1-1h76a1 1 0 0 1 1 1v30a1 1 0 0 1-1 1m-75-2h74V66H27Z" class="c1"/><path d="M50 69h28v8H50z" class="c3"/><path d="M78 78H50a1 1 0 0 1-1-1v-8a1 1 0 0 1 1-1h28a1 1 0 0 1 1 1v8a1 1 0 0 1-1 1m-27-2h26v-6H51Z" class="c1"/><path d="M70 74H58a1 1 0 0 1 0-2h12a1 1 0 0 1 0 2" class="c4"/><path d="M74 88H54a4.004 4.004 0 0 1-4-4 2 2 0 1 1 4 0v.003L74 84a2 2 0 1 1 4 0 4.004 4.004 0 0 1-4 4" class="c3"/><path d="M74 89H54a5.006 5.006 0 0 1-5-5 3 3 0 0 1 5.83-.997L73.17 83A3 3 0 0 1 79 84a5.006 5.006 0 0 1-5 5m-22-6a1 1 0 0 0-1 1 3.003 3.003 0 0 0 3 3h20a3.003 3.003 0 0 0 3-3 1 1 0 0 0-2 0 1 1 0 0 1-1 1l-20 .003a1 1 0 0 1-1-1A1 1 0 0 0 52 83M31.019 54a1.01 1.01 0 0 1-1.01-1A.99.99 0 0 1 31 52h.019a1 1 0 0 1 0 2m66 38a1.01 1.01 0 0 1-1.01-1A.99.99 0 0 1 97 90h.019a1 1 0 0 1 0 2m0 22a1.01 1.01 0 0 1-1.01-1 .99.99 0 0 1 .991-1h.019a1 1 0 0 1 0 2m0-60a1.01 1.01 0 0 1-1.01-1A.99.99 0 0 1 97 52h.019a1 1 0 0 1 0 2m-66 38a1.01 1.01 0 0 1-1.01-1A.99.99 0 0 1 31 90h.019a1 1 0 0 1 0 2m0 22a1.01 1.01 0 0 1-1.01-1 .99.99 0 0 1 .991-1h.019a1 1 0 0 1 0 2" class="c1"/></svg>