<svg xmlns="http://www.w3.org/2000/svg" viewBox="0 0 128 128"><defs><style>.c2,.c4{fill:currentColor}.c3{fill:#fff}.c4,.cls-5{opacity:.5}</style></defs><title/><g style="opacity:.3"><path d="M125.689 49.663a30 30 0 0 0-23.512-25.046 19.7 19.7 0 0 1-10.932-6.548A37.011 37.011 0 0 0 26.99 33.44a21 21 0 0 1-10.882 13.673c-14.163 7.359-21.259 26.46-8.35 44.384a16.6 16.6 0 0 0 6.352 4.909 20.58 20.58 0 0 1 10.02 10.876 28.488 28.488 0 0 0 42.624 12.637 20.06 20.06 0 0 1 16.623-2.943 29 29 0 0 0 36.038-33.793 20.08 20.08 0 0 1 2.51-14.131 29.83 29.83 0 0 0 3.764-19.39" class="c2"/><path d="M35.072 17.164a8.28 8.28 0 0 0-15.98-3.809 4.419 4.419 0 0 0-7.163 3.445q.002.19.02.377A6.593 6.593 0 0 0 14.139 30h18.777a6.593 6.593 0 0 0 2.156-12.836" class="c3"/><path d="M32.917 31H14.139a7.592 7.592 0 0 1-3.201-14.492 5.423 5.423 0 0 1 7.713-4.596 9.284 9.284 0 0 1 17.474 4.338q0 .13-.003.259A7.592 7.592 0 0 1 32.916 31m-16.57-17.6a3.413 3.413 0 0 0-3.417 3.4q0 .147.015.29a1 1 0 0 1-.667 1.031A5.593 5.593 0 0 0 14.138 29h18.779a5.593 5.593 0 0 0 1.831-10.89 1 1 0 0 1-.67-1.056 7.281 7.281 0 0 0-14.05-3.346 1 1 0 0 1-1.556.431 3.4 3.4 0 0 0-2.124-.74" class="c2"/><path d="M32.916 16.8a6.6 6.6 0 0 1 2.174.363" class="c3"/><path d="M35.09 18.164a1 1 0 0 1-.327-.056 5.6 5.6 0 0 0-1.846-.308 1 1 0 0 1 0-2 7.6 7.6 0 0 1 2.5.418 1 1 0 0 1-.327 1.946" class="c2"/><path d="M11.948 17.17a6.6 6.6 0 0 1 2.19-.37" class="c3"/><path d="M11.948 18.17a1 1 0 0 1-.33-1.945 7.6 7.6 0 0 1 2.52-.425 1 1 0 0 1 0 2 5.6 5.6 0 0 0-1.86.314 1 1 0 0 1-.33.056" class="c2"/><path d="M19.063 13.328a4.4 4.4 0 0 1 1.201 1.433" class="c3"/><path d="M20.265 15.761a1 1 0 0 1-.886-.534 3.4 3.4 0 0 0-.93-1.108 1 1 0 1 1 1.227-1.58 5.5 5.5 0 0 1 1.473 1.757 1 1 0 0 1-.884 1.465" class="c2"/><path d="M92.68 19.172a6.775 6.775 0 0 1 13.074-3.117 3.615 3.615 0 0 1 5.86 2.819q-.001.155-.015.308a5.394 5.394 0 0 1-1.792 10.492H94.443a5.395 5.395 0 0 1-1.763-10.502" class="c3"/><path d="M109.807 30.674H94.443a6.394 6.394 0 0 1-2.807-12.153v-.097a7.778 7.778 0 0 1 14.557-3.784 4.62 4.62 0 0 1 6.408 3.876 6.393 6.393 0 0 1-2.794 12.158m-10.393-18a5.73 5.73 0 0 0-5.74 6.387 1 1 0 0 1-.67 1.056 4.395 4.395 0 0 0 1.44 8.557h15.363a4.394 4.394 0 0 0 1.462-8.548 1 1 0 0 1-.666-1.03q.01-.11.011-.222a2.615 2.615 0 0 0-4.239-2.035 1 1 0 0 1-1.556-.43 5.8 5.8 0 0 0-5.405-3.735" class="c2"/><path d="M94.443 18.874a5.4 5.4 0 0 0-1.778.297" class="c3"/><path d="M92.665 20.171a1 1 0 0 1-.327-1.945 6.4 6.4 0 0 1 2.105-.352 1 1 0 0 1 0 2 4.4 4.4 0 0 0-1.452.242 1 1 0 0 1-.326.055" class="c2"/><path d="M111.6 19.176a5.4 5.4 0 0 0-1.793-.302" class="c3"/><path d="M111.6 20.176a1 1 0 0 1-.33-.056 4.4 4.4 0 0 0-1.463-.246 1 1 0 0 1 0-2 6.4 6.4 0 0 1 2.122.357 1 1 0 0 1-.33 1.945" class="c2"/><path d="M105.778 16.033a3.6 3.6 0 0 0-.983 1.173" class="c3"/><path d="M104.794 18.206a1 1 0 0 1-.884-1.466 4.7 4.7 0 0 1 1.255-1.497 1 1 0 0 1 1.227 1.58 2.6 2.6 0 0 0-.712.848 1 1 0 0 1-.886.535" class="c2"/><path d="M61.51 18a1.1 1.1 0 0 1-.39-.08 1 1 0 0 1-.32-.21 1.2 1.2 0 0 1-.22-.33 1.07 1.07 0 0 1 0-.76 1 1 0 0 1 .22-.33 1.01 1.01 0 0 1 1.41 0 .8.8 0 0 1 .22.33 1 1 0 0 1-.22 1.09 1 1 0 0 1-.7.29m7.999 4h-6a1 1 0 1 1 0-2h6a1 1 0 0 1 0 2m2.999-4.001H65.51a1 1 0 0 1 0-2h7a1 1 0 1 1 0 2m2.999 4h-2a1 1 0 0 1 0-2h2a1 1 0 0 1 0 2M73.51 26h-8.001a1 1 0 0 1 0-2h8a1 1 0 0 1 0 2M56 119a1 1 0 0 1-.19-.02.6.6 0 0 1-.19-.06.6.6 0 0 1-.17-.09 1 1 0 0 1-.15-.12 1.03 1.03 0 0 1-.3-.71 1.3 1.3 0 0 1 .02-.2 1.3 1.3 0 0 1 .06-.18 2 2 0 0 1 .09-.18 2 2 0 0 1 .13-.15 1 1 0 0 1 .15-.12.6.6 0 0 1 .17-.09.6.6 0 0 1 .19-.06.97.97 0 0 1 .58.06 1 1 0 0 1 .32.21.8.8 0 0 1 .12.15 2 2 0 0 1 .1.18 1 1 0 0 1 .05.18.7.7 0 0 1 .02.2 1 1 0 0 1-.07.38 1.2 1.2 0 0 1-.22.33 1 1 0 0 1-.32.21 1.1 1.1 0 0 1-.39.08m1.001-4h-2a1 1 0 1 1 0-2h2a1 1 0 1 1 0 2m3-4.001h-9.999a1 1 0 0 1 0-2h9.999a1 1 0 1 1 0 2m-9.001 4h-3.999a1 1 0 1 1 0-2h4a1 1 0 0 1 0 2M52 119h-8a1 1 0 0 1 0-2h8a1 1 0 1 1 0 2m36.042-9.07a7.319 7.319 0 0 1 10.886-8.11 9.615 9.615 0 0 1 17.236 4.813 6.872 6.872 0 0 1-2.24 13.37H88.256a5.038 5.038 0 0 1-.214-10.073" class="c3"/><path d="M88.042 107.18c-.044-.169-.07-.345-.102-.518q-.053.268-.083.544c.063-.005.121-.023.185-.026" class="c3"/><path d="M113.924 121.002H88.256a6.04 6.04 0 0 1-1.393-11.916 8 8 0 0 1-.064-1 8.32 8.32 0 0 1 11.879-7.534 10.615 10.615 0 0 1 18.4 5.365 7.872 7.872 0 0 1-3.154 15.085m-18.792-19.25a6.308 6.308 0 0 0-6.122 7.927 1 1 0 0 1-.926 1.25 4.038 4.038 0 0 0 .172 8.073h25.668a5.872 5.872 0 0 0 1.913-11.423 1 1 0 0 1-.668-.844 8.616 8.616 0 0 0-15.445-4.31 1 1 0 0 1-1.315.25 6.3 6.3 0 0 0-3.277-.923" class="c2"/><path d="M115.745 111.606a1 1 0 0 1-.951-1.31 8.632 8.632 0 0 0-8.204-11.294 1 1 0 0 1 0-2 10.633 10.633 0 0 1 10.106 13.913 1 1 0 0 1-.95.691m-24.169.562a1 1 0 0 1-.659-.248 4.04 4.04 0 0 0-2.662-1 1 1 0 0 1 0-2 6.03 6.03 0 0 1 3.98 1.496 1 1 0 0 1-.66 1.752m9.519-7.352a1 1 0 0 1-.814-.417 6.35 6.35 0 0 0-5.15-2.647 1 1 0 1 1 0-2 8.36 8.36 0 0 1 6.775 3.48 1 1 0 0 1-.811 1.584" class="c2"/><path d="M32.426 112.762a5.988 5.988 0 0 0-8.907-6.636 7.867 7.867 0 0 0-14.102 3.938 5.622 5.622 0 0 0 1.833 10.938h21a4.122 4.122 0 0 0 .176-8.24" class="c3"/><path d="M32.426 110.512c.035-.139.057-.283.083-.424.03.146.05.295.068.445-.051-.004-.1-.02-.151-.022" class="c3"/><path d="M32.25 122.002h-21a6.622 6.622 0 0 1-2.744-12.65 8.867 8.867 0 0 1 15.263-4.485 6.99 6.99 0 0 1 9.855 6.385 7 7 0 0 1-.035.682 5.123 5.123 0 0 1-1.339 10.068m-15-18a6.85 6.85 0 0 0-6.838 6.164 1 1 0 0 1-.669.843 4.622 4.622 0 0 0 1.507 8.993h21a3.122 3.122 0 0 0 .134-6.241 1 1 0 0 1-.926-1.25 4.988 4.988 0 0 0-7.42-5.53 1 1 0 0 1-1.315-.25 6.82 6.82 0 0 0-5.473-2.729" class="c2"/><path d="M9.76 114.315a1 1 0 0 1-.951-.691 8.88 8.88 0 0 1 8.441-11.622 1 1 0 0 1 0 2 6.88 6.88 0 0 0-6.54 9.003 1 1 0 0 1-.95 1.31m19.774.459a1 1 0 0 1-.66-1.752 5.12 5.12 0 0 1 3.376-1.27 1 1 0 0 1 0 2 3.12 3.12 0 0 0-2.058.774 1 1 0 0 1-.658.248m-7.788-6.015a1 1 0 0 1-.811-1.583 7.02 7.02 0 0 1 5.69-2.924 1 1 0 0 1 0 2 5.01 5.01 0 0 0-4.065 2.09 1 1 0 0 1-.814.417" class="c2"/></g><path d="M105.386 61.615A20.641 20.641 0 0 0 74.684 38.76a27.125 27.125 0 0 0-48.612 13.563A19.363 19.363 0 0 0 32.39 90h72.39a14.199 14.199 0 0 0 .605-28.385" class="c3"/><path d="M104.781 91a1 1 0 0 1 0-2 13.199 13.199 0 0 0 .563-26.386 1 1 0 0 1-.926-1.25 19.642 19.642 0 0 0-29.216-21.75 1 1 0 0 1-1.315-.25 26.125 26.125 0 0 0-46.82 13.061 1 1 0 0 1-.67.844 18.356 18.356 0 0 0-1.016 34.341 1 1 0 1 1-.762 1.849 20.355 20.355 0 0 1 .53-37.865A28.124 28.124 0 0 1 74.935 37.46a21.652 21.652 0 0 1 32.137 18.957 21.3 21.3 0 0 1-.45 4.296A15.199 15.199 0 0 1 104.783 91" class="c2"/><path d="M27.253 64.519a1 1 0 0 1-.951-.691 28.1 28.1 0 0 1-1.374-8.704 29 29 0 0 1 .184-3.238 1 1 0 1 1 1.988.228 27 27 0 0 0-.172 3.01 26.1 26.1 0 0 0 1.276 8.085 1 1 0 0 1-.951 1.31m68.163 1.583a1 1 0 0 1-.66-1.752 15.2 15.2 0 0 1 10.025-3.766 1 1 0 0 1 0 2 13.2 13.2 0 0 0-8.707 3.27 1 1 0 0 1-.658.248M68.574 45.383a1 1 0 0 1-.812-1.583 21.9 21.9 0 0 1 6.732-6.119A1 1 0 0 1 75.5 39.41a19.9 19.9 0 0 0-6.113 5.556 1 1 0 0 1-.813.417" class="c2"/><path d="M34 70h62a3 3 0 0 1 3 3v17H31V73a3 3 0 0 1 3-3" class="c4"/><path d="M99 91a1 1 0 0 1-1-1V73a2 2 0 0 0-2-2H34a2 2 0 0 0-2 2v17a1 1 0 0 1-2 0V73a4.005 4.005 0 0 1 4-4h62a4.005 4.005 0 0 1 4 4v17a1 1 0 0 1-1 1" class="c2"/><path d="m65.238 74.794 4.01-23.292 21.513 3.704-4.01 23.291z" class="c3"/><path d="m69.15 70.47 2.644-15.362 15.362 2.644-2.644 15.362z" class="c2"/><path d="M84.512 73.114 69.15 70.47l5.172-5.329 2.204 2.288 4.301-4.044zm-5.74-11.694a3 3 0 1 1-2.448-3.465 3 3 0 0 1 2.448 3.465" class="c3"/><path d="M86.751 79.498a1 1 0 0 1-.17-.015L65.07 75.779a1 1 0 0 1-.816-1.155l4.01-23.291a1 1 0 0 1 1.155-.816l21.513 3.704a1 1 0 0 1 .816 1.155l-4.01 23.291a1 1 0 0 1-.986.83m-20.357-5.52 19.542 3.364 3.67-21.32-19.542-3.364Z" class="c2"/><path d="m75.467 81-2.586-16.262-8.355-6.062-23.427 3.725L44.056 81z" class="c3"/><path d="m64.526 58.676 1.147 7.208 7.208-1.146z" class="c2"/><path d="M75.466 82a1 1 0 0 1-.987-.843l-2.52-15.853-7.685-5.576-22.03 3.503 2.8 17.612a1 1 0 0 1-1.976.314l-2.957-18.599a1 1 0 0 1 .83-1.145l23.428-3.725a1 1 0 0 1 .745.178l8.355 6.062a1 1 0 0 1 .4.653l2.586 16.262a1 1 0 0 1-.83 1.145 1 1 0 0 1-.16.012" class="c2"/><g class="cls-5"><path d="M52.155 69.034A1 1 0 0 1 52 67.046l2.703-.43a1 1 0 1 1 .314 1.975l-2.703.43a1 1 0 0 1-.159.013m6.308-1.004a1 1 0 0 1-.155-1.988l3.604-.572a1 1 0 0 1 .313 1.975l-3.604.573a1 1 0 0 1-.158.012m-5.734 4.608a1 1 0 0 1-.156-1.988l4.505-.716a1 1 0 0 1 .315 1.975l-4.506.716a1 1 0 0 1-.158.013m8.109-1.29a1 1 0 0 1-.156-1.988l1.802-.286a1 1 0 0 1 .315 1.975l-1.802.287a1 1 0 0 1-.16.012m5.408-.86a1 1 0 0 1-.156-1.988l1.802-.286a1 1 0 0 1 .314 1.975l-1.802.287a1 1 0 0 1-.158.012m-12.943 5.754a1 1 0 0 1-.156-1.988l6.307-1.003a1 1 0 0 1 .315 1.976L53.46 76.23a1 1 0 0 1-.158.012m9.911-1.576a1 1 0 0 1-.155-1.988l5.406-.86a1 1 0 0 1 .314 1.976l-5.406.86a1 1 0 0 1-.159.012m-9.338 5.18a1 1 0 0 1-.156-1.988l2.704-.43a1 1 0 0 1 .313 1.976l-2.703.43a1 1 0 0 1-.158.012m6.308-1.003a1 1 0 0 1-.157-1.988l9.011-1.433a1 1 0 0 1 .315 1.976l-9.011 1.433a1 1 0 0 1-.158.012" class="c2"/></g><g class="cls-5"><path d="M47.65 69.75a1 1 0 0 1-.156-1.987l.901-.144a1 1 0 1 1 .314 1.975l-.9.143a1 1 0 0 1-.16.013m.574 3.604a1 1 0 0 1-.155-1.988l.9-.143a1 1 0 0 1 .314 1.976l-.9.143a1 1 0 0 1-.159.012m.573 3.605a1 1 0 0 1-.155-1.988l.901-.143a1 1 0 1 1 .313 1.975l-.9.143a1 1 0 0 1-.159.013m.574 3.604a1 1 0 0 1-.157-1.988l.902-.143a1 1 0 0 1 .314 1.975l-.901.144a1 1 0 0 1-.159.012" class="c2"/></g><path d="M55.353 81H88.96l-3.205-10.568a1.295 1.295 0 0 0-1.61-.873l-28.313 8.588a1.295 1.295 0 0 0-.853 1.621Z" class="c3"/><path d="M55.353 81H88.96l-3.205-10.568a1.295 1.295 0 0 0-1.61-.873l-28.313 8.588a1.295 1.295 0 0 0-.853 1.621Z" style="fill:#75859e;opacity:.2"/><path d="m78.851 81 6.275-11.34-30.053 9.117L59.382 81z" class="c3"/><path d="M55.353 82a1 1 0 0 1-.957-.71l-.374-1.231a2.3 2.3 0 0 1 1.52-2.869l28.313-8.588a2.26 2.26 0 0 1 1.749.18 2.3 2.3 0 0 1 1.107 1.36l3.207 10.567a1 1 0 1 1-1.915.582l-3.206-10.568a.3.3 0 0 0-.148-.184.28.28 0 0 0-.213-.023l-28.314 8.588a.296.296 0 0 0-.185.374l.374 1.231A1 1 0 0 1 55.353 82" class="c2"/><path d="m66.127 81 1.095-2.171-20.527-10.353L40.378 81z" class="c3"/><path d="m66.108 81 1.114-2.171-20.527-10.353-2.67 5.204L58.538 81z" class="c4"/><path d="M40.377 82a1 1 0 0 1-.892-1.45l6.317-12.525a1 1 0 0 1 1.344-.442l20.526 10.353a1 1 0 0 1 .443 1.343L67.02 81.45a1 1 0 1 1-1.786-.9l.645-1.279-18.741-9.452L41.27 81.45a1 1 0 0 1-.894.55" class="c2"/><path d="m35 74-6 7h4.5l4.585-5.35a1 1 0 0 0-.76-1.65Zm56.915 1.65L96.5 81h4.5l-6-7h-2.326a1 1 0 0 0-.759 1.65" class="c3"/><path d="M29 82a1 1 0 0 1-.76-1.65l6-7a1 1 0 0 1 1.52 1.3l-6 7A1 1 0 0 1 29 82m4.5 0a1 1 0 0 1-.76-1.65l4.384-5.114a1 1 0 1 1 1.518 1.302L34.26 81.65a1 1 0 0 1-.76.349m63 .001a1 1 0 0 1-.76-.35l-4.285-5a1 1 0 1 1 1.519-1.3l4.285 5A1 1 0 0 1 96.5 82m4.5 0a1 1 0 0 1-.76-.35l-6-7a1 1 0 1 1 1.52-1.3l6 7A1 1 0 0 1 101 82" class="c2"/><path d="M29 101V81h72v20a2 2 0 0 1-2 2H31a2 2 0 0 1-2-2" class="c3"/><path d="M99 104H31a3.003 3.003 0 0 1-3-3V81a1 1 0 0 1 1-1h72a1 1 0 0 1 1 1v20a3.003 3.003 0 0 1-3 3M30 82v19a1 1 0 0 0 1 1h68a1 1 0 0 0 1-1V82Z" class="c2"/><rect width="14" height="4" x="58" y="85" class="c2" rx="1"/><path d="M68 88h-6a1 1 0 0 1 0-2h6a1 1 0 0 1 0 2m5 8H57a4.004 4.004 0 0 1-4-4 2 2 0 1 1 4 0v.003L73 92a2 2 0 1 1 4 0 4.004 4.004 0 0 1-4 4" class="c3"/><path d="M73 97H57a5.006 5.006 0 0 1-5-5 3 3 0 0 1 5.83-.997L72.17 91A3 3 0 0 1 78 92a5.006 5.006 0 0 1-5 5m-18-6a1 1 0 0 0-1 1 3.003 3.003 0 0 0 3 3h16a3.003 3.003 0 0 0 3-3 1 1 0 0 0-2 0 1 1 0 0 1-1 1l-16 .003a1 1 0 0 1-1-1A1 1 0 0 0 55 91" class="c2"/></svg>