<svg xmlns="http://www.w3.org/2000/svg" viewBox="0 0 128 128"><defs><style>.cls-2,.cls-4{fill:#75859e}.cls-3{fill:#fff}.cls-4,.cls-5{opacity:.5}</style></defs><title/><g style="opacity:.3"><path d="M126.689 47.663a30 30 0 0 0-23.512-25.045 19.7 19.7 0 0 1-10.933-6.549A37.011 37.011 0 0 0 27.99 31.441a21 21 0 0 1-10.883 13.674C2.945 52.473-4.15 71.572 8.757 89.498a16.6 16.6 0 0 0 6.353 4.91 20.58 20.58 0 0 1 10.02 10.875 28.488 28.488 0 0 0 42.623 12.637 20.06 20.06 0 0 1 16.624-2.943 29 29 0 0 0 36.038-33.793 20.08 20.08 0 0 1 2.51-14.131 29.83 29.83 0 0 0 3.764-19.39" class="cls-2"/><path d="M107.568 22.265a6.022 6.022 0 0 0-11.622-2.77A3.213 3.213 0 0 0 90.736 22q.001.139.015.274a4.795 4.795 0 0 0 1.592 9.326H106a4.795 4.795 0 0 0 1.568-9.335" class="cls-3"/><path d="M106 32.6H92.344a5.794 5.794 0 0 1-2.59-10.99 4.212 4.212 0 0 1 5.752-3.51 7.025 7.025 0 0 1 13.1 3.5v.018A5.794 5.794 0 0 1 106 32.6M93.95 19.8a2.21 2.21 0 0 0-2.214 2.2q.002.095.011.188a1 1 0 0 1-.667 1.03 3.795 3.795 0 0 0 1.264 7.382H106a3.795 3.795 0 0 0 1.243-7.39 1 1 0 0 1-.67-1.057 5 5 0 0 0 .033-.553 5.025 5.025 0 0 0-9.725-1.752 1 1 0 0 1-1.556.43 2.2 2.2 0 0 0-1.375-.478" class="cls-2"/><path d="M106 22a4.8 4.8 0 0 1 1.58.264" class="cls-3"/><path d="M107.581 23.265a1 1 0 0 1-.327-.056A3.8 3.8 0 0 0 106 23a1 1 0 0 1 0-2 5.8 5.8 0 0 1 1.908.32 1 1 0 0 1-.327 1.945" class="cls-2"/><path d="M90.75 22.269A4.8 4.8 0 0 1 92.343 22" class="cls-3"/><path d="M90.75 23.269a1 1 0 0 1-.33-1.945A5.8 5.8 0 0 1 92.345 21a1 1 0 0 1 0 2 3.8 3.8 0 0 0-1.265.213 1 1 0 0 1-.329.056" class="cls-2"/><path d="M95.924 19.475a3.2 3.2 0 0 1 .874 1.042" class="cls-3"/><path d="M96.8 21.518a1 1 0 0 1-.886-.535 2.2 2.2 0 0 0-.603-.718 1 1 0 0 1 1.228-1.58 4.25 4.25 0 0 1 1.145 1.367 1 1 0 0 1-.884 1.466" class="cls-2"/><path d="M125 44a1 1 0 0 1-.38-.08.9.9 0 0 1-.33-.21A1.05 1.05 0 0 1 124 43a.8.8 0 0 1 .08-.38 1 1 0 0 1 1.11-.6.6.6 0 0 1 .19.06.8.8 0 0 1 .18.09 2 2 0 0 1 .15.12.9.9 0 0 1 .21.33 1 1 0 0 1 .08.38 1.05 1.05 0 0 1-.29.71l-.15.12a.8.8 0 0 1-.18.09.6.6 0 0 1-.19.06 1 1 0 0 1-.19.02m-2.002 4h-6a1 1 0 0 1 0-2h6a1 1 0 0 1 0 2m-2-4.001h-7a1 1 0 0 1 0-2h7a1 1 0 0 1 0 2m-8.001 4h-1.999a1 1 0 0 1 0-2h2a1 1 0 0 1 0 2m8 4.001h-8a1 1 0 0 1-.001-2h8.001a1 1 0 0 1 0 2M13 72a.997.997 0 0 1-.7-1.71 1.034 1.034 0 0 1 1.41 0A1 1 0 0 1 14 71a1 1 0 0 1-.29.71A1.04 1.04 0 0 1 13 72m1.001-4h-2a1 1 0 1 1 0-2h2a1 1 0 0 1 0 2m3-4.001H7.002a1 1 0 1 1 0-2h9.999a1 1 0 0 1 0 2m-9.001 4H4.001a1 1 0 1 1 0-2H8a1 1 0 0 1 0 2M9 72H1a1 1 0 0 1 0-2h8a1 1 0 0 1 0 2m17.266-51.988a7.984 7.984 0 0 1 11.875-8.847 10.49 10.49 0 0 1 18.803 5.25A7.496 7.496 0 0 1 54.5 31h-28a5.496 5.496 0 0 1-.234-10.988" class="cls-3"/><path d="M26.266 17.012c-.048-.185-.076-.376-.112-.565a8 8 0 0 0-.09.593c.068-.005.132-.025.202-.028" class="cls-3"/><path d="M54.5 32h-28a6.497 6.497 0 0 1-1.42-12.838A8.5 8.5 0 0 1 25 18a8.986 8.986 0 0 1 12.89-8.107 11.489 11.489 0 0 1 19.968 5.805A8.496 8.496 0 0 1 54.5 32M34 11a6.972 6.972 0 0 0-6.767 8.761 1 1 0 0 1-.925 1.25A4.496 4.496 0 0 0 26.5 30h28a6.496 6.496 0 0 0 2.117-12.64 1 1 0 0 1-.669-.842 9.488 9.488 0 0 0-17.01-4.748 1 1 0 0 1-1.315.25A7 7 0 0 0 34 11" class="cls-2"/><path d="M56.487 21.75a1 1 0 0 1-.95-1.31A9.51 9.51 0 0 0 46.5 8a1 1 0 0 1 0-2 11.51 11.51 0 0 1 10.938 15.058 1 1 0 0 1-.95.692m-26.366.612a1 1 0 0 1-.66-.248A4.5 4.5 0 0 0 26.5 21a1 1 0 0 1 0-2 6.5 6.5 0 0 1 4.281 1.61 1 1 0 0 1-.659 1.752m10.383-8.02a1 1 0 0 1-.814-.417A7.02 7.02 0 0 0 34 11a1 1 0 0 1 0-2 9.02 9.02 0 0 1 7.316 3.759 1 1 0 0 1-.811 1.583M118.999 113H12a1 1 0 0 1 0-2h106.999a1 1 0 0 1 0 2m4.001 0h-1a1 1 0 0 1 0-2h1a1 1 0 0 1 0 2M5.999 113h-1a1 1 0 0 1 0-2h1a1 1 0 1 1 0 2m3 0h-.2a1 1 0 1 1 0-2H9a1 1 0 1 1 0 2" class="cls-2"/></g><rect width="70" height="23" x="11" y="20" class="cls-3" rx="2"/><rect width="23" height="23" x="58" y="20" class="cls-4" rx="2"/><path d="M65 28h-2a1 1 0 0 1 0-2h2a1 1 0 0 1 0 2m0 4h-2a1 1 0 0 1 0-2h2a1 1 0 0 1 0 2" class="cls-2"/><circle cx="72" cy="29" r="3" class="cls-3"/><path d="M72 33a4 4 0 1 1 4-4 4.004 4.004 0 0 1-4 4m0-6a2 2 0 1 0 2 2 2 2 0 0 0-2-2m-9 9a1.05 1.05 0 0 1-.71-.29 2 2 0 0 1-.12-.15.7.7 0 0 1-.09-.18.7.7 0 0 1-.06-.18A1.4 1.4 0 0 1 62 35a1 1 0 0 1 .08-.38 1 1 0 0 1 .21-.33A1 1 0 0 1 64 35a1.3 1.3 0 0 1-.02.2.6.6 0 0 1-.06.18.8.8 0 0 1-.09.18l-.12.15A1.04 1.04 0 0 1 63 36m4 0a1.004 1.004 0 0 1-.71-1.71 1 1 0 0 1 .9-.27.6.6 0 0 1 .19.06.8.8 0 0 1 .18.09l.15.12A1 1 0 0 1 67 36m4 0a1 1 0 0 1-.19-.02.6.6 0 0 1-.19-.06.8.8 0 0 1-.18-.09l-.15-.12a1.014 1.014 0 0 1 0-1.42l.15-.12a.8.8 0 0 1 .18-.09.6.6 0 0 1 .19-.06 1.03 1.03 0 0 1 .9.27A1 1 0 0 1 71 36m4 0a1.004 1.004 0 0 1-.71-1.71 2 2 0 0 1 .15-.12.8.8 0 0 1 .18-.09.6.6 0 0 1 .19-.06 1 1 0 0 1 .9.27A1 1 0 0 1 75 36m-12 4a1.05 1.05 0 0 1-.71-.29.9.9 0 0 1-.21-.33A1 1 0 0 1 62 39a1 1 0 1 1 1.71.71 2 2 0 0 1-.15.12.8.8 0 0 1-.18.09.7.7 0 0 1-.18.06 1.4 1.4 0 0 1-.2.02m4 0a1.004 1.004 0 0 1-.71-1.71 1 1 0 0 1 .33-.21 1.02 1.02 0 0 1 1.09.21 1.014 1.014 0 0 1 0 1.42l-.15.12a.8.8 0 0 1-.18.09.6.6 0 0 1-.19.06A1 1 0 0 1 67 40m4 0a1 1 0 0 1-.19-.02.6.6 0 0 1-.19-.06.8.8 0 0 1-.18-.09 2 2 0 0 1-.15-.12A1.05 1.05 0 0 1 70 39a1 1 0 0 1 .08-.38 1.2 1.2 0 0 1 .21-.33 2 2 0 0 1 .15-.12.8.8 0 0 1 .18-.09.6.6 0 0 1 .19-.06 1 1 0 0 1 .9.27A1 1 0 0 1 71 40m4 0a.99.99 0 1 1 .71-.29A1.05 1.05 0 0 1 75 40m-10-2a1.004 1.004 0 0 1-.71-1.71 1 1 0 0 1 .9-.27.6.6 0 0 1 .19.06.8.8 0 0 1 .18.09l.15.12a1.014 1.014 0 0 1 0 1.42 2 2 0 0 1-.15.12.8.8 0 0 1-.18.09.6.6 0 0 1-.19.06A1 1 0 0 1 65 38m4 0a.99.99 0 0 1-1-1 1.05 1.05 0 0 1 .29-.71l.15-.12a.8.8 0 0 1 .18-.09.6.6 0 0 1 .18-.06 1.02 1.02 0 0 1 .91.27A1 1 0 0 1 69 38m4 0a1.4 1.4 0 0 1-.2-.02.7.7 0 0 1-.18-.06.8.8 0 0 1-.18-.09l-.15-.12A1.05 1.05 0 0 1 72 37a1.03 1.03 0 0 1 .29-.71l.15-.12a.8.8 0 0 1 .18-.09.6.6 0 0 1 .18-.06.96.96 0 0 1 .58.06 1.2 1.2 0 0 1 .33.21 1.014 1.014 0 0 1 0 1.42 1.2 1.2 0 0 1-.33.21A1 1 0 0 1 73 38" class="cls-2"/><path d="M79 44H13a3.003 3.003 0 0 1-3-3V22a3.003 3.003 0 0 1 3-3h66a3.003 3.003 0 0 1 3 3v19a3.003 3.003 0 0 1-3 3M13 21a1 1 0 0 0-1 1v19a1 1 0 0 0 1 1h66a1 1 0 0 0 1-1V22a1 1 0 0 0-1-1Z" class="cls-2"/><g class="cls-5"><path d="M17 26h4v9h-4zm8 0h4v9h-4zm8 0h4v9h-4zm8 0h4v9h-4zm8 0h4v9h-4z" class="cls-2"/></g><path d="M21 36h-4a1 1 0 0 1-1-1v-9a1 1 0 0 1 1-1h4a1 1 0 0 1 1 1v9a1 1 0 0 1-1 1m-3-2h2v-7h-2Zm11 2h-4a1 1 0 0 1-1-1v-9a1 1 0 0 1 1-1h4a1 1 0 0 1 1 1v9a1 1 0 0 1-1 1m-3-2h2v-7h-2Zm11 2h-4a1 1 0 0 1-1-1v-9a1 1 0 0 1 1-1h4a1 1 0 0 1 1 1v9a1 1 0 0 1-1 1m-3-2h2v-7h-2Zm11 2h-4a1 1 0 0 1-1-1v-9a1 1 0 0 1 1-1h4a1 1 0 0 1 1 1v9a1 1 0 0 1-1 1m-3-2h2v-7h-2Zm11 2h-4a1 1 0 0 1-1-1v-9a1 1 0 0 1 1-1h4a1 1 0 0 1 1 1v9a1 1 0 0 1-1 1m-3-2h2v-7h-2Zm-29 6h-4a1 1 0 0 1 0-2h4a1 1 0 0 1 0 2m8 0h-4a1 1 0 0 1 0-2h4a1 1 0 0 1 0 2m8 0h-4a1 1 0 0 1 0-2h4a1 1 0 0 1 0 2m8 0h-4a1 1 0 0 1 0-2h4a1 1 0 0 1 0 2m8 0h-4a1 1 0 0 1 0-2h4a1 1 0 0 1 0 2" class="cls-2"/><rect width="70" height="23" x="11" y="43" class="cls-3" rx="2"/><rect width="23" height="23" x="58" y="43" class="cls-4" rx="2"/><path d="M65 51h-2a1 1 0 0 1 0-2h2a1 1 0 0 1 0 2m0 4h-2a1 1 0 0 1 0-2h2a1 1 0 0 1 0 2" class="cls-2"/><circle cx="72" cy="52" r="3" class="cls-3"/><path d="M72 56a4 4 0 1 1 4-4 4.004 4.004 0 0 1-4 4m0-6a2 2 0 1 0 2 2 2 2 0 0 0-2-2m-9 9a.99.99 0 0 1-1-1 1 1 0 0 1 .08-.38 1 1 0 0 1 .21-.33 1.004 1.004 0 0 1 1.42 1.42 2 2 0 0 1-.15.12.8.8 0 0 1-.18.09.7.7 0 0 1-.18.06 1.4 1.4 0 0 1-.2.02m4 0a1.004 1.004 0 0 1-.71-1.71 1.03 1.03 0 0 1 .9-.27.6.6 0 0 1 .19.06.8.8 0 0 1 .18.09l.15.12A1 1 0 0 1 67 59m4 0a1 1 0 0 1-.19-.02.6.6 0 0 1-.19-.06.8.8 0 0 1-.18-.09l-.15-.12a1.2 1.2 0 0 1-.21-.33A1 1 0 0 1 70 58a1.05 1.05 0 0 1 .29-.71l.15-.12a.8.8 0 0 1 .18-.09.6.6 0 0 1 .19-.06.85.85 0 0 1 .39 0 .6.6 0 0 1 .18.06.6.6 0 0 1 .17.09c.06.04.11.08.16.12A1.05 1.05 0 0 1 72 58a1 1 0 0 1-.08.38 1.2 1.2 0 0 1-.21.33A1.05 1.05 0 0 1 71 59m4 0a.99.99 0 1 1 .71-.29A1.05 1.05 0 0 1 75 59m-12 4a.99.99 0 0 1-1-1 1.03 1.03 0 0 1 .29-.71 1.004 1.004 0 0 1 1.42 1.42A1.04 1.04 0 0 1 63 63m4 0a1 1 0 0 1-.38-.08 1 1 0 0 1-.33-.21 1.014 1.014 0 0 1 0-1.42 1.03 1.03 0 0 1 1.42 0 1.014 1.014 0 0 1 0 1.42A1.04 1.04 0 0 1 67 63m4 0a1 1 0 0 1-.19-.02.6.6 0 0 1-.19-.06.8.8 0 0 1-.18-.09 2 2 0 0 1-.15-.12A1.05 1.05 0 0 1 70 62a1.03 1.03 0 0 1 .29-.71l.15-.12a.8.8 0 0 1 .18-.09.6.6 0 0 1 .19-.06 1 1 0 0 1 .9.27 1.014 1.014 0 0 1 0 1.42 1 1 0 0 1-.16.12.6.6 0 0 1-.17.09.7.7 0 0 1-.18.06 1.4 1.4 0 0 1-.2.02m4 0a1 1 0 0 1-.19-.02.6.6 0 0 1-.19-.06.8.8 0 0 1-.18-.09 2 2 0 0 1-.15-.12A1.014 1.014 0 1 1 75 63m-10-2a1.05 1.05 0 0 1-.71-.29A1.03 1.03 0 0 1 64 60a1.004 1.004 0 1 1 1 1m4 0a.99.99 0 0 1-1-1 1 1 0 0 1 .08-.38.9.9 0 0 1 .21-.33A1.004 1.004 0 1 1 69 61m4 0a1.4 1.4 0 0 1-.2-.02.7.7 0 0 1-.18-.06.8.8 0 0 1-.18-.09l-.15-.12A1.05 1.05 0 0 1 72 60a1.03 1.03 0 0 1 .29-.71l.15-.12a.8.8 0 0 1 .18-.09.6.6 0 0 1 .18-.06.96.96 0 0 1 .58.06 1.2 1.2 0 0 1 .33.21 1.014 1.014 0 0 1 0 1.42 1.2 1.2 0 0 1-.33.21A1 1 0 0 1 73 61" class="cls-2"/><path d="M79 67H13a3.003 3.003 0 0 1-3-3V45a3.003 3.003 0 0 1 3-3h66a3.003 3.003 0 0 1 3 3v19a3.003 3.003 0 0 1-3 3M13 44a1 1 0 0 0-1 1v19a1 1 0 0 0 1 1h66a1 1 0 0 0 1-1V45a1 1 0 0 0-1-1Z" class="cls-2"/><g class="cls-5"><path d="M17 49h4v9h-4zm8 0h4v9h-4zm8 0h4v9h-4zm8 0h4v9h-4zm8 0h4v9h-4z" class="cls-2"/></g><path d="M21 59h-4a1 1 0 0 1-1-1v-9a1 1 0 0 1 1-1h4a1 1 0 0 1 1 1v9a1 1 0 0 1-1 1m-3-2h2v-7h-2Zm11 2h-4a1 1 0 0 1-1-1v-9a1 1 0 0 1 1-1h4a1 1 0 0 1 1 1v9a1 1 0 0 1-1 1m-3-2h2v-7h-2Zm11 2h-4a1 1 0 0 1-1-1v-9a1 1 0 0 1 1-1h4a1 1 0 0 1 1 1v9a1 1 0 0 1-1 1m-3-2h2v-7h-2Zm11 2h-4a1 1 0 0 1-1-1v-9a1 1 0 0 1 1-1h4a1 1 0 0 1 1 1v9a1 1 0 0 1-1 1m-3-2h2v-7h-2Zm11 2h-4a1 1 0 0 1-1-1v-9a1 1 0 0 1 1-1h4a1 1 0 0 1 1 1v9a1 1 0 0 1-1 1m-3-2h2v-7h-2Zm-29 6h-4a1 1 0 0 1 0-2h4a1 1 0 0 1 0 2m8 0h-4a1 1 0 0 1 0-2h4a1 1 0 0 1 0 2m8 0h-4a1 1 0 0 1 0-2h4a1 1 0 0 1 0 2m8 0h-4a1 1 0 0 1 0-2h4a1 1 0 0 1 0 2m8 0h-4a1 1 0 0 1 0-2h4a1 1 0 0 1 0 2" class="cls-2"/><rect width="70" height="23" x="11" y="66" class="cls-3" rx="2"/><rect width="23" height="23" x="58" y="66" class="cls-4" rx="2"/><path d="M65 74h-2a1 1 0 0 1 0-2h2a1 1 0 0 1 0 2m0 4h-2a1 1 0 0 1 0-2h2a1 1 0 0 1 0 2" class="cls-2"/><circle cx="72" cy="75" r="3" class="cls-3"/><path d="M72 79a4 4 0 1 1 4-4 4.004 4.004 0 0 1-4 4m0-6a2 2 0 1 0 2 2 2 2 0 0 0-2-2m-9 9a.99.99 0 0 1-1-1 1.03 1.03 0 0 1 .29-.71 1.004 1.004 0 0 1 1.42 1.42A1.04 1.04 0 0 1 63 82m4 0a1.004 1.004 0 0 1-.71-1.71 1.03 1.03 0 0 1 .9-.27.6.6 0 0 1 .19.06.8.8 0 0 1 .18.09 2 2 0 0 1 .15.12A1 1 0 0 1 67 82m4 0a1 1 0 0 1-.19-.02.6.6 0 0 1-.19-.06.8.8 0 0 1-.18-.09l-.15-.12a1 1 0 0 1-.21-.33A1 1 0 0 1 70 81a1.03 1.03 0 0 1 .29-.71l.15-.12a.8.8 0 0 1 .18-.09.6.6 0 0 1 .19-.06 1 1 0 0 1 .9.27 1.014 1.014 0 0 1 0 1.42 1 1 0 0 1-.16.12.6.6 0 0 1-.17.09.7.7 0 0 1-.18.06 1.4 1.4 0 0 1-.2.02m4 0a.99.99 0 1 1 .71-.29A1.05 1.05 0 0 1 75 82m-12 4a1.05 1.05 0 0 1-.71-.29A1.03 1.03 0 0 1 62 85a1 1 0 1 1 1.71.71l-.15.12a.8.8 0 0 1-.18.09.7.7 0 0 1-.18.06 1.4 1.4 0 0 1-.2.02m4 0a1 1 0 0 1-.38-.08 1 1 0 0 1-.33-.21 1.014 1.014 0 0 1 0-1.42 1 1 0 0 1 .33-.21 1.02 1.02 0 0 1 1.09.21A1 1 0 0 1 67 86m4 0a1 1 0 0 1-.19-.02.6.6 0 0 1-.19-.06.8.8 0 0 1-.18-.09l-.15-.12A1.03 1.03 0 0 1 70 85a1.05 1.05 0 0 1 .29-.71 2 2 0 0 1 .15-.12.8.8 0 0 1 .18-.09.6.6 0 0 1 .19-.06 1 1 0 0 1 .9.27A1 1 0 0 1 71 86m4 0a1.05 1.05 0 0 1-.71-.29 1.2 1.2 0 0 1-.21-.33A.8.8 0 0 1 74 85a1 1 0 1 1 2 0 1 1 0 0 1-.08.38 1.2 1.2 0 0 1-.21.33A1.05 1.05 0 0 1 75 86m-10-2a.99.99 0 1 1 .71-.29A1.05 1.05 0 0 1 65 84m4 0a1.4 1.4 0 0 1-.2-.02.7.7 0 0 1-.18-.06.8.8 0 0 1-.18-.09l-.15-.12A1.014 1.014 0 1 1 69 84m4 0a1.4 1.4 0 0 1-.2-.02.7.7 0 0 1-.18-.06.8.8 0 0 1-.18-.09l-.15-.12A1.05 1.05 0 0 1 72 83a1.03 1.03 0 0 1 .29-.71l.15-.12a.8.8 0 0 1 .18-.09.6.6 0 0 1 .18-.06.96.96 0 0 1 .58.06 1.2 1.2 0 0 1 .33.21 1.014 1.014 0 0 1 0 1.42 1.2 1.2 0 0 1-.33.21A1 1 0 0 1 73 84" class="cls-2"/><path d="M79 90H13a3.003 3.003 0 0 1-3-3V68a3.003 3.003 0 0 1 3-3h66a3.003 3.003 0 0 1 3 3v19a3.003 3.003 0 0 1-3 3M13 67a1 1 0 0 0-1 1v19a1 1 0 0 0 1 1h66a1 1 0 0 0 1-1V68a1 1 0 0 0-1-1Z" class="cls-2"/><g class="cls-5"><path d="M17 72h4v9h-4zm8 0h4v9h-4zm8 0h4v9h-4zm8 0h4v9h-4zm8 0h4v9h-4z" class="cls-2"/></g><path d="M21 82h-4a1 1 0 0 1-1-1v-9a1 1 0 0 1 1-1h4a1 1 0 0 1 1 1v9a1 1 0 0 1-1 1m-3-2h2v-7h-2Zm11 2h-4a1 1 0 0 1-1-1v-9a1 1 0 0 1 1-1h4a1 1 0 0 1 1 1v9a1 1 0 0 1-1 1m-3-2h2v-7h-2Zm11 2h-4a1 1 0 0 1-1-1v-9a1 1 0 0 1 1-1h4a1 1 0 0 1 1 1v9a1 1 0 0 1-1 1m-3-2h2v-7h-2Zm11 2h-4a1 1 0 0 1-1-1v-9a1 1 0 0 1 1-1h4a1 1 0 0 1 1 1v9a1 1 0 0 1-1 1m-3-2h2v-7h-2Zm11 2h-4a1 1 0 0 1-1-1v-9a1 1 0 0 1 1-1h4a1 1 0 0 1 1 1v9a1 1 0 0 1-1 1m-3-2h2v-7h-2Zm-29 6h-4a1 1 0 0 1 0-2h4a1 1 0 0 1 0 2m8 0h-4a1 1 0 0 1 0-2h4a1 1 0 0 1 0 2m8 0h-4a1 1 0 0 1 0-2h4a1 1 0 0 1 0 2m8 0h-4a1 1 0 0 1 0-2h4a1 1 0 0 1 0 2m8 0h-4a1 1 0 0 1 0-2h4a1 1 0 0 1 0 2" class="cls-2"/><rect width="70" height="23" x="11" y="89" class="cls-3" rx="2"/><rect width="23" height="23" x="58" y="89" class="cls-4" rx="2"/><path d="M65 97h-2a1 1 0 0 1 0-2h2a1 1 0 0 1 0 2m0 4h-2a1 1 0 0 1 0-2h2a1 1 0 0 1 0 2" class="cls-2"/><circle cx="72" cy="98" r="3" class="cls-3"/><path d="M72 102a4 4 0 1 1 4-4 4.004 4.004 0 0 1-4 4m0-6a2 2 0 1 0 2 2 2 2 0 0 0-2-2m-9 9a1.05 1.05 0 0 1-.71-.29A1.03 1.03 0 0 1 62 104a1 1 0 1 1 1.71.71l-.15.12a.8.8 0 0 1-.18.09.7.7 0 0 1-.18.06 1.4 1.4 0 0 1-.2.02m4 0a1.004 1.004 0 0 1-.71-1.71 1.03 1.03 0 0 1 .9-.27.6.6 0 0 1 .19.06.8.8 0 0 1 .18.09 2 2 0 0 1 .15.12A1 1 0 0 1 67 105m4 0a1 1 0 0 1-.19-.02.6.6 0 0 1-.19-.06.8.8 0 0 1-.18-.09l-.15-.12a1.014 1.014 0 0 1 0-1.42l.15-.12a.8.8 0 0 1 .18-.09.6.6 0 0 1 .19-.06 1 1 0 0 1 .9.27A1 1 0 0 1 71 105m4 0a1 1 0 0 1-.19-.02.6.6 0 0 1-.19-.06.8.8 0 0 1-.18-.09 2 2 0 0 1-.15-.12 1.014 1.014 0 1 1 .71.29m-12 4a.99.99 0 0 1-1-1 1 1 0 0 1 .08-.38.9.9 0 0 1 .21-.33 1.02 1.02 0 0 1 .91-.27.6.6 0 0 1 .18.06.8.8 0 0 1 .18.09 2 2 0 0 1 .15.12 1.014 1.014 0 0 1 0 1.42 1.04 1.04 0 0 1-.71.29m4 0a1 1 0 0 1-.38-.08 1 1 0 0 1-.33-.21 1.014 1.014 0 0 1 0-1.42 1 1 0 0 1 .33-.21 1.02 1.02 0 0 1 1.09.21A1 1 0 0 1 67 109m4 0a1 1 0 0 1-.19-.02.6.6 0 0 1-.19-.06.8.8 0 0 1-.18-.09 2 2 0 0 1-.15-.12A1.05 1.05 0 0 1 70 108a1 1 0 0 1 .08-.38 1.2 1.2 0 0 1 .21-.33 2 2 0 0 1 .15-.12.8.8 0 0 1 .18-.09.6.6 0 0 1 .19-.06 1 1 0 0 1 .9.27A1 1 0 0 1 71 109m4 0a.99.99 0 1 1 .71-.29 1.05 1.05 0 0 1-.71.29m-10-2a1.004 1.004 0 0 1-.71-1.71 1.03 1.03 0 0 1 .9-.27.6.6 0 0 1 .19.06.8.8 0 0 1 .18.09 2 2 0 0 1 .15.12 1.014 1.014 0 0 1 0 1.42 2 2 0 0 1-.15.12.8.8 0 0 1-.18.09.6.6 0 0 1-.19.06 1 1 0 0 1-.19.02m4 0a1.03 1.03 0 0 1-.71-.29 1.014 1.014 0 0 1 0-1.42l.15-.12a.8.8 0 0 1 .18-.09.6.6 0 0 1 .18-.06A1 1 0 1 1 69 107m4 0a1.4 1.4 0 0 1-.2-.02.7.7 0 0 1-.18-.06.8.8 0 0 1-.18-.09l-.15-.12A1.05 1.05 0 0 1 72 106a1.03 1.03 0 0 1 .29-.71l.15-.12a.8.8 0 0 1 .18-.09.6.6 0 0 1 .18-.06.96.96 0 0 1 .58.06 1.2 1.2 0 0 1 .33.21 1.014 1.014 0 0 1 0 1.42 1.2 1.2 0 0 1-.33.21 1 1 0 0 1-.38.08" class="cls-2"/><path d="M79 113H13a3.003 3.003 0 0 1-3-3V91a3.003 3.003 0 0 1 3-3h66a3.003 3.003 0 0 1 3 3v19a3.003 3.003 0 0 1-3 3M13 90a1 1 0 0 0-1 1v19a1 1 0 0 0 1 1h66a1 1 0 0 0 1-1V91a1 1 0 0 0-1-1Z" class="cls-2"/><g class="cls-5"><path d="M17 95h4v9h-4zm8 0h4v9h-4zm8 0h4v9h-4zm8 0h4v9h-4zm8 0h4v9h-4z" class="cls-2"/></g><path d="M21 105h-4a1 1 0 0 1-1-1v-9a1 1 0 0 1 1-1h4a1 1 0 0 1 1 1v9a1 1 0 0 1-1 1m-3-2h2v-7h-2Zm11 2h-4a1 1 0 0 1-1-1v-9a1 1 0 0 1 1-1h4a1 1 0 0 1 1 1v9a1 1 0 0 1-1 1m-3-2h2v-7h-2Zm11 2h-4a1 1 0 0 1-1-1v-9a1 1 0 0 1 1-1h4a1 1 0 0 1 1 1v9a1 1 0 0 1-1 1m-3-2h2v-7h-2Zm11 2h-4a1 1 0 0 1-1-1v-9a1 1 0 0 1 1-1h4a1 1 0 0 1 1 1v9a1 1 0 0 1-1 1m-3-2h2v-7h-2Zm11 2h-4a1 1 0 0 1-1-1v-9a1 1 0 0 1 1-1h4a1 1 0 0 1 1 1v9a1 1 0 0 1-1 1m-3-2h2v-7h-2Zm-29 6h-4a1 1 0 0 1 0-2h4a1 1 0 0 1 0 2m8 0h-4a1 1 0 0 1 0-2h4a1 1 0 0 1 0 2m8 0h-4a1 1 0 0 1 0-2h4a1 1 0 0 1 0 2m8 0h-4a1 1 0 0 1 0-2h4a1 1 0 0 1 0 2m8 0h-4a1 1 0 0 1 0-2h4a1 1 0 0 1 0 2" class="cls-2"/><rect width="44" height="72" x="75" y="40" class="cls-3" rx="4"/><path d="M107 40v3a2 2 0 0 1-2 2H89a2 2 0 0 1-2-2v-3Z" class="cls-2"/><path d="M115 113H79a5.006 5.006 0 0 1-5-5V44a5.006 5.006 0 0 1 5-5h36a5.006 5.006 0 0 1 5 5v64a5.006 5.006 0 0 1-5 5M79 41a3.003 3.003 0 0 0-3 3v64a3.003 3.003 0 0 0 3 3h36a3.003 3.003 0 0 0 3-3V44a3.003 3.003 0 0 0-3-3Z" class="cls-2"/><path d="M105 46H89a3.003 3.003 0 0 1-3-3v-3a1 1 0 0 1 2 0v3a1 1 0 0 0 1 1h16a1 1 0 0 0 1-1v-3a1 1 0 0 1 2 0v3a3.003 3.003 0 0 1-3 3" class="cls-2"/><circle cx="97" cy="77" r="19" class="cls-2"/><path d="M97 90a13.015 13.015 0 0 1-13-13 1 1 0 0 1 2 0 11 11 0 1 0 2.2-6.6l-.16.208a1 1 0 0 1-1.588-1.216l.154-.202A13 13 0 1 1 97 90" class="cls-3"/><path d="M92 71h-5a1 1 0 0 1-1-1v-5a1 1 0 0 1 2 0v4h4a1 1 0 0 1 0 2m10.344 10.817a1 1 0 0 1-.58-.186l-5.345-3.817A1 1 0 0 1 96 77v-7a1 1 0 0 1 2 0v6.485l4.926 3.518a1 1 0 0 1-.582 1.814" class="cls-3"/><path d="M97 79a2 2 0 1 1 2-2 2 2 0 0 1-2 2m0-2.001" class="cls-3"/></svg>