<svg xmlns="http://www.w3.org/2000/svg" viewBox="0 0 128 128"><defs><style>.cls-2{fill:currentColor}.cls-3{fill:#fff}.cls-5{opacity:.5}</style></defs><title/><g style="opacity:.3"><path d="M116.251 69.168a45.949 45.949 0 1 0-90.24-12.344 50.3 50.3 0 0 1-5.854 23.528 26.999 26.999 0 0 0 24.921 39.635 27.5 27.5 0 0 0 4.362-.53c10.762-2.199 22.055-1.176 31.831 3.834a24.534 24.534 0 0 0 34.241-13.411 24.48 24.48 0 0 0 .555-15.096 47.5 47.5 0 0 1 .184-25.616" class="cls-2"/><path d="M113 106H11a1 1 0 0 1 0-2h102a1 1 0 0 1 0 2" class="cls-2"/><path d="M113 106H31a1 1 0 0 1 0-2h82a1 1 0 0 1 0 2" class="cls-3"/><path d="M120 106h-3.999a1 1 0 0 1 0-2h4a1 1 0 1 1 0 2M4.999 106h-2a1 1 0 0 1 0-2h2a1 1 0 1 1 0 2m3.153 0h-.153a1 1 0 0 1 0-2h.153a1 1 0 0 1 0 2" class="cls-2"/><path d="M34.7 45.717c-7.385 13.257-7.708 30.17-7.454 47.384l-10.419.685c-.394-28.094 6.816-43.98 17.874-48.07" class="cls-3"/><path d="M16.828 94.786a1 1 0 0 1-1-.986c-.512-36.5 11.387-46.381 18.526-49.022a1 1 0 0 1 1.22 1.425c-7.216 12.954-7.584 29.568-7.328 46.883a1 1 0 0 1-.934 1.013l-10.419.685zm15.63-46.897c-9.524 5.635-14.805 21.673-14.642 44.83l8.417-.554c-.215-16.11.208-31.593 6.225-44.276" class="cls-2"/><path d="M10.396 53.491c8.24 12.744 9.673 29.6 10.55 46.793h10.44c-1.451-28.06-9.688-43.438-20.99-46.793" class="cls-3"/><path d="M31.386 101.284h-10.44a1 1 0 0 1-1-.95c-.881-17.293-2.34-33.847-10.39-46.3a1 1 0 0 1 1.124-1.501c7.297 2.166 19.82 11.243 21.705 47.699a1 1 0 0 1-.999 1.052m-9.491-2h8.435c-1.358-23.118-7.68-38.775-17.554-43.772 6.837 12.26 8.276 27.682 9.119 43.772" class="cls-2"/><path d="M38.982 60.423c-6.09 6.188-9.067 19.45-9.042 25.304l-11.741-.3C21.751 71.13 31.306 60.86 38.982 60.421" class="cls-3"/><path d="M29.94 86.728h-.026l-11.74-.302a1 1 0 0 1-.945-1.24c3.867-15.57 14.068-25.326 21.696-25.762a1 1 0 0 1 .77 1.7c-5.875 5.97-8.78 18.988-8.755 24.6a1 1 0 0 1-1 1.004m-10.453-2.269 9.476.243c.253-5.415 2.53-16.015 7.398-22.71-6.184 2.197-13.558 10.47-16.874 22.467" class="cls-2"/><path d="M43.712 75.39c-7.352 4.313-9.638 9.216-8.365 17.15l-11.846 5.48c1.09-16.08 10.302-23.845 20.211-22.63" class="cls-3"/><path d="M23.501 99.019a1 1 0 0 1-.998-1.068c.59-8.697 3.643-15.74 8.595-19.832a16.42 16.42 0 0 1 12.736-3.722 1 1 0 0 1 .384 1.855c-6.887 4.04-9.097 8.563-7.884 16.13a1 1 0 0 1-.567 1.066l-11.846 5.478a1 1 0 0 1-.42.093m16.991-22.707a14.44 14.44 0 0 0-8.12 3.349c-4.205 3.474-6.918 9.372-7.723 16.725l9.6-4.44c-.938-6.924.915-11.665 6.243-15.634" class="cls-2"/><path d="M3.53 71.3c8.05 2.803 11.244 7.17 11.535 15.2l12.684 3.075C23.56 74.012 13.015 68.183 3.531 71.3" class="cls-3"/><path d="M27.749 90.575a1 1 0 0 1-.235-.028L14.83 87.472a1 1 0 0 1-.764-.935c-.278-7.66-3.324-11.666-10.864-14.293a1 1 0 0 1 .017-1.895 16.42 16.42 0 0 1 13.215 1.179c5.653 3.053 10.014 9.37 12.28 17.787a1 1 0 0 1-.965 1.26m-11.721-4.87 10.278 2.491C24.09 81.14 20.284 75.88 15.484 73.288a14.46 14.46 0 0 0-8.616-1.709c5.998 2.86 8.736 7.151 9.16 14.126" class="cls-2"/><path d="M8.043 63.811c6.98 5.163 11.56 16.14 12.448 21.925l10.69-.478c-2.366-14.005-15.487-22.21-23.138-21.447" class="cls-3"/><path d="M20.49 86.736a1 1 0 0 1-.988-.848c-.862-5.62-5.29-16.269-12.054-21.272a1 1 0 0 1 .496-1.8c7.997-.8 21.757 7.678 24.223 22.276a1 1 0 0 1-.942 1.165l-10.69.478Zm-9.64-21.842c5.644 5.479 9.397 14.36 10.474 19.804l8.658-.387c-2.43-11.285-12.045-18.373-19.132-19.417" class="cls-2"/><path d="M41.845 70.545c-7.909 3.179-10.894 7.69-10.809 15.726l-12.525 3.666c3.455-15.742 13.714-22.06 23.334-19.392" class="cls-3"/><path d="M18.51 90.937a1 1 0 0 1-.976-1.214c1.869-8.515 5.929-15.03 11.432-18.344a16.42 16.42 0 0 1 13.146-1.798 1 1 0 0 1 .106 1.891c-7.409 2.979-10.263 7.125-10.181 14.788a1 1 0 0 1-.72.97l-12.526 3.667a1 1 0 0 1-.28.04m19.033-19.99a14.5 14.5 0 0 0-7.545 2.145c-4.673 2.815-8.227 8.247-10.11 15.4l10.15-2.971c.096-6.987 2.63-11.402 8.486-14.54a14 14 0 0 0-.98-.034" class="cls-2"/><path d="M2.113 78.048c11.061 3.124 12.042 8.026 9.987 16.26l12.32 4.305c-1.678-16.78-10.526-24.597-22.307-20.565" class="cls-3"/><path d="M24.42 99.613a1 1 0 0 1-.33-.056l-12.32-4.305a1 1 0 0 1-.64-1.186c1.964-7.87 1.075-12.129-9.289-15.055a1 1 0 0 1-.052-1.909c5.189-1.775 10.005-1.384 13.926 1.134 5.364 3.443 8.718 10.455 9.7 20.278a1 1 0 0 1-.995 1.1m-11.138-5.95 9.961 3.48c-1.096-8.264-4.125-14.346-8.608-17.224a12.7 12.7 0 0 0-8.946-1.732c8.299 3.271 9.23 8.286 7.593 15.476" class="cls-2"/><path d="M31.848 105.002H14.152a2 2 0 0 1-1.964-1.622L10 92.002h26l-2.188 11.378a2 2 0 0 1-1.964 1.622" style="fill:#fff;fill-rule:evenodd"/><path d="M8 84.001h30.001v8.001H8z" class="cls-3"/><path d="M31.849 106.002H14.152a3 3 0 0 1-2.946-2.434L9.018 92.191A1 1 0 0 1 10 91h26a1 1 0 0 1 .982 1.19l-2.188 11.378a3.004 3.004 0 0 1-2.945 2.433m-20.639-13 1.96 10.189a1 1 0 0 0 .982.811h17.697a1 1 0 0 0 .982-.811L34.79 93Z" class="cls-2"/><path d="M38 93.002H8a1 1 0 0 1-1-1V84a1 1 0 0 1 1-1h30a1 1 0 0 1 1 1v8.001a1 1 0 0 1-1 1m-29-2h28V85H9Z" class="cls-2"/><path d="M69.005 118H59a1 1 0 0 1 0-2h10.005a1 1 0 0 1 0 2m3.313 0h-.312a1 1 0 0 1 0-2h.312a1 1 0 0 1 0 2M56 118h-1a1 1 0 0 1 0-2h1a1 1 0 0 1 0 2" class="cls-3"/><path d="M102.005 126H31a1 1 0 0 1 0-2h71.005a1 1 0 0 1 0 2m4 0h-1a1 1 0 0 1 0-2h1a1 1 0 0 1 0 2m-84.006 0h-.246a1 1 0 0 1 0-2h.246a1 1 0 0 1 0 2M28 126h-3a1 1 0 0 1 0-2h3a1 1 0 0 1 0 2" class="cls-2"/><path d="M7 16h15v12H7z" class="cls-3"/><path d="M22 29H7a1 1 0 0 1-1-1V16a1 1 0 0 1 1-1h15a1 1 0 0 1 1 1v12a1 1 0 0 1-1 1M8 27h13V17H8Z" class="cls-2"/><path d="M6 11h17v5H6z" class="cls-3"/><path d="M23 17H6a1 1 0 0 1-1-1v-5a1 1 0 0 1 1-1h17a1 1 0 0 1 1 1v5a1 1 0 0 1-1 1M7 15h15v-3H7Zm10 6h-5a1 1 0 0 1 0-2h5a1 1 0 0 1 0 2" class="cls-2"/><circle cx="103" cy="25" r="22" class="cls-3"/><path d="M103 48a23 23 0 1 1 23-23 23.026 23.026 0 0 1-23 23m0-44a21 21 0 1 0 21 21 21.024 21.024 0 0 0-21-21" class="cls-2"/><circle cx="103" cy="25" r="18" class="cls-3"/><path d="M103 28a3 3 0 1 1 3-3 3.003 3.003 0 0 1-3 3m0-4a1 1 0 1 0 1 1 1 1 0 0 0-1-1" class="cls-2"/><path d="M103 24a1 1 0 0 1-1-1v-8a1 1 0 0 1 2 0v8a1 1 0 0 1-1 1m-2 2h-5a1 1 0 0 1 0-2h5a1 1 0 0 1 0 2" class="cls-2"/><g class="cls-5"><path d="M103 12a.84.84 0 0 1-.38-.08 1.2 1.2 0 0 1-.33-.21A1.05 1.05 0 0 1 102 11a1.3 1.3 0 0 1 .02-.2.6.6 0 0 1 .06-.18.6.6 0 0 1 .09-.17c.04-.06.08-.11.12-.16a1.2 1.2 0 0 1 .33-.21 1 1 0 0 1 .76 0 1.2 1.2 0 0 1 .33.21 1.014 1.014 0 0 1 0 1.42 1.2 1.2 0 0 1-.33.21.84.84 0 0 1-.38.08m0 28a1 1 0 0 1-.38-.08 1.2 1.2 0 0 1-.33-.21c-.04-.05-.08-.1-.12-.16a.6.6 0 0 1-.09-.17.6.6 0 0 1-.06-.18 1.3 1.3 0 0 1-.02-.2 1.05 1.05 0 0 1 .29-.71 1.2 1.2 0 0 1 .33-.21 1 1 0 0 1 .76 0 1.2 1.2 0 0 1 .33.21 1.014 1.014 0 0 1 0 1.42 1.2 1.2 0 0 1-.33.21 1 1 0 0 1-.38.08M89 26a1.05 1.05 0 0 1-.71-.29 1.2 1.2 0 0 1-.21-.33A1 1 0 0 1 88 25a1 1 0 1 1 2 0 .84.84 0 0 1-.08.38 1.2 1.2 0 0 1-.21.33A1.05 1.05 0 0 1 89 26m28 0a1 1 0 0 1-.38-.08.96.96 0 0 1-.62-.92 1 1 0 0 1 .08-.38 1.2 1.2 0 0 1 .21-.33 1 1 0 0 1 .33-.21.96.96 0 0 1 .58-.06.6.6 0 0 1 .18.06.6.6 0 0 1 .17.09c.06.04.11.08.16.12a1.2 1.2 0 0 1 .21.33 1 1 0 0 1 .08.38 1.4 1.4 0 0 1-.02.2.7.7 0 0 1-.06.18.8.8 0 0 1-.09.18l-.12.15c-.05.04-.1.08-.16.12a.6.6 0 0 1-.17.09.7.7 0 0 1-.18.06 1.4 1.4 0 0 1-.2.02M96 13.87a.997.997 0 0 1-.71-1.7 1.047 1.047 0 0 1 1.42 0 1.03 1.03 0 0 1 .29.71 1 1 0 0 1-.02.19.7.7 0 0 1-.06.19.6.6 0 0 1-.09.17 1 1 0 0 1-.12.15 1 1 0 0 1-.71.29m14 24.25a1 1 0 0 1-.71-.29 1 1 0 0 1-.21-.32 1 1 0 0 1-.08-.39 1 1 0 0 1 .08-.38 1 1 0 0 1 .21-.32 1.027 1.027 0 0 1 1.42 0 1.04 1.04 0 0 1 .29.7 1 1 0 0 1-.08.39.97.97 0 0 1-.92.61M90.88 33a.99.99 0 0 1-1-1 1 1 0 0 1 .07-.38 1.2 1.2 0 0 1 .22-.33 1.034 1.034 0 0 1 1.41 0 1.03 1.03 0 0 1 .3.71 1.01 1.01 0 0 1-1 1m24.25-14a1 1 0 0 1-.39-.08 1 1 0 0 1-.32-.21 2 2 0 0 1-.13-.15l-.09-.18-.06-.18a1.4 1.4 0 0 1-.02-.2 1.03 1.03 0 0 1 .3-.71 1 1 0 0 1 .32-.21 1 1 0 0 1 1.09.21 1.2 1.2 0 0 1 .22.33 1 1 0 0 1 .07.38.7.7 0 0 1-.02.2 1 1 0 0 1-.05.18l-.09.18a2 2 0 0 1-.13.15 1 1 0 0 1-.7.29m-24.25 0a.99.99 0 0 1-1-1 1 1 0 0 1 .07-.38 1.2 1.2 0 0 1 .22-.33 1.034 1.034 0 0 1 1.41 0 1.03 1.03 0 0 1 .3.71 1.01 1.01 0 0 1-1 1m24.25 14a1 1 0 0 1-.39-.08 1 1 0 0 1-.32-.21 1.04 1.04 0 0 1-.3-.71 1.4 1.4 0 0 1 .02-.2l.06-.18.09-.18a2 2 0 0 1 .13-.15 1 1 0 0 1 .32-.21 1 1 0 0 1 1.09.21 2 2 0 0 1 .13.15l.09.18a1 1 0 0 1 .05.18.7.7 0 0 1 .02.2 1 1 0 0 1-.07.38 1.2 1.2 0 0 1-.22.33 1 1 0 0 1-.7.29M96 38.13a1.004 1.004 0 0 1-.71-1.71 1.037 1.037 0 0 1 1.42 0 1 1 0 0 1 0 1.41 2 2 0 0 1-.15.13l-.18.09-.18.06a1.4 1.4 0 0 1-.2.02m14-24.25a1.01 1.01 0 0 1-1-1 1 1 0 0 1 .08-.39 1 1 0 0 1 .21-.32 1.047 1.047 0 0 1 1.42 0 1 1 0 0 1 .21.32 1 1 0 0 1 .08.39 1 1 0 0 1-.29.7 1 1 0 0 1-.71.3" class="cls-2"/></g><path d="M103 44a19 19 0 1 1 19-19 19.02 19.02 0 0 1-19 19m0-36a17 17 0 1 0 17 17 17.02 17.02 0 0 0-17-17M5 29H4a1 1 0 0 1 0-2h1a1 1 0 0 1 0 2m55 0h-1a1 1 0 0 1 0-2h1a1 1 0 0 1 0 2" class="cls-2"/><path d="M5 28h54v6H5z" class="cls-3"/><path d="M59 35H5a1 1 0 0 1-1-1v-6a1 1 0 0 1 1-1h54a1 1 0 0 1 1 1v6a1 1 0 0 1-1 1M6 33h52v-4H6Z" class="cls-2"/><path d="m45 8.073 5.694-1.89 6.616 19.93-5.694 1.89z" class="cls-3"/><path d="M51.617 29.004a1 1 0 0 1-.95-.685l-6.616-19.93a1 1 0 0 1 .634-1.265l5.694-1.89a1 1 0 0 1 1.265.634l6.616 19.93a1 1 0 0 1-.634 1.265l-5.694 1.89a1 1 0 0 1-.315.05M46.264 8.708 52.25 26.74l3.797-1.26L50.06 7.446Z" class="cls-2"/><g class="cls-5"><path d="M46.26 12.87a1 1 0 0 1-.315-1.95l5.695-1.89a1 1 0 1 1 .63 1.898l-5.695 1.89a1 1 0 0 1-.315.052m4.096 12.338a1 1 0 0 1-.315-1.95l5.695-1.89a1 1 0 1 1 .63 1.898l-5.695 1.89a1 1 0 0 1-.315.052" class="cls-2"/></g><path d="M39.008 7h6v21h-6z" class="cls-3"/><path d="M45.008 29h-6a1 1 0 0 1-1-1V7a1 1 0 0 1 1-1h6a1 1 0 0 1 1 1v21a1 1 0 0 1-1 1m-5-2h4V8h-4Z" class="cls-2"/><path d="M33.007 6.998h6v21h-6z" class="cls-3"/><path d="M39.006 28.998h-6a1 1 0 0 1-1-1v-21a1 1 0 0 1 1-1h6a1 1 0 0 1 1 1v21a1 1 0 0 1-1 1m-5-2h4v-19h-4Z" class="cls-2"/><path d="M27.007 6.998h6v21h-6z" class="cls-3"/><path d="M33.007 28.998h-6a1 1 0 0 1-1-1v-21a1 1 0 0 1 1-1h6a1 1 0 0 1 1 1v21a1 1 0 0 1-1 1m-5-2h4v-19h-4Z" class="cls-2"/><g class="cls-5"><path d="M33 12h-6a1 1 0 0 1 0-2h6a1 1 0 0 1 0 2m0 13h-6a1 1 0 0 1 0-2h6a1 1 0 0 1 0 2" class="cls-2"/><path d="M39 12h-6a1 1 0 0 1 0-2h6a1 1 0 0 1 0 2m0 13h-6a1 1 0 0 1 0-2h6a1 1 0 0 1 0 2" class="cls-2"/><path d="M45 12h-6a1 1 0 0 1 0-2h6a1 1 0 0 1 0 2m0 13h-6a1 1 0 0 1 0-2h6a1 1 0 0 1 0 2" class="cls-2"/></g><path d="M71 88h-1a1 1 0 0 1 0-2h1a1 1 0 0 1 0 2m55 0h-1a1 1 0 0 1 0-2h1a1 1 0 0 1 0 2" class="cls-2"/><path d="M71 87h54v6H71z" class="cls-3"/><path d="M125 94H71a1 1 0 0 1-1-1v-6a1 1 0 0 1 1-1h54a1 1 0 0 1 1 1v6a1 1 0 0 1-1 1m-53-2h52v-4H72Z" class="cls-2"/><path d="M117.008 66h6v21h-6z" class="cls-3"/><path d="M123.008 88h-6a1 1 0 0 1-1-1V66a1 1 0 0 1 1-1h6a1 1 0 0 1 1 1v21a1 1 0 0 1-1 1m-5-2h4V67h-4Z" class="cls-2"/><path d="M111.007 65.998h6v21h-6z" class="cls-3"/><path d="M117.006 87.998h-6a1 1 0 0 1-1-1v-21a1 1 0 0 1 1-1h6a1 1 0 0 1 1 1v21a1 1 0 0 1-1 1m-5-2h4v-19h-4Z" class="cls-2"/><path d="M105.007 65.998h6v21h-6z" class="cls-3"/><path d="M111.007 87.998h-6a1 1 0 0 1-1-1v-21a1 1 0 0 1 1-1h6a1 1 0 0 1 1 1v21a1 1 0 0 1-1 1m-5-2h4v-19h-4Z" class="cls-2"/><g class="cls-5"><path d="M111 71h-6a1 1 0 0 1 0-2h6a1 1 0 0 1 0 2m0 13h-6a1 1 0 0 1 0-2h6a1 1 0 0 1 0 2" class="cls-2"/><path d="M117 71h-6a1 1 0 0 1 0-2h6a1 1 0 0 1 0 2m0 13h-6a1 1 0 0 1 0-2h6a1 1 0 0 1 0 2" class="cls-2"/><path d="M123 71h-6a1 1 0 0 1 0-2h6a1 1 0 0 1 0 2m0 13h-6a1 1 0 0 1 0-2h6a1 1 0 0 1 0 2" class="cls-2"/></g></g><path d="M64 116.999a1.59 1.59 0 0 1-1.586-1.498l-1.818-31.823a1.59 1.59 0 0 1 1.585-1.68h3.637a1.59 1.59 0 0 1 1.586 1.68L65.586 115.5A1.59 1.59 0 0 1 64 117" class="cls-3"/><path d="M64 117.999a2.59 2.59 0 0 1-2.584-2.44l-1.819-31.824a2.59 2.59 0 0 1 2.585-2.736h3.636a2.59 2.59 0 0 1 2.585 2.735l-1.819 31.825a2.59 2.59 0 0 1-2.584 2.44m-1.818-35a.59.59 0 0 0-.588.622l1.82 31.823a.588.588 0 0 0 1.173 0l1.819-31.823a.59.59 0 0 0-.588-.622Z" class="cls-2"/><path d="M42.16 124.976a1.55 1.55 0 0 1-1.27-1.708l3.645-30.9a1.55 1.55 0 0 1 1.809-1.344l3.496.616a1.55 1.55 0 0 1 1.24 1.883l-7.142 30.282a1.55 1.55 0 0 1-1.778 1.171" class="cls-3"/><path d="M42.431 126a2.6 2.6 0 0 1-.445-.04 2.55 2.55 0 0 1-2.09-2.81l3.646-30.899a2.55 2.55 0 0 1 2.976-2.212l3.496.616a2.55 2.55 0 0 1 2.039 3.097l-7.142 30.283A2.55 2.55 0 0 1 42.43 126m3.642-34a.55.55 0 0 0-.545.486l-3.646 30.9a.55.55 0 0 0 .451.605h.001a.55.55 0 0 0 .63-.415l7.142-30.282a.55.55 0 0 0-.44-.669l-3.496-.616a1 1 0 0 0-.097-.009" class="cls-2"/><path d="M85.84 124.976a1.55 1.55 0 0 0 1.27-1.708l-3.645-30.9a1.55 1.55 0 0 0-1.809-1.344l-3.496.616a1.55 1.55 0 0 0-1.24 1.883l7.142 30.282a1.55 1.55 0 0 0 1.778 1.171" class="cls-3"/><path d="M85.569 126a2.55 2.55 0 0 1-2.48-1.966l-7.142-30.282a2.55 2.55 0 0 1 2.039-3.097l3.496-.616a2.55 2.55 0 0 1 2.976 2.212l3.646 30.9a2.55 2.55 0 0 1-2.09 2.81 2.6 2.6 0 0 1-.445.039m-3.642-34a.5.5 0 0 0-.097.009l-3.497.616a.55.55 0 0 0-.44.668l7.143 30.283a.55.55 0 0 0 .63.415h.001a.55.55 0 0 0 .45-.606l-3.645-30.9a.55.55 0 0 0-.545-.485M64 33a1 1 0 0 1-1-1v-3a1 1 0 0 1 2 0v3a1 1 0 0 1-1 1" class="cls-2"/><path d="M109 33H19a1 1 0 0 1 0-2h90a1 1 0 0 1 0 2" class="cls-2"/><path d="M21 94h86v3H21z" class="cls-3"/><path d="M107 98H21a1 1 0 0 1-1-1v-3a1 1 0 0 1 1-1h86a1 1 0 0 1 1 1v3a1 1 0 0 1-1 1m-85-2h84v-1H22Z" class="cls-2"/><path d="M21 83h86v11H21z" class="cls-3"/><path d="M107 95H21a1 1 0 0 1-1-1V83a1 1 0 0 1 1-1h86a1 1 0 0 1 1 1v11a1 1 0 0 1-1 1m-85-2h84v-9H22Z" class="cls-2"/><path d="M21 36v55h78l8-8.001V36z" class="cls-3"/><path d="M99 92H21a1 1 0 0 1-1-1V36a1 1 0 0 1 1-1h86a1 1 0 0 1 1 1v47a1 1 0 0 1-.293.707l-8 8A1 1 0 0 1 99 92m-77-2h76.585L106 82.585V37H22Z" class="cls-2"/><path d="M99 91v-8h8z" class="cls-3"/><path d="M99 92a1 1 0 0 1-1-1v-8a1 1 0 0 1 1-1h8a1 1 0 0 1 .707 1.707l-8 8A1 1 0 0 1 99 92m1-8v4.586L104.586 84Z" class="cls-2"/><path d="M106 38H22a2 2 0 0 1-2-2v-4h88v4a2 2 0 0 1-2 2" style="fill:none"/><path d="M106 38H22a2 2 0 0 1-2-2v-4h88v4a2 2 0 0 1-2 2" class="cls-2"/><path d="M106 39H22a3.003 3.003 0 0 1-3-3v-4a1 1 0 0 1 1-1h88a1 1 0 0 1 1 1v4a3.003 3.003 0 0 1-3 3m-85-6v3a1 1 0 0 0 1 1h84a1 1 0 0 0 1-1v-3Zm105 39-11-11v7.999h-14a2 2 0 0 1-2-2V59a14 14 0 0 0-14-14 14 14 0 0 0-14 14v9.5a7.5 7.5 0 0 1-7.5 7.5 7.5 7.5 0 0 1-7.5-7.5V59a14 14 0 0 0-14-14 14 14 0 0 0-14 14v2a8 8 0 0 1-8 8H9v6h11a14 14 0 0 0 14-14v-2a8 8 0 0 1 8-8 8 8 0 0 1 8 8v9.5A13.5 13.5 0 0 0 63.5 82 13.5 13.5 0 0 0 77 68.5V59a8 8 0 0 1 8-8 8 8 0 0 1 8 8v8a8 8 0 0 0 8 8h14v8Z" class="cls-2"/><path d="M115 84a1 1 0 0 1-1-1v-7h-13a9.01 9.01 0 0 1-9-9v-8a7 7 0 0 0-14 0v9.5a14.5 14.5 0 0 1-29 0V59a7 7 0 0 0-14 0v2a15.017 15.017 0 0 1-15 15H9a1 1 0 0 1-1-1v-6a1 1 0 0 1 1-1h11a7.01 7.01 0 0 0 7-7v-2a15 15 0 0 1 30 0v9.5a6.5 6.5 0 0 0 13 0V59a15 15 0 0 1 30 0v8a1 1 0 0 0 1 1l13-.001V61a1 1 0 0 1 1.707-.707l11 11a1 1 0 0 1 0 1.414l-11 11A1 1 0 0 1 115 84M42 50a9.01 9.01 0 0 1 9 9v9.5a12.5 12.5 0 0 0 25 0V59a9 9 0 0 1 18 0v8a7.01 7.01 0 0 0 7 7h14a1 1 0 0 1 1 1v5.586L124.586 72 116 63.414V69a1 1 0 0 1-1 1h-14a3.003 3.003 0 0 1-3-3v-8a13 13 0 0 0-26 0v9.5a8.5 8.5 0 0 1-17 0V59a13 13 0 0 0-26 0v2a9.01 9.01 0 0 1-9 9H10v4h10a13.014 13.014 0 0 0 13-13v-2a9.01 9.01 0 0 1 9-9" class="cls-2"/><g class="cls-5"><path d="M39 64a1 1 0 0 1-.707-1.707l6-6a1 1 0 0 1 1.414 1.414l-6 6A1 1 0 0 1 39 64" class="cls-2"/><path d="M45 64a1 1 0 0 1-.707-.293l-6-6a1 1 0 0 1 1.414-1.414l6 6A1 1 0 0 1 45 64m37 0a1 1 0 0 1-.707-1.707l6-6a1 1 0 0 1 1.414 1.414l-6 6A1 1 0 0 1 82 64" class="cls-2"/><path d="M88 64a1 1 0 0 1-.707-.293l-6-6a1 1 0 0 1 1.414-1.414l6 6A1 1 0 0 1 88 64m-27.5 7a1 1 0 0 1-.707-1.707l6-6a1 1 0 0 1 1.414 1.414l-6 6A1 1 0 0 1 60.5 71" class="cls-2"/><path d="M66.5 71a1 1 0 0 1-.707-.293l-6-6a1 1 0 0 1 1.414-1.414l6 6A1 1 0 0 1 66.5 71" class="cls-2"/></g></svg>