<svg xmlns="http://www.w3.org/2000/svg" viewBox="0 0 128 128"><defs><style>.c2,.c4{fill:currentColor}.c3{fill:#fff}.c4{opacity:.5}</style></defs><title/><g style="opacity:.3"><path d="M126.689 47.663a30 30 0 0 0-23.512-25.045 19.7 19.7 0 0 1-10.933-6.549A37.011 37.011 0 0 0 27.99 31.441a21 21 0 0 1-10.882 13.674C2.945 52.473-4.151 71.572 8.758 89.498a16.6 16.6 0 0 0 6.352 4.91 20.58 20.58 0 0 1 10.02 10.875 28.488 28.488 0 0 0 42.623 12.637 20.06 20.06 0 0 1 16.624-2.943 29 29 0 0 0 36.038-33.793 20.08 20.08 0 0 1 2.51-14.131 29.83 29.83 0 0 0 3.764-19.39" class="c2"/><path d="M119.122 48.997a9.034 9.034 0 0 0-17.433-4.155 4.82 4.82 0 0 0-7.814 3.758c0 .139.01.275.021.41A7.192 7.192 0 0 0 96.286 63h20.484a7.193 7.193 0 0 0 2.352-14.003" class="c3"/><path d="M116.77 64H96.285a8.191 8.191 0 0 1-3.404-15.66 5.825 5.825 0 0 1 8.366-4.953A10.038 10.038 0 0 1 120.18 48q0 .17-.006.34A8.192 8.192 0 0 1 116.77 64M98.695 44.8a3.815 3.815 0 0 0-3.82 3.8q.002.164.017.325a1 1 0 0 1-.666 1.03A6.192 6.192 0 0 0 96.286 62h20.484a6.193 6.193 0 0 0 2.027-12.057 1 1 0 0 1-.67-1.056 8.034 8.034 0 0 0-15.503-3.693 1 1 0 0 1-1.556.432 3.8 3.8 0 0 0-2.373-.826" class="c2"/><path d="M116.77 48.6a7.2 7.2 0 0 1 2.371.396" class="c3"/><path d="M119.141 49.997a1 1 0 0 1-.327-.056 6.2 6.2 0 0 0-2.044-.34 1 1 0 1 1 0-2 8.2 8.2 0 0 1 2.698.45 1 1 0 0 1-.327 1.946" class="c2"/><path d="M93.895 49.003a7.3 7.3 0 0 1 2.39-.403" class="c3"/><path d="M93.895 50.003a1 1 0 0 1-.33-1.944 8.2 8.2 0 0 1 2.72-.459 1 1 0 1 1 0 2 6.2 6.2 0 0 0-2.06.347 1 1 0 0 1-.33.056" class="c2"/><path d="M101.657 44.813a4.8 4.8 0 0 1 1.31 1.563" class="c3"/><path d="M102.969 47.376a1 1 0 0 1-.886-.535 3.8 3.8 0 0 0-1.039-1.238 1 1 0 0 1 1.226-1.58 5.85 5.85 0 0 1 1.583 1.888 1 1 0 0 1-.884 1.465" class="c2"/><path d="M96.297 18.081a6.399 6.399 0 0 0-12.348-2.943 3.414 3.414 0 0 0-5.535 2.662q.001.147.015.291A5.095 5.095 0 0 0 80.12 28h14.51a5.095 5.095 0 0 0 1.666-9.919" class="c3"/><path d="M94.631 29h-14.51a6.094 6.094 0 0 1-2.691-11.574 4.42 4.42 0 0 1 6.08-3.695 7.401 7.401 0 0 1 13.828 3.644v.058A6.094 6.094 0 0 1 94.63 29M81.828 15.4a2.41 2.41 0 0 0-2.414 2.4q.002.106.011.21a1 1 0 0 1-.667 1.025A4.095 4.095 0 0 0 80.121 27h14.51a4.095 4.095 0 0 0 1.342-7.973 1 1 0 0 1-.67-1.056 6 6 0 0 0 .035-.596 5.402 5.402 0 0 0-10.454-1.884 1 1 0 0 1-1.555.432 2.4 2.4 0 0 0-1.5-.523" class="c2"/><path d="M94.631 17.8a5.1 5.1 0 0 1 1.68.28" class="c3"/><path d="M96.311 19.081a1 1 0 0 1-.326-.055 4.1 4.1 0 0 0-1.354-.226 1 1 0 0 1 0-2 6.1 6.1 0 0 1 2.006.335 1 1 0 0 1-.326 1.946" class="c2"/><path d="M78.428 18.085a5.1 5.1 0 0 1 1.693-.285" class="c3"/><path d="M78.428 19.086a1 1 0 0 1-.33-1.944 6.1 6.1 0 0 1 2.023-.342 1 1 0 0 1 0 2 4.1 4.1 0 0 0-1.363.23 1 1 0 0 1-.33.056" class="c2"/><path d="M83.926 15.117a3.4 3.4 0 0 1 .929 1.108" class="c3"/><path d="M84.855 17.225a1 1 0 0 1-.886-.535 2.4 2.4 0 0 0-.656-.783 1 1 0 0 1 1.227-1.58 4.4 4.4 0 0 1 1.2 1.432 1 1 0 0 1-.885 1.466" class="c2"/><path d="M28.748 39.665a6.022 6.022 0 0 0-11.622-2.77 3.213 3.213 0 0 0-5.21 2.505q.002.139.015.274A4.795 4.795 0 0 0 13.523 49H27.18a4.795 4.795 0 0 0 1.568-9.335" class="c3"/><path d="M27.18 50H13.523a5.794 5.794 0 0 1-2.588-10.99 4.22 4.22 0 0 1 5.753-3.514A7.025 7.025 0 0 1 29.787 39v.018A5.794 5.794 0 0 1 27.18 50M15.13 37.2a2.21 2.21 0 0 0-2.214 2.2q.001.095.01.188a1 1 0 0 1-.666 1.03A3.795 3.795 0 0 0 13.523 48H27.18a3.795 3.795 0 0 0 1.243-7.39 1 1 0 0 1-.67-1.056 5.023 5.023 0 0 0-9.692-2.306 1 1 0 0 1-1.556.43 2.2 2.2 0 0 0-1.375-.478" class="c2"/><path d="M27.18 39.4a4.8 4.8 0 0 1 1.58.264" class="c3"/><path d="M28.76 40.665a1 1 0 0 1-.325-.056 3.8 3.8 0 0 0-1.255-.21 1 1 0 0 1 0-2 5.8 5.8 0 0 1 1.907.32 1 1 0 0 1-.326 1.946" class="c2"/><path d="M11.93 39.669a4.8 4.8 0 0 1 1.593-.269" class="c3"/><path d="M11.93 40.669a1 1 0 0 1-.33-1.945 5.8 5.8 0 0 1 1.923-.324 1 1 0 0 1 0 2 3.8 3.8 0 0 0-1.264.213 1 1 0 0 1-.33.056" class="c2"/><path d="M17.105 36.875a3.2 3.2 0 0 1 .873 1.042" class="c3"/><path d="M17.98 38.917a1 1 0 0 1-.887-.534 2.2 2.2 0 0 0-.602-.718 1 1 0 0 1 1.227-1.58 4.25 4.25 0 0 1 1.146 1.367 1 1 0 0 1-.885 1.465" class="c2"/><path d="M101 47a1.05 1.05 0 0 1-.71-.29 1 1 0 0 1-.21-.33A1 1 0 0 1 100 46a1.004 1.004 0 1 1 1 1m-3.432 4.001H87.284a1 1 0 0 1 0-2h10.284a1 1 0 1 1 0 2M94.14 47H82.142a1 1 0 0 1 0-2H94.14a1 1 0 0 1 0 2m-13.714 4H77a1 1 0 0 1 0-2h3.426a1 1 0 0 1 0 2m13.714 4.001H80.427a1 1 0 1 1 0-2H94.14a1 1 0 0 1 0 2M18 68a1.05 1.05 0 0 1-.71-.29A1.03 1.03 0 0 1 17 67a1 1 0 0 1 1.71-.71A1 1 0 0 1 19 67a1 1 0 0 1-.29.71A1.03 1.03 0 0 1 18 68m1.001-3.999h-2a1 1 0 0 1 0-2h2a1 1 0 0 1 0 2m3-4.001h-10a1 1 0 1 1 0-2h10a1 1 0 0 1 0 2M13 64H9.001a1 1 0 1 1 0-2h4a1 1 0 0 1 0 2M14 68.001H6a1 1 0 0 1 0-2h8a1 1 0 0 1 0 2" class="c3"/></g><path d="M113.923 18.385a5.55 5.55 0 0 0 3.692 3.692q2.77.923 0 1.846a5.55 5.55 0 0 0-3.692 3.692q-.923 2.77-1.846 0a5.55 5.55 0 0 0-3.692-3.692q-2.77-.923 0-1.846a5.55 5.55 0 0 0 3.692-3.692q.923-2.77 1.846 0M79.462 72.692a2.77 2.77 0 0 0 1.846 1.847q1.384.46 0 .922a2.77 2.77 0 0 0-1.847 1.847q-.46 1.384-.922 0a2.77 2.77 0 0 0-1.847-1.847q-1.384-.461 0-.922a2.77 2.77 0 0 0 1.847-1.847q.461-1.384.922 0M48.77 49.23a2.77 2.77 0 0 0 1.845 1.847q1.385.461 0 .923a2.77 2.77 0 0 0-1.846 1.846q-.461 1.385-.923 0A2.77 2.77 0 0 0 46 52q-1.385-.462 0-.923a2.77 2.77 0 0 0 1.846-1.846q.462-1.385.923 0M37.615 12.923a3.7 3.7 0 0 0 2.462 2.462q1.846.615 0 1.23a3.7 3.7 0 0 0-2.462 2.462q-.615 1.846-1.23 0a3.7 3.7 0 0 0-2.462-2.462q-1.846-.615 0-1.23a3.7 3.7 0 0 0 2.462-2.462q.615-1.846 1.23 0m81 66a3.7 3.7 0 0 0 2.462 2.462q1.846.615 0 1.23a3.7 3.7 0 0 0-2.462 2.462q-.615 1.846-1.23 0a3.7 3.7 0 0 0-2.462-2.462q-1.846-.615 0-1.23a3.7 3.7 0 0 0 2.462-2.462q.615-1.846 1.23 0m-105 1a3.7 3.7 0 0 0 2.462 2.462q1.846.615 0 1.23a3.7 3.7 0 0 0-2.462 2.462q-.615 1.846-1.23 0a3.7 3.7 0 0 0-2.462-2.462q-1.846-.615 0-1.23a3.7 3.7 0 0 0 2.462-2.462q.615-1.846 1.23 0m95 29a3.7 3.7 0 0 0 2.462 2.462q1.846.615 0 1.23a3.7 3.7 0 0 0-2.462 2.462q-.615 1.846-1.23 0a3.7 3.7 0 0 0-2.462-2.462q-1.846-.615 0-1.23a3.7 3.7 0 0 0 2.462-2.462q.615-1.846 1.23 0" class="c2"/><path d="m35 94-5 5-5-5V79h10zm24-17h10v17H59z" class="c3"/><path d="m69 77-5 5-5-5V60h10z" class="c3"/><path d="m69 77-5 5-5-5V60h10z" class="c4"/><path d="m69 60-5 5-5-5V43h10z" class="c2"/><path d="m103 97-5 5-5-5V80h10z" class="c3"/><path d="m103 80-5 5-5-5V63h10z" class="c3"/><path d="m103 80-5 5-5-5V63h10z" class="c4"/><path d="M29.999 115H42.82a1.1 1.1 0 0 0 1.18-1V93a1 1 0 0 0-1-1H29.999Z" class="c3"/><path d="M42.82 116H30a1 1 0 0 1-1-1V92a1 1 0 0 1 1-1h13a2 2 0 0 1 2 2v21a2.1 2.1 0 0 1-2.18 2M31 114h11.82a.27.27 0 0 0 .197-.064L43 93H30.999Z" class="c2"/><path d="M17.18 115h12.819V92H17a1 1 0 0 0-1 1v21a1.1 1.1 0 0 0 1.18 1" class="c3"/><path d="M26 109h-6a1 1 0 0 1 0-2h6a1 1 0 0 1 0 2" class="c4"/><path d="M29.999 116h-12.82A2.1 2.1 0 0 1 15 114V93a2 2 0 0 1 2-2h12.999a1 1 0 0 1 1 1v23a1 1 0 0 1-1 1m-12.982-2.023a1 1 0 0 0 .163.023h11.819V93H17v20.988q.002-.011.017-.01M17 114" class="c2"/><path d="M34.046 99H49l-3.518-6.04a2 2 0 0 0-1.709-.96H30Z" class="c3"/><path d="M49 100H34.046a1 1 0 0 1-.865-.5l-4.047-7A1 1 0 0 1 30 91h13.773a3.02 3.02 0 0 1 2.563 1.44l3.528 6.057A1 1 0 0 1 49 100m-14.376-2H47.26l-2.643-4.537a1 1 0 0 0-.844-.463h-12.04Z" class="c2"/><path d="M25.954 99H11l3.518-6.04a2 2 0 0 1 1.709-.96H30Z" class="c3"/><path d="M25.954 100H11a1 1 0 0 1-.864-1.503l3.518-6.04A3.03 3.03 0 0 1 16.227 91H30a1 1 0 0 1 .866 1.5l-4.047 7a1 1 0 0 1-.865.5M12.74 98h12.636l2.891-5h-12.04a1 1 0 0 0-.854.48Z" class="c2"/><path d="M97.999 115h12.822a1.1 1.1 0 0 0 1.179-1V93a1 1 0 0 0-1-1H97.999Z" class="c3"/><path d="M110.82 116H98a1 1 0 0 1-1-1V92a1 1 0 0 1 1-1h13a2 2 0 0 1 2 2v21a2.1 2.1 0 0 1-2.18 2M99 114h11.821a.27.27 0 0 0 .197-.064L111 93H98.999Z" class="c2"/><path d="M85.18 115h12.819V92H85a1 1 0 0 0-1 1v21a1.1 1.1 0 0 0 1.18 1" class="c3"/><path d="M97.999 116h-12.82A2.1 2.1 0 0 1 83 114V93a2 2 0 0 1 2-2h12.999a1 1 0 0 1 1 1v23a1 1 0 0 1-1 1m-12.982-2.023a1 1 0 0 0 .163.023h11.819V93H85v20.988q.002-.011.017-.01M85 114" class="c2"/><path d="M102.046 99H117l-3.518-6.04a2 2 0 0 0-1.709-.96H98Z" class="c3"/><path d="M117 100h-14.954a1 1 0 0 1-.865-.5l-4.047-7A1 1 0 0 1 98 91h13.773a3.02 3.02 0 0 1 2.563 1.44l3.528 6.057A1 1 0 0 1 117 100m-14.376-2h12.636l-2.643-4.537a1 1 0 0 0-.844-.463h-12.04Z" class="c2"/><path d="M93.954 99H79l3.518-6.04a2 2 0 0 1 1.709-.96H98Z" class="c3"/><path d="M93.954 100H79a1 1 0 0 1-.864-1.503l3.518-6.04A3.03 3.03 0 0 1 84.227 91H98a1 1 0 0 1 .866 1.5l-4.047 7a1 1 0 0 1-.865.5M80.74 98h12.636l2.891-5h-12.04a1 1 0 0 0-.854.48Z" class="c2"/><path d="M94 109h-6a1 1 0 0 1 0-2h6a1 1 0 0 1 0 2" class="c4"/><path d="M63.999 115H76.82a1.1 1.1 0 0 0 1.18-1V93a1 1 0 0 0-1-1H63.999Z" class="c3"/><path d="M76.82 116H64a1 1 0 0 1-1-1V92a1 1 0 0 1 1-1h13a2 2 0 0 1 2 2v21a2.1 2.1 0 0 1-2.18 2M65 114h11.82a.27.27 0 0 0 .197-.064L77 93H64.999Z" class="c2"/><path d="M51.18 115h12.819V92H51a1 1 0 0 0-1 1v21a1.1 1.1 0 0 0 1.18 1" class="c3"/><path d="M63.999 116h-12.82A2.1 2.1 0 0 1 49 114V93a2 2 0 0 1 2-2h12.999a1 1 0 0 1 1 1v23a1 1 0 0 1-1 1m-12.982-2.023a1 1 0 0 0 .163.023h11.819V93H51v20.988q.002-.011.017-.01M51 114" class="c2"/><path d="M68.046 99H83l-3.518-6.04a2 2 0 0 0-1.709-.96H64Z" class="c3"/><path d="M83 100H68.046a1 1 0 0 1-.865-.5l-4.047-7A1 1 0 0 1 64 91h13.773a3.02 3.02 0 0 1 2.563 1.44l3.528 6.057A1 1 0 0 1 83 100m-14.376-2H81.26l-2.643-4.537a1 1 0 0 0-.844-.463h-12.04Z" class="c2"/><path d="M59.954 99H45l3.518-6.04a2 2 0 0 1 1.709-.96H64Z" class="c3"/><path d="M59.954 100H45a1 1 0 0 1-.864-1.503l3.518-6.04A3.03 3.03 0 0 1 50.227 91H64a1 1 0 0 1 .866 1.5l-4.047 7a1 1 0 0 1-.865.5M46.74 98h12.636l2.891-5h-12.04a1 1 0 0 0-.854.48Z" class="c2"/><path d="M60 109h-6a1 1 0 0 1 0-2h6a1 1 0 0 1 0 2" class="c4"/><path d="M26.08 78a7.03 7.03 0 0 0 1.832 6.003L30 86l2.088-1.997A7.03 7.03 0 0 0 33.919 78z" class="c3"/><path d="M28.04 78a3.51 3.51 0 0 0 .916 3.002L30 82l1.044-.998A3.51 3.51 0 0 0 31.96 78z" class="c2"/><path d="M30 87a1 1 0 0 1-.691-.277l-2.088-1.997a8 8 0 0 1-2.13-6.87 1 1 0 1 1 1.98.288 6.05 6.05 0 0 0 1.533 5.136L30 84.616l1.396-1.336a6.05 6.05 0 0 0 1.534-5.136 1 1 0 1 1 1.98-.288 8 8 0 0 1-2.13 6.87l-2.089 1.997A1 1 0 0 1 30 87" class="c2"/><path d="M23.922 72.854a.7.7 0 0 1-.058-.262l-.292-4.813c-2.478 1.073-4.122 2.954-4.28 5.078l-.29 3.91c-.05.671 1.24.918 1.66.315a12.9 12.9 0 0 1 3.627-3.685 1.3 1.3 0 0 1-.367-.543m11.789.543a12.9 12.9 0 0 1 3.627 3.685c.42.603 1.71.356 1.66-.315l-.29-3.91c-.158-2.124-1.802-4.005-4.28-5.078Z" class="c3"/><path d="m36.39 68.35-.25 4.24c0 1.01-1.76 1.84-4.49 2.06v-4.24c2.87-.21 4.74-1.05 4.74-2.06m-8.04 2.06v4.24c-2.73-.22-4.49-1.05-4.49-2.06l-.25-4.24c0 1.01 1.87 1.85 4.74 2.06" class="c2"/><path d="M31.649 75.65a1 1 0 0 1-.08-1.996c2.653-.215 3.508-.935 3.577-1.102a.98.98 0 0 1 .997-.98 1.014 1.014 0 0 1 .997 1.018c0 1.641-2.022 2.784-5.41 3.057zm0-4.24a1 1 0 0 1-.072-1.997c2.554-.187 3.695-.848 3.823-1.12a.97.97 0 0 1 .995-.972 1.02 1.02 0 0 1 .995 1.03c0 1.654-2.119 2.797-5.667 3.057zm-3.298 0-.074-.002c-3.548-.26-5.667-1.403-5.667-3.058a1 1 0 0 1 1.999-.04c.166.282 1.312.92 3.814 1.103a1 1 0 0 1-.072 1.997m-3.741-3.06" class="c2"/><path d="m28.351 75.65-.081-.003c-3.388-.273-5.41-1.416-5.41-3.057l-.248-4.18a1 1 0 1 1 1.996-.119l.25 4.24c.065.188.92.908 3.573 1.123a1 1 0 0 1-.08 1.996" class="c2"/><path d="M36.49 59.15a21 21 0 0 1 .19 4.4l-.29 4.8c0 1.01-1.87 1.85-4.74 2.06v-1.87c0-.62-.98-1.12-1.65-1.12-.68 0-1.65.5-1.65 1.12v1.87c-2.87-.21-4.74-1.05-4.74-2.06l-.29-4.8a19 19 0 0 1-.04-1.31 21.4 21.4 0 0 1 .23-3.09A17.28 17.28 0 0 1 30 47.98a17.28 17.28 0 0 1 6.49 11.17" class="c3"/><path d="M30 53.606a7.3 7.3 0 0 0 4.099-1.035A17 17 0 0 0 30 47.981a17 17 0 0 0-4.099 4.59A7.3 7.3 0 0 0 30 53.606" class="c2"/><path d="M30 67.425c-.911 0-1.65.497-1.65 1.111v7.778c0 .613.739 1.111 1.65 1.111s1.65-.498 1.65-1.111v-7.778c0-.614-.739-1.111-1.65-1.111" class="c3"/><path d="M31.414 57.586a2 2 0 1 1-2.828 0 2 2 0 0 1 2.828 0M19.892 78.423a2.3 2.3 0 0 1-.748-.126 1.59 1.59 0 0 1-1.14-1.604l.291-3.91c.184-2.465 2.008-4.679 4.88-5.922a1 1 0 0 1 .794 1.836c-2.177.942-3.552 2.525-3.68 4.234l-.245 3.293a13.3 13.3 0 0 1 3.721-3.68 1 1 0 0 1 1.047 1.705 11.75 11.75 0 0 0-3.33 3.405 1.9 1.9 0 0 1-1.59.769m20.216 0a1.9 1.9 0 0 1-1.59-.77 11.75 11.75 0 0 0-3.33-3.404 1 1 0 0 1-.157-1.585.4.4 0 0 0 .094-.113c.023-.068.01-.029.01.04l.294-4.872a1 1 0 0 1 1.395-.858c2.873 1.243 4.697 3.456 4.88 5.921l.292 3.911a1.59 1.59 0 0 1-1.14 1.604 2.3 2.3 0 0 1-.748.126m-3.058-5.316a14.7 14.7 0 0 1 2.906 3.117l-.246-3.293a4.82 4.82 0 0 0-2.379-3.535l-.197 3.256a1.5 1.5 0 0 1-.084.455" class="c2"/><path d="M31.649 71.41a1 1 0 0 1-.072-1.997c2.554-.187 3.695-.848 3.823-1.12l.282-4.803a20 20 0 0 0-.18-4.19A16.22 16.22 0 0 0 30 49.267a16.22 16.22 0 0 0-5.5 10.029 20.4 20.4 0 0 0-.22 2.943c0 .417.01.825.038 1.241l.29 4.809c.12.275 1.261.936 3.815 1.123a1 1 0 0 1 .925 1.07 1.01 1.01 0 0 1-1.07.925c-3.55-.26-5.668-1.403-5.668-3.058l-.288-4.74a20 20 0 0 1-.042-1.37 22.5 22.5 0 0 1 .24-3.234 18.18 18.18 0 0 1 6.87-11.818 1 1 0 0 1 1.22 0 18.18 18.18 0 0 1 6.87 11.816 22 22 0 0 1 .198 4.607l-.29 4.8c.002 1.594-2.117 2.737-5.665 2.997z" class="c2"/><path d="M30 78.425a2.4 2.4 0 0 1-2.65-2.111v-7.778A2.4 2.4 0 0 1 30 66.425a2.4 2.4 0 0 1 2.65 2.111v7.778a2.4 2.4 0 0 1-2.65 2.11m-.65-2.186a1.23 1.23 0 0 0 1.3 0V68.61a1.23 1.23 0 0 0-1.3 0ZM30 54.606a8.24 8.24 0 0 1-4.695-1.232 1 1 0 0 1-.257-1.325 18 18 0 0 1 4.34-4.86 1 1 0 0 1 1.224 0 18 18 0 0 1 4.34 4.86 1 1 0 0 1-.257 1.325A8.24 8.24 0 0 1 30 54.606m-2.655-2.412a8.76 8.76 0 0 0 5.31 0A16 16 0 0 0 30 49.27a16 16 0 0 0-2.655 2.924M30 62a3 3 0 0 1-2.121-5.122 3.073 3.073 0 0 1 4.242 0A3 3 0 0 1 30 62m0-4a1 1 0 0 0-.707 1.707 1.02 1.02 0 0 0 1.414 0 1 1 0 0 0 0-1.414A1 1 0 0 0 30 58" class="c2"/><path d="M60.08 42a7.03 7.03 0 0 0 1.832 6.003L64 50l2.088-1.997A7.03 7.03 0 0 0 67.919 42z" class="c3"/><path d="M62.04 42a3.51 3.51 0 0 0 .916 3.002L64 46l1.044-.998A3.51 3.51 0 0 0 65.96 42z" class="c2"/><path d="M64 51a1 1 0 0 1-.691-.277l-2.088-1.997a8 8 0 0 1-2.13-6.87 1 1 0 1 1 1.98.288 6.05 6.05 0 0 0 1.533 5.136L64 48.616l1.396-1.336a6.05 6.05 0 0 0 1.534-5.136 1 1 0 1 1 1.98-.288 8 8 0 0 1-2.13 6.87l-2.089 1.997A1 1 0 0 1 64 51" class="c2"/><path d="M57.922 36.854a.7.7 0 0 1-.058-.262l-.291-4.813c-2.48 1.073-4.123 2.954-4.28 5.078L53 40.767c-.05.671 1.242.918 1.661.315a12.9 12.9 0 0 1 3.627-3.685 1.3 1.3 0 0 1-.367-.543m11.79.543a12.9 12.9 0 0 1 3.627 3.685c.42.603 1.71.356 1.66-.315l-.29-3.91c-.158-2.124-1.802-4.005-4.28-5.078Z" class="c3"/><path d="m70.39 32.35-.25 4.24c0 1.01-1.76 1.84-4.49 2.06v-4.24c2.87-.21 4.74-1.05 4.74-2.06m-8.04 2.06v4.24c-2.73-.22-4.49-1.05-4.49-2.06l-.25-4.24c0 1.01 1.87 1.85 4.74 2.06" class="c2"/><path d="M65.649 39.65a1 1 0 0 1-.08-1.996c2.653-.215 3.508-.935 3.577-1.102a.98.98 0 0 1 .997-.98 1.014 1.014 0 0 1 .997 1.018c0 1.641-2.022 2.784-5.41 3.057zm0-4.24a1 1 0 0 1-.072-1.997c2.554-.187 3.695-.848 3.823-1.12a.97.97 0 0 1 .995-.972 1.02 1.02 0 0 1 .995 1.03c0 1.654-2.119 2.797-5.667 3.057zm-3.298 0-.074-.002c-3.548-.26-5.667-1.403-5.667-3.058a1 1 0 0 1 1.999-.04c.166.282 1.312.92 3.814 1.103a1 1 0 0 1-.072 1.997m-3.741-3.06" class="c2"/><path d="m62.351 39.65-.081-.003c-3.388-.273-5.41-1.416-5.41-3.057l-.248-4.18a1 1 0 1 1 1.996-.119l.25 4.24c.065.188.92.908 3.573 1.123a1 1 0 0 1-.08 1.996" class="c2"/><path d="M70.49 23.15a21 21 0 0 1 .19 4.4l-.29 4.8c0 1.01-1.87 1.85-4.74 2.06v-1.87c0-.62-.98-1.12-1.65-1.12-.68 0-1.65.5-1.65 1.12v1.87c-2.87-.21-4.74-1.05-4.74-2.06l-.29-4.8a19 19 0 0 1-.04-1.31 21.4 21.4 0 0 1 .23-3.09A17.28 17.28 0 0 1 64 11.98a17.28 17.28 0 0 1 6.49 11.17" class="c3"/><path d="M64 17.606a7.3 7.3 0 0 0 4.099-1.035A17 17 0 0 0 64 11.981a17 17 0 0 0-4.099 4.59A7.3 7.3 0 0 0 64 17.606" class="c2"/><path d="M64 31.425c-.911 0-1.65.497-1.65 1.111v7.778c0 .613.739 1.111 1.65 1.111s1.65-.497 1.65-1.111v-7.778c0-.614-.739-1.111-1.65-1.111" class="c3"/><path d="M65.414 21.586a2 2 0 1 1-2.828 0 2 2 0 0 1 2.828 0M53.892 42.423a2.3 2.3 0 0 1-.748-.126 1.59 1.59 0 0 1-1.14-1.604l.291-3.91c.184-2.465 2.008-4.679 4.88-5.922a1 1 0 0 1 .794 1.836c-2.177.942-3.552 2.525-3.68 4.234l-.244 3.293a13.3 13.3 0 0 1 3.72-3.68 1 1 0 0 1 1.047 1.705 11.75 11.75 0 0 0-3.33 3.405 1.9 1.9 0 0 1-1.59.769m20.216 0a1.9 1.9 0 0 1-1.59-.77 11.75 11.75 0 0 0-3.33-3.404 1 1 0 0 1-.157-1.585.4.4 0 0 0 .094-.113c.023-.068.01-.029.01.04l.294-4.872a1 1 0 0 1 1.395-.858c2.873 1.243 4.697 3.456 4.88 5.921l.292 3.911a1.59 1.59 0 0 1-1.14 1.604 2.3 2.3 0 0 1-.748.126m-3.058-5.316a14.7 14.7 0 0 1 2.906 3.117l-.246-3.293a4.82 4.82 0 0 0-2.379-3.535l-.197 3.256a1.5 1.5 0 0 1-.084.455" class="c2"/><path d="M65.649 35.41a1 1 0 0 1-.072-1.997c2.554-.187 3.695-.848 3.823-1.12l.282-4.803a20 20 0 0 0-.18-4.19A16.22 16.22 0 0 0 64 13.267a16.22 16.22 0 0 0-5.5 10.029 20.4 20.4 0 0 0-.22 2.943c0 .417.01.825.038 1.241l.29 4.809c.12.275 1.261.936 3.815 1.123a1 1 0 0 1 .925 1.07 1.01 1.01 0 0 1-1.07.925c-3.55-.26-5.668-1.403-5.668-3.058l-.288-4.74a20 20 0 0 1-.042-1.37 22.5 22.5 0 0 1 .24-3.234 18.18 18.18 0 0 1 6.87-11.818 1 1 0 0 1 1.22 0 18.18 18.18 0 0 1 6.87 11.816 22 22 0 0 1 .198 4.607l-.29 4.8c.002 1.594-2.117 2.737-5.665 2.997z" class="c2"/><path d="M64 42.425a2.4 2.4 0 0 1-2.65-2.111v-7.778a2.719 2.719 0 0 1 5.3 0v7.778a2.4 2.4 0 0 1-2.65 2.11m-.65-2.186a1.23 1.23 0 0 0 1.3 0V32.61a1.23 1.23 0 0 0-1.3 0ZM64 18.606a8.24 8.24 0 0 1-4.695-1.232 1 1 0 0 1-.257-1.325 18 18 0 0 1 4.34-4.86 1 1 0 0 1 1.224 0 18 18 0 0 1 4.34 4.86 1 1 0 0 1-.257 1.325A8.24 8.24 0 0 1 64 18.606m-2.655-2.412a8.76 8.76 0 0 0 5.31 0A16 16 0 0 0 64 13.27a16 16 0 0 0-2.655 2.924M64 26a3 3 0 0 1-2.121-5.122 3.073 3.073 0 0 1 4.242 0A3 3 0 0 1 64 26m0-4a1 1 0 0 0-.707 1.707 1.02 1.02 0 0 0 1.414 0 1 1 0 0 0 0-1.414A1 1 0 0 0 64 22" class="c2"/><path d="M94.08 62.02a7.03 7.03 0 0 0 1.832 6.002L98 70.02l2.088-1.998a7.03 7.03 0 0 0 1.831-6.002z" class="c3"/><path d="M96.04 62.02a3.51 3.51 0 0 0 .916 3.001L98 66.02l1.044-.999a3.51 3.51 0 0 0 .916-3.001z" class="c2"/><path d="M98 71.02a1 1 0 0 1-.691-.277l-2.088-1.998a8 8 0 0 1-2.13-6.869 1 1 0 1 1 1.98.288 6.05 6.05 0 0 0 1.533 5.136L98 68.636l1.396-1.336a6.05 6.05 0 0 0 1.534-5.136 1 1 0 1 1 1.98-.288 8 8 0 0 1-2.13 6.87l-2.089 1.997a1 1 0 0 1-.691.277" class="c2"/><path d="M91.922 56.874a.7.7 0 0 1-.058-.262l-.292-4.813c-2.478 1.072-4.122 2.954-4.28 5.077l-.29 3.911c-.05.671 1.24.918 1.66.315a12.9 12.9 0 0 1 3.627-3.686 1.3 1.3 0 0 1-.367-.542m11.789.542a12.9 12.9 0 0 1 3.627 3.686c.42.603 1.71.356 1.66-.315l-.29-3.91c-.158-2.124-1.802-4.005-4.28-5.078Z" class="c3"/><path d="m104.39 52.37-.25 4.24c0 1.01-1.76 1.84-4.49 2.06v-4.24c2.87-.21 4.74-1.05 4.74-2.06m-8.04 2.06v4.24c-2.73-.22-4.49-1.05-4.49-2.06l-.25-4.24c0 1.01 1.87 1.85 4.74 2.06" class="c2"/><path d="M99.649 59.67a1 1 0 0 1-.08-1.997c2.653-.214 3.508-.934 3.577-1.101a.98.98 0 0 1 .997-.981 1.014 1.014 0 0 1 .997 1.019c0 1.641-2.022 2.784-5.41 3.056zm0-4.24a1 1 0 0 1-.072-1.997c2.554-.187 3.694-.848 3.823-1.12a.97.97 0 0 1 .995-.972 1.02 1.02 0 0 1 .995 1.03c0 1.654-2.119 2.797-5.667 3.057zm-3.298 0-.074-.002c-3.548-.26-5.667-1.403-5.667-3.058a1 1 0 0 1 1.999-.04c.167.282 1.313.92 3.814 1.103a1 1 0 0 1-.072 1.997m-3.741-3.06" class="c2"/><path d="m96.351 59.67-.081-.004c-3.388-.272-5.41-1.414-5.41-3.056l-.248-4.18a1 1 0 1 1 1.996-.119l.25 4.24c.065.188.92.908 3.572 1.122a1 1 0 0 1-.079 1.997" class="c2"/><path d="M104.49 43.17a21 21 0 0 1 .19 4.4l-.29 4.8c0 1.01-1.87 1.85-4.74 2.06v-1.87c0-.62-.98-1.12-1.65-1.12-.68 0-1.65.5-1.65 1.12v1.87c-2.87-.21-4.74-1.05-4.74-2.06l-.29-4.8a19 19 0 0 1-.04-1.31 21.4 21.4 0 0 1 .23-3.09A17.28 17.28 0 0 1 98 32a17.28 17.28 0 0 1 6.49 11.17" class="c3"/><path d="M98 37.626a7.3 7.3 0 0 0 4.099-1.035A17 17 0 0 0 98 32a17 17 0 0 0-4.099 4.59A7.3 7.3 0 0 0 98 37.626" class="c2"/><path d="M98 51.445c-.911 0-1.65.497-1.65 1.11v7.779c0 .613.739 1.11 1.65 1.11s1.65-.497 1.65-1.11v-7.778c0-.614-.739-1.111-1.65-1.111" class="c3"/><circle cx="98" cy="43.02" r="2" class="c2"/><path d="M87.892 62.442a2.3 2.3 0 0 1-.748-.125 1.59 1.59 0 0 1-1.14-1.604l.291-3.91c.183-2.465 2.007-4.678 4.88-5.922a1 1 0 0 1 .794 1.836c-2.177.942-3.553 2.525-3.68 4.234l-.245 3.293a13.3 13.3 0 0 1 3.721-3.68 1 1 0 0 1 1.047 1.705 11.8 11.8 0 0 0-3.33 3.404 1.9 1.9 0 0 1-1.59.77m20.216-.001a1.9 1.9 0 0 1-1.591-.77 11.8 11.8 0 0 0-3.329-3.404 1 1 0 0 1-.157-1.585.4.4 0 0 0 .094-.112c.032-.089.01-.02.01.04l.294-4.873a1 1 0 0 1 1.395-.857c2.873 1.243 4.698 3.457 4.88 5.921l.292 3.91a1.59 1.59 0 0 1-1.14 1.605 2.3 2.3 0 0 1-.748.125m-3.058-5.315a14.7 14.7 0 0 1 2.906 3.117l-.246-3.293a4.83 4.83 0 0 0-2.379-3.535l-.197 3.256a1.5 1.5 0 0 1-.084.455" class="c2"/><path d="M99.649 55.43a1 1 0 0 1-.072-1.997c2.554-.187 3.694-.848 3.823-1.12l.282-4.804a20 20 0 0 0-.18-4.19A16.22 16.22 0 0 0 98 33.287a16.22 16.22 0 0 0-5.5 10.03 20.4 20.4 0 0 0-.22 2.943c0 .417.01.824.038 1.241l.29 4.81c.12.274 1.261.935 3.815 1.122a1 1 0 0 1 .925 1.07 1.02 1.02 0 0 1-1.07.925c-3.55-.26-5.668-1.403-5.668-3.058l-.288-4.74a20 20 0 0 1-.042-1.37 22.5 22.5 0 0 1 .24-3.235 18.18 18.18 0 0 1 6.87-11.817 1 1 0 0 1 1.22 0 18.18 18.18 0 0 1 6.87 11.815 22 22 0 0 1 .198 4.608l-.29 4.8c.002 1.594-2.116 2.737-5.665 2.997z" class="c2"/><path d="M98 62.445a2.4 2.4 0 0 1-2.65-2.112v-7.777a2.719 2.719 0 0 1 5.3 0v7.778a2.4 2.4 0 0 1-2.65 2.11m-.65-2.186a1.23 1.23 0 0 0 1.3 0V52.63a1.23 1.23 0 0 0-1.3 0ZM98 38.625a8.24 8.24 0 0 1-4.695-1.231 1 1 0 0 1-.257-1.325 18 18 0 0 1 4.34-4.86 1 1 0 0 1 1.224 0 18 18 0 0 1 4.34 4.86 1 1 0 0 1-.257 1.325A8.24 8.24 0 0 1 98 38.625m-2.654-2.412a8.75 8.75 0 0 0 5.308 0A16 16 0 0 0 98 33.29a16 16 0 0 0-2.654 2.923M98 46.02a3 3 0 0 1-2.121-5.122 3.07 3.07 0 0 1 4.242 0A3 3 0 0 1 98 46.02m0-4a1 1 0 0 0-.707 1.707 1.025 1.025 0 0 0 1.414 0A1 1 0 0 0 98 42.02" class="c2"/></svg>