<svg xmlns="http://www.w3.org/2000/svg" viewBox="0 0 128 128"><defs><style>.cls-1,.cls-6,.cls-7{opacity:.3}.cls-2,.cls-4,.cls-6{fill:currentColor}.cls-3,.cls-7{fill:#fff}.cls-4,.cls-5{opacity:.5}</style></defs><title/><g class="cls-1"><path d="M2.527 84.888a30 30 0 0 0 26.317 22.079 19.7 19.7 0 0 1 11.632 5.205 37.011 37.011 0 0 0 61.977-22.886 21.01 21.01 0 0 1 9.183-14.868c13.19-8.987 17.97-28.795 3.026-45.06a16.6 16.6 0 0 0-6.89-4.122 20.58 20.58 0 0 1-11.24-9.61 28.488 28.488 0 0 0-43.821-7.491 20.06 20.06 0 0 1-16.158 4.894A29 29 0 0 0 4.78 50.859a20.08 20.08 0 0 1-.815 14.329 29.83 29.83 0 0 0-1.437 19.7M90.22 126.001h-.998a1 1 0 0 1 0-2h.998a1 1 0 0 1 0 2M39.214 126.001h-.151a1 1 0 0 1 0-2h.15a1 1 0 1 1 0 2" class="cls-2"/><path d="M86.227 126.001H42.214a1 1 0 0 1 0-2h44.013a1 1 0 0 1 0 2M85.22 116.001H47.222a1 1 0 1 1 0-2H85.22a1 1 0 0 1 0 2M117.22 116.001H88.222a1 1 0 0 1 0-2h28.998a1 1 0 0 1 0 2M12.214 116.001h-6a1 1 0 1 1 0-2h6a1 1 0 0 1 0 2M44.227 116.001H15.214a1 1 0 0 1 0-2h29.013a1 1 0 1 1 0 2M114.22 106.001H37.222a1 1 0 1 1 0-2h76.998a1 1 0 0 1 0 2M127.222 106.001H117.22a1 1 0 0 1 0-2h10.002a1 1 0 1 1 0 2M1.215 106.001H1.06a1 1 0 1 1 0-2h.155a1 1 0 0 1 0 2M34.227 106.001H4.214a1 1 0 0 1 0-2h30.013a1 1 0 1 1 0 2" class="cls-2"/><path d="M91.404 69.898H75.033v2.865h-4.775L69.003 62.19a7 7 0 0 1 0-1.777l.92-7.744a4.99 4.99 0 0 1 2.825-3.976l4.952-2.27c.505 1.64 2.947 3.023 5.498 3.023a6.05 6.05 0 0 0 5.464-3.131l.054-.007 5.02 2.378a5.01 5.01 0 0 1 2.777 3.947l.921 7.78a7 7 0 0 1 0 1.777l-1.255 10.573h-4.775Z" class="cls-3"/><path d="M91.404 69.898H75.033v2.865h-4.775L69.003 62.19a7 7 0 0 1 0-1.777l.92-7.744a4.99 4.99 0 0 1 2.825-3.976l4.952-2.27c.505 1.64 2.947 3.023 5.498 3.023a6.05 6.05 0 0 0 5.464-3.131l.054-.007 5.02 2.378a5.01 5.01 0 0 1 2.777 3.947l.921 7.78a7 7 0 0 1 0 1.777l-1.255 10.573h-4.775Z" class="cls-4"/><path d="M74.167 72.763H70.22l-.367-3.582h4.314zM92.318 72.763l3.95.112.387-3.694h-4.337zM87.89 43.686a2.13 2.13 0 0 0 .936 2.63c-.725 1.65-3.535 2.546-5.499 3.132-1.963-.586-4.995-1.387-5.498-3.025a2.225 2.225 0 0 0 .924-2.737ZM70.218 73h4v5.6h-.637a3.363 3.363 0 0 1-3.363-3.363z" class="cls-3"/><path d="M74.219 79.6h-.638a4.367 4.367 0 0 1-4.362-4.363V73a1 1 0 0 1 1-1h4a1 1 0 0 1 1 1v5.6a1 1 0 0 1-1 1m-3-5.6v1.237a2.37 2.37 0 0 0 2 2.335V74Z" class="cls-2"/><path d="M92.856 78.6h-.638V73h4v2.237a3.363 3.363 0 0 1-3.362 3.363" class="cls-3"/><path d="M92.855 79.6h-.636a1 1 0 0 1-1-1V73a1 1 0 0 1 1-1h4a1 1 0 0 1 1 1v2.237a4.37 4.37 0 0 1-4.364 4.363m.364-5.6v3.572a2.37 2.37 0 0 0 2-2.335V74ZM92.219 70.898a1 1 0 0 1-1-1V57.414a2.43 2.43 0 0 0-.707-1.707 1 1 0 1 1 1.414-1.414 4.44 4.44 0 0 1 1.293 3.121v12.484a1 1 0 0 1-1 1M74.219 70.898a1 1 0 0 1-1-1V57.414a4.38 4.38 0 0 1 1.293-3.122 1 1 0 0 1 1.414 1.415 2.4 2.4 0 0 0-.707 1.707v12.484a1 1 0 0 1-1 1" class="cls-2"/><path d="M96.179 74h-4.775a1 1 0 0 1 0-2h3.884l1.152-9.925a6 6 0 0 0 .001-1.535l-.921-7.789a4.03 4.03 0 0 0-2.21-3.161l-5.021-2.379a1 1 0 0 1 .855-1.807l5.021 2.378a6.05 6.05 0 0 1 3.34 4.73l.922 7.783a8 8 0 0 1-.001 2.022l-1.254 10.798a1 1 0 0 1-.993.885M75.033 74h-4.775a1 1 0 0 1-.993-.885l-1.255-10.81a8 8 0 0 1 0-2.019l.92-7.735a6.02 6.02 0 0 1 3.4-4.766l4.953-2.272q.05-.022.1-.04a1.01 1.01 0 0 1 1.276.63.99.99 0 0 1-.585 1.248l-4.909 2.252a4 4 0 0 0-2.248 3.182l-.92 7.746a6 6 0 0 0-.002 1.532L71.148 72h3.885a1 1 0 0 1 0 2" class="cls-2"/><path d="M83.326 50.445c-2.975 0-5.81-1.637-6.454-3.729a1 1 0 0 1 .426-1.141 1.44 1.44 0 0 0 .538-1.646 1 1 0 0 1 1.84-.785 3.33 3.33 0 0 1-.614 3.51 5.56 5.56 0 0 0 4.264 1.791 5.34 5.34 0 0 0 4.206-1.954 3.44 3.44 0 0 1-.565-3.49 1 1 0 1 1 1.845.77 1.55 1.55 0 0 0 .55 1.723 1 1 0 0 1 .344 1.223 7.07 7.07 0 0 1-6.38 3.728" class="cls-2"/><path d="M74.218 104h7V77h4v27h7V69.898h-18z" class="cls-3"/><path d="M74.218 104h7V77h4v27h7V69.898h-18z" class="cls-4"/><path d="M74.219 75.7a1 1 0 0 1-.705-1.709l4.829-4.802a1 1 0 1 1 1.41 1.418l-4.83 4.802a1 1 0 0 1-.704.291M92.143 75.396a1 1 0 0 1-.707-.293l-4.499-4.498a1 1 0 0 1 1.415-1.414l4.498 4.498a1 1 0 0 1-.707 1.707" class="cls-2"/><path d="M92.219 105h-7a1 1 0 0 1-1-1V78h-2v26a1 1 0 0 1-1 1h-7a1 1 0 0 1-1-1V69.898a1 1 0 0 1 1-1h18a1 1 0 0 1 1 1V104a1 1 0 0 1-1 1m-6-2h5V70.898h-16V103h5V77a1 1 0 0 1 1-1h4a1 1 0 0 1 1 1Z" class="cls-2"/><path d="M96.219 70h-4a1 1 0 0 1 0-2h4a1 1 0 0 1 0 2M74.219 70h-3.767a1 1 0 0 1 0-2h3.767a1 1 0 0 1 0 2M69.064 62.302a1 1 0 0 1-.336-1.942l1.716-.614a1 1 0 0 1 .674 1.883l-1.717.614a1 1 0 0 1-.337.059M97.373 62.302a1 1 0 0 1-.329-.056l-1.626-.567a1 1 0 1 1 .658-1.888l1.626.566a1 1 0 0 1-.329 1.945" class="cls-2"/><path d="M76.917 99.91h.602a3.7 3.7 0 0 1 3.7 3.698V105H73.89a.673.673 0 0 1-.673-.672v-.72a3.7 3.7 0 0 1 3.7-3.699" class="cls-3"/><path d="M81.219 106H73.89a1.674 1.674 0 0 1-1.672-1.672v-.72a4.704 4.704 0 0 1 4.698-4.699h.603a4.705 4.705 0 0 1 4.699 4.699V105a1 1 0 0 1-1 1m-7-2h6v-.392a2.7 2.7 0 0 0-2.7-2.699h-.602a2.7 2.7 0 0 0-2.698 2.699Z" class="cls-2"/><path d="M88.917 99.91h.602a3.7 3.7 0 0 1 3.7 3.698v.72a.673.673 0 0 1-.673.672h-7.328v-1.392a3.7 3.7 0 0 1 3.7-3.699" class="cls-3"/><path d="M92.546 106h-7.327a1 1 0 0 1-1-1v-1.392a4.704 4.704 0 0 1 4.698-4.699h.603a4.705 4.705 0 0 1 4.699 4.699v.72A1.674 1.674 0 0 1 92.546 106m-6.327-2h6v-.392a2.7 2.7 0 0 0-2.7-2.699h-.602a2.7 2.7 0 0 0-2.698 2.699Z" class="cls-2"/><path d="M84.323 45h-2.209a4.3 4.3 0 0 1-3.028-1.242l-2.614-2.588a4.22 4.22 0 0 1-1.254-2.998v-7.34c0-6.177 16-6.177 16 0v7.34a4.22 4.22 0 0 1-1.254 2.998l-2.614 2.588A4.3 4.3 0 0 1 84.323 45" class="cls-3"/><path d="M84.323 46h-2.209a5.27 5.27 0 0 1-3.731-1.53l-2.614-2.59a5.26 5.26 0 0 1-1.55-3.708v-7.34c0-3.87 4.665-5.633 9-5.633s9 1.763 9 5.634v7.339a5.18 5.18 0 0 1-1.552 3.709l-2.612 2.588A5.34 5.34 0 0 1 84.323 46M83.22 27.2c-3.479 0-7 1.247-7 3.633v7.339a3.2 3.2 0 0 0 .958 2.287l2.613 2.589a3.28 3.28 0 0 0 2.324.952h2.21a3.32 3.32 0 0 0 2.323-.952l2.613-2.589a3.2 3.2 0 0 0 .959-2.287v-7.34a2.98 2.98 0 0 0-1.958-2.585 11.5 11.5 0 0 0-5.042-1.048" class="cls-2"/><path d="M88.398 23.957c2.302 1.065 4.259 2.246 4.261 5.524a11.4 11.4 0 0 1-.253 2.28c-.145.71-1.18.39-1.18.39s-.04-1.906-1.402-2.452c-3.523-1.412-9.254 1.066-13.13-1.561a3.57 3.57 0 0 1-1.17 2.842s-1.361-.005-1.447-.78c-.39-3.512 1.056-5.072 2.617-4.682 3.901-3.902 10.32-2.202 11.704-1.561" class="cls-3"/><path d="M91.713 33.224a2.8 2.8 0 0 1-.781-.118 1 1 0 0 1-.703-.892 2.3 2.3 0 0 0-.9-1.646c-.988-.564-2.674-.44-4.458-.308-2.305.17-4.903.362-7.369-.668a5.2 5.2 0 0 1-1.191 2.006 1.07 1.07 0 0 1-.789.382h-.002c-1.12-.004-2.31-.522-2.438-1.67-.26-2.348.213-4.18 1.333-5.158a2.73 2.73 0 0 1 1.941-.691c4.211-3.776 10.37-2.33 12.444-1.42 2.209.968 4.757 2.572 4.86 6.414a11 11 0 0 1-.274 2.505 1.52 1.52 0 0 1-.716 1.021 1.86 1.86 0 0 1-.957.243m-4.643-5.076a6.47 6.47 0 0 1 3.25.683 3.5 3.5 0 0 1 1.317 1.352 6 6 0 0 0 .022-.676c-.067-2.543-1.513-3.692-3.662-4.634-1.667-.731-7.193-2.052-10.596 1.352a1 1 0 0 1-.949.263.75.75 0 0 0-.72.17c-.445.388-.847 1.441-.681 3.245l.052.015a2.36 2.36 0 0 0 .529-1.102 1.65 1.65 0 0 1 .875-1.171 1.67 1.67 0 0 1 1.48-.025c2.102.988 4.457.814 6.738.646.805-.06 1.593-.118 2.345-.118M83.41 38.827a1.84 1.84 0 0 1-1.139-.49 1 1 0 0 1 1.145-1.625 1.02 1.02 0 0 1 1.19.228.98.98 0 0 1-.06 1.397 1.84 1.84 0 0 1-1.137.49M83.33 42a3.6 3.6 0 0 1-2.089-.527 1.035 1.035 0 0 1-.483-1.36.97.97 0 0 1 1.307-.47c.068.032.137.073.215.12a1.7 1.7 0 0 0 1.05.237 1.9 1.9 0 0 0 1.097-.227 1 1 0 0 1 1.289 1.53A3.58 3.58 0 0 1 83.33 42M79.406 33.512a1.358 1.358 0 1 0 1.359 1.358 1.36 1.36 0 0 0-1.359-1.358M87.286 33.512a1.358 1.358 0 1 0 1.358 1.358 1.36 1.36 0 0 0-1.358-1.358" class="cls-2"/><path d="M5.946 51.73V32.595A9.837 9.837 0 0 1 16 22.54a9.837 9.837 0 0 1 10.054 10.054V51.73Z" class="cls-3"/><path d="M6 33.042h20v3.208H6z" class="cls-3"/><path d="M26.054 52.73H5.946a1 1 0 0 1-1-1V32.595A10.81 10.81 0 0 1 16 21.54a10.81 10.81 0 0 1 11.054 11.054V51.73a1 1 0 0 1-1 1m-19.108-2h18.108V32.595A8.856 8.856 0 0 0 16 23.54a8.856 8.856 0 0 0-9.054 9.054Z" class="cls-2"/><path d="M17.392 86.362v2.864c0 6.444 3.58 13.604 3.58 13.604l.716 1.432a84.6 84.6 0 0 0 .76-17.9ZM14.738 86.362s-.044 1.432-.044 2.864a26 26 0 0 1-3.58 12.172l-.716 2.864a86.5 86.5 0 0 1-.716-17.9Z" class="cls-3"/><path d="M21.688 105.262a1 1 0 0 1-.895-.553l-.716-1.432c-.15-.301-3.685-7.447-3.685-14.051V86.36a1 1 0 0 1 2 0v2.865c0 4.345 1.724 9.1 2.744 11.528a88 88 0 0 0 .313-14.33 1 1 0 0 1 .936-1.06.99.99 0 0 1 1.06.935 84.8 84.8 0 0 1-.772 18.136 1 1 0 0 1-.841.816 1 1 0 0 1-.145.01M10.231 105.262l-.038-.001a1 1 0 0 1-.948-.832 86.8 86.8 0 0 1-.727-18.13 1 1 0 1 1 1.996.125 90 90 0 0 0 .191 13.348 24.4 24.4 0 0 0 2.822-10.546c0-1.448.044-2.895.044-2.895a1 1 0 0 1 1-.97h.03a1 1 0 0 1 .97 1.031c0 .005-.044 1.42-.044 2.834a26.75 26.75 0 0 1-3.645 12.561l-.68 2.717a1 1 0 0 1-.97.758" class="cls-2"/><path d="M10.232 104.978h-3.58v-1.29l1.432-1.574 1.432-4.297h3.58v4.297a2.864 2.864 0 0 1-2.864 2.864M21.688 104.978h3.58v-1.29l-1.432-1.574-1.432-4.297h-3.58v4.297a2.864 2.864 0 0 0 2.864 2.864" class="cls-3"/><path d="M10.231 105.978h-3.58a1 1 0 0 1-1-1v-1.29a1 1 0 0 1 .261-.673l1.29-1.418L8.567 97.5a1 1 0 0 1 .949-.684h3.58a1 1 0 0 1 1 1v4.296a3.87 3.87 0 0 1-3.865 3.865m-2.49-2h2.49a1.866 1.866 0 0 0 1.865-1.865v-3.296h-1.86l-1.204 3.612a1 1 0 0 1-.209.357ZM25.268 105.978h-3.58a3.87 3.87 0 0 1-3.864-3.865v-4.296a1 1 0 0 1 1-1h3.58a1 1 0 0 1 .948.684l1.366 4.096 1.29 1.418a1 1 0 0 1 .26.673v1.29a1 1 0 0 1-1 1m-5.444-7.16v3.295a1.866 1.866 0 0 0 1.863 1.865h2.493l-1.084-1.192a1 1 0 0 1-.208-.356l-1.205-3.613Z" class="cls-2"/><path d="M10.231 103.113H8.084a1 1 0 1 1 0-2h2.147a1 1 0 0 1 0 2M23.836 103.113h-2.148a1 1 0 0 1 0-2h2.148a1 1 0 0 1 0 2" class="cls-2"/><path d="m21.455 46.423.02.007.597.286a11.44 11.44 0 0 1 6.242 7.88l1.936 8.866-5.213.013-1.201-4.978c.716 2.088-.716 4.427-.63 7.264a45.8 45.8 0 0 1-14.006 0c.316-2.837-1.52-3.723-.865-7.264l-.816 5.02-5.4-.008 1.58-8.617a11.44 11.44 0 0 1 6.35-8.274l.395-.188.02-.007c1.916 4.138 9.076 4.138 10.99 0" class="cls-3"/><g class="cls-5"><path d="m8.335 61.204-.009.052v.002z" class="cls-3"/></g><path d="M23.207 65.76c3.493 4.324 4.487 12.585 5.64 19.17 0 1.909-25.06 1.909-25.06 0C4.77 78.895 5.937 70.8 9.2 65.76a46 46 0 0 0 14.007 0" class="cls-3"/><path d="M7.032 63.593 5.936 73.997l-.609-.02c-1.316-.044-2.714-2.203-1.736-4.893a23.8 23.8 0 0 1-.735-5.51" class="cls-3"/><path d="M5.938 74.998h-.035l-.609-.021a2.9 2.9 0 0 1-2.246-1.39 5.31 5.31 0 0 1-.504-4.522 27 27 0 0 1-.687-5.441 1 1 0 0 1 .95-1.048 1.02 1.02 0 0 1 1.049.95 23.5 23.5 0 0 0 .69 5.258 1 1 0 0 1-.015.642 3.32 3.32 0 0 0 .174 3.04 1.6 1.6 0 0 0 .348.377l.985-9.355a1 1 0 1 1 1.988.21L6.931 74.101a1 1 0 0 1-.993.896" class="cls-2"/><path d="M4.46 70.11a1 1 0 0 1-.099-.005l-.821-.081a1 1 0 1 1 .197-1.99l.822.081a1 1 0 0 1-.098 1.995" class="cls-2"/><path d="M25.696 63.593 26.7 73.997l.61-.02c1.315-.044 2.806-2.203 1.827-4.893a23.8 23.8 0 0 0 .736-5.51" class="cls-3"/><path d="M26.7 74.998a1 1 0 0 1-.995-.904l-1.004-10.405a1 1 0 1 1 1.99-.192l.903 9.347a1.7 1.7 0 0 0 .405-.43 3.34 3.34 0 0 0 .2-2.989 1 1 0 0 1-.015-.64 23.6 23.6 0 0 0 .69-5.26.977.977 0 0 1 1.049-.949 1 1 0 0 1 .95 1.048 27 27 0 0 1-.687 5.441 5.26 5.26 0 0 1-.53 4.47 3 3 0 0 1-2.313 1.442l-.61.02Z" class="cls-2"/><path d="M28.268 70.11a1 1 0 0 1-.098-1.995l.821-.081a1 1 0 0 1 .197 1.99l-.82.081a1 1 0 0 1-.1.005" class="cls-2"/><path d="M16.317 87.361c-3.314 0-6.41-.129-8.714-.362-3.6-.366-4.815-.888-4.815-2.07a1 1 0 0 1 .013-.16l.16-.993c.966-5.98 2.163-13.401 5.266-18.347a4.5 4.5 0 0 0-.069-1.143 1.1 1.1 0 0 1-.641.231l-5.399-.008a1 1 0 0 1-.981-1.18l1.579-8.617a12.47 12.47 0 0 1 6.903-8.997l.397-.189c.03-.014.082-.034.113-.045a1 1 0 0 1 .672 1.884l-.324.157a10.46 10.46 0 0 0-5.794 7.55l-1.364 7.439 3.349.005.612-3.763q.03-.213.072-.438a1 1 0 0 1 1.97.343l-.065.402a6.33 6.33 0 0 0 .426 3.296 7.5 7.5 0 0 1 .511 3.515 1 1 0 0 1-.155.434c-2.974 4.59-4.154 11.909-5.102 17.79l-.073.445c3.041 1.126 19.841 1.128 22.902.001q-.163-.945-.325-1.924c-.989-5.924-2.11-12.637-5.011-16.228a1 1 0 0 1-.223-.598 14.8 14.8 0 0 1 .475-3.705 8.4 8.4 0 0 0 .325-2.763l-.143-.592a1 1 0 0 1 1.918-.558 4.6 4.6 0 0 1 .19.767l.852 3.533 3.185-.008-1.671-7.655a10.38 10.38 0 0 0-5.697-7.192l-.598-.285a1.01 1.01 0 0 1-.498-1.298.99.99 0 0 1 1.262-.549l.02.008.677.32a12.36 12.36 0 0 1 6.787 8.569l1.936 8.866a1 1 0 0 1-.975 1.213l-5.213.013h-.002a1 1 0 0 1-.725-.311 9 9 0 0 0-.108 1.248c3.066 4.04 4.203 10.85 5.21 16.876.14.84.278 1.668.42 2.47a1 1 0 0 1 .014.172c0 .85 0 2.431-13.53 2.431" class="cls-2"/><path d="M20.5 43.695a2.13 2.13 0 0 0 .936 2.628c-.724 1.65-3.532 2.545-5.495 3.13-1.963-.585-4.993-1.386-5.496-3.022a2.224 2.224 0 0 0 .924-2.736Z" class="cls-3"/><path d="M15.94 50.452c-2.974 0-5.808-1.638-6.452-3.727a1 1 0 0 1 .426-1.142 1.26 1.26 0 0 0 .537-1.496 1 1 0 0 1 1.84-.785 3.13 3.13 0 0 1-.603 3.375 5.58 5.58 0 0 0 4.251 1.775 5.34 5.34 0 0 0 4.186-1.93 2.97 2.97 0 0 1-.547-3.213 1 1 0 0 1 1.846.772 1.11 1.11 0 0 0 .549 1.421 1 1 0 0 1 .343 1.223 7.07 7.07 0 0 1-6.377 3.727M16.653 67.314a34 34 0 0 1-7.42-.568 1 1 0 0 1 .648-1.893c1.883.646 11.642.553 12.783.037a1 1 0 0 1 .83 1.819c-.914.417-3.843.605-6.84.605" class="cls-2"/><circle cx="15.96" cy="66.314" r="2.148" class="cls-2"/><path d="M15.96 69.461a3.148 3.148 0 1 1 3.147-3.148 3.15 3.15 0 0 1-3.147 3.148m0-4.295a1.148 1.148 0 1 0 1.147 1.147 1.15 1.15 0 0 0-1.147-1.147" class="cls-2"/><g class="cls-5"><path d="M12.44 61.458a4.603 4.603 0 0 1-4.7-4.489 1 1 0 0 1 2 0 2.603 2.603 0 0 0 2.7 2.489 2.603 2.603 0 0 0 2.699-2.489 1 1 0 1 1 2 0 4.603 4.603 0 0 1-4.7 4.489" class="cls-2"/><path d="M19.838 61.458a4.603 4.603 0 0 1-4.7-4.489 1 1 0 1 1 2 0 2.709 2.709 0 0 0 5.4 0 1 1 0 0 1 2 0 4.603 4.603 0 0 1-4.7 4.489" class="cls-2"/></g><path d="M9.16 55.251a19 19 0 0 0-.825 3.246" class="cls-3"/><path d="M8.336 59.497q-.052 0-.106-.005a1 1 0 0 1-.89-1.1 19.7 19.7 0 0 1 .876-3.47 1 1 0 0 1 1.888.658 17.7 17.7 0 0 0-.775 3.022 1 1 0 0 1-.993.895" class="cls-2"/><path d="M23.01 55.251a19 19 0 0 1 .826 3.246" class="cls-3"/><path d="M23.835 59.497a1 1 0 0 1-.996-.919 17.5 17.5 0 0 0-.774-3.002 1 1 0 1 1 1.891-.65 19 19 0 0 1 .877 3.49 1 1 0 0 1-.916 1.078z" class="cls-2"/><path d="M16.224 45.53h-.449a4.8 4.8 0 0 1-2.305-.588l-1.187-.65A8.19 8.19 0 0 1 8 37.122v-5.205c0-7.643 16-7.643 16 0v5.204a8.19 8.19 0 0 1-4.283 7.171l-1.187.65a4.8 4.8 0 0 1-2.306.589" class="cls-3"/><path d="M16.225 46.53h-.45a5.8 5.8 0 0 1-2.786-.711l-1.187-.65A9.19 9.19 0 0 1 7 37.121a1 1 0 0 1 2 0 7.19 7.19 0 0 0 3.763 6.294l1.187.65a3.8 3.8 0 0 0 1.825.465h.45a3.8 3.8 0 0 0 1.824-.465l1.187-.65A7.19 7.19 0 0 0 23 37.12a1 1 0 0 1 2 0 9.19 9.19 0 0 1-4.803 8.048l-1.187.65a5.8 5.8 0 0 1-2.785.711M24 32.917a1 1 0 0 1-1-1c0-3.251-3.629-4.732-7-4.732s-7 1.481-7 4.732a1 1 0 0 1-2 0c0-4.625 4.665-6.732 9-6.732s9 2.107 9 6.732a1 1 0 0 1-1 1" class="cls-2"/><path d="M16.062 39.64a1.84 1.84 0 0 1-1.136-.489 1 1 0 0 1 1.142-1.626 1.02 1.02 0 0 1 1.192.227.98.98 0 0 1-.06 1.398 1.84 1.84 0 0 1-1.138.49M15.983 42.78a3.96 3.96 0 0 1-2.09-.447 1.03 1.03 0 0 1-.483-1.357.97.97 0 0 1 1.309-.469l.119.062a2.05 2.05 0 0 0 1.145.21c.853 0 1.064-.131 1.144-.18a1.036 1.036 0 0 1 1.41.295.965.965 0 0 1-.28 1.355 3.84 3.84 0 0 1-2.274.53M12.375 34.016a1.358 1.358 0 1 0 1.358 1.358 1.36 1.36 0 0 0-1.358-1.358M19.375 34.016a1.358 1.358 0 1 0 1.358 1.358 1.36 1.36 0 0 0-1.358-1.358" class="cls-2"/><circle cx="20.298" cy="39.798" r="1.433" class="cls-6"/><circle cx="11.7" cy="39.798" r="1.433" class="cls-6"/><path d="M7.965 30.148a12.78 12.78 0 0 0 13.025-2.362 2.53 2.53 0 0 0 2.939 2.71l.728-.048C24.439 23 7.551 22.982 7.324 29.852Z" class="cls-3"/><path d="M12.706 32.007a13.7 13.7 0 0 1-5.078-.942l-.64-.28a1 1 0 1 1 .8-1.833l.64.28a11.68 11.68 0 0 0 11.965-2.196 1 1 0 0 1 1.66.75 1.75 1.75 0 0 0 .454 1.357 1.96 1.96 0 0 0 1.363.36l.445-.037a1 1 0 0 1 .168 1.993l-.407.034a3.93 3.93 0 0 1-2.88-.84 3.15 3.15 0 0 1-.793-1.082 13.2 13.2 0 0 1-7.697 2.436" class="cls-2"/><path d="M23.976 33.8a1 1 0 0 1-1-1v-1.358a6 6 0 0 0-.054-.8 1 1 0 0 1 1.982-.27 8 8 0 0 1 .072 1.07V32.8a1 1 0 0 1-1 1M8.016 33.723a1 1 0 0 1-1-1v-1.281a8 8 0 0 1 .125-1.4 1 1 0 1 1 1.966.357 6 6 0 0 0-.091 1.043v1.281a1 1 0 0 1-1 1" class="cls-2"/><path d="M50.788 46.044a15.3 15.3 0 0 0 4.18-.604 4.17 4.17 0 0 0 2.866-5.328c-1.138-3.454-.225-6.244-1.022-9.637-1.06-4.518-5.145-7.927-10.64-7.927s-9.856 3.26-10.758 7.927c-.652 3.375.227 6.123-.854 9.509a4.196 4.196 0 0 0 2.798 5.321 14.7 14.7 0 0 0 3.947.745Z" class="cls-3"/><path d="M41.898 47.05h-.024a20 20 0 0 1-4.798-.785 5.13 5.13 0 0 1-3.11-2.536 5.2 5.2 0 0 1-.36-4.05 15.3 15.3 0 0 0 .54-5.013 21.5 21.5 0 0 1 .287-4.38c.993-5.145 5.82-8.738 11.74-8.738 5.724 0 10.391 3.495 11.613 8.698a19.8 19.8 0 0 1 .406 4.595 15.2 15.2 0 0 0 .592 4.958 5.2 5.2 0 0 1-.363 4.079 5.1 5.1 0 0 1-3.194 2.528 20.7 20.7 0 0 1-5.054.638 1 1 0 0 1 .022-2c.064.002.146.003.221.003a19 19 0 0 0 4.293-.572 3.167 3.167 0 0 0 2.175-4.05 17.1 17.1 0 0 1-.692-5.572 18 18 0 0 0-.353-4.15c-1.005-4.28-4.889-7.155-9.666-7.155-4.947 0-8.968 2.926-9.777 7.116a19.6 19.6 0 0 0-.25 3.99 17.1 17.1 0 0 1-.634 5.634 3.22 3.22 0 0 0 .22 2.504 3.15 3.15 0 0 0 1.908 1.554 18.2 18.2 0 0 0 4.283.704 1 1 0 0 1-.024 2" class="cls-2"/><path d="M47.61 86.362v2.864c0 6.444 3.58 13.604 3.58 13.604l.716 1.432a84.6 84.6 0 0 0 .76-17.9ZM44.956 86.362s-.043 1.432-.043 2.864a26 26 0 0 1-3.58 12.172l-.716 2.864a86.5 86.5 0 0 1-.716-17.9Z" class="cls-3"/><path d="M51.906 105.262a1 1 0 0 1-.894-.553l-.716-1.432c-.15-.301-3.686-7.447-3.686-14.051V86.36a1 1 0 0 1 2 0v2.865c0 4.345 1.725 9.1 2.744 11.528a88 88 0 0 0 .314-14.33 1 1 0 0 1 .936-1.06.984.984 0 0 1 1.06.935 84.8 84.8 0 0 1-.772 18.136 1 1 0 0 1-.841.816 1 1 0 0 1-.145.01M40.45 105.262l-.038-.001a1 1 0 0 1-.948-.832 86.8 86.8 0 0 1-.728-18.13 1 1 0 1 1 1.996.125 90 90 0 0 0 .192 13.347 24.4 24.4 0 0 0 2.822-10.545c0-1.448.044-2.895.044-2.895a1.027 1.027 0 0 1 1.03-.97 1 1 0 0 1 .97 1.031c-.001.005-.044 1.42-.044 2.834a26.73 26.73 0 0 1-3.646 12.561l-.68 2.717a1 1 0 0 1-.97.758" class="cls-2"/><path d="M40.45 104.978h-3.58v-1.29l1.432-1.574 1.432-4.297h3.58v4.297a2.864 2.864 0 0 1-2.864 2.864M51.906 104.978h3.58v-1.29l-1.432-1.574-1.432-4.297h-3.58v4.297a2.864 2.864 0 0 0 2.864 2.864" class="cls-3"/><path d="M40.45 105.978h-3.58a1 1 0 0 1-1-1v-1.29a1 1 0 0 1 .26-.673l1.29-1.418 1.366-4.096a1 1 0 0 1 .948-.684h3.58a1 1 0 0 1 1 1v4.296a3.87 3.87 0 0 1-3.864 3.865m-2.491-2h2.491a1.866 1.866 0 0 0 1.864-1.865v-3.296h-1.859l-1.204 3.612a1 1 0 0 1-.209.357ZM55.486 105.978h-3.58a3.87 3.87 0 0 1-3.864-3.865v-4.296a1 1 0 0 1 1-1h3.58a1 1 0 0 1 .948.684l1.367 4.096 1.29 1.418a1 1 0 0 1 .26.673v1.29a1 1 0 0 1-1 1m-5.444-7.16v3.295a1.866 1.866 0 0 0 1.864 1.865h2.492l-1.084-1.192a1 1 0 0 1-.208-.356l-1.205-3.613Z" class="cls-2"/><path d="M40.45 103.113h-2.147a1 1 0 0 1 0-2h2.147a1 1 0 0 1 0 2M54.055 103.113h-2.149a1 1 0 0 1 0-2h2.149a1 1 0 0 1 0 2" class="cls-2"/><path d="m51.673 46.423.02.007.598.286a11.44 11.44 0 0 1 6.242 7.88l1.936 8.866-5.213.013-1.202-4.978c.716 2.088-.716 4.427-.629 7.264a45.8 45.8 0 0 1-14.007 0c.316-2.837-1.519-3.723-.865-7.264l-.816 5.02-5.399-.008 1.58-8.617a11.44 11.44 0 0 1 6.349-8.274l.396-.188.02-.007c1.916 4.138 9.076 4.138 10.99 0" class="cls-3"/><g class="cls-1"><path d="m38.553 61.204-.008.052v.002q.005-.028.008-.054" class="cls-3"/></g><path d="M53.425 65.76c3.493 4.324 4.487 12.585 5.641 19.17 0 1.909-25.06 1.909-25.06 0 .982-6.035 2.148-14.13 5.412-19.17a46 46 0 0 0 14.007 0" class="cls-3"/><path d="M53.425 65.76c3.493 4.324 4.487 12.585 5.641 19.17 0 1.909-25.06 1.909-25.06 0 .982-6.035 2.148-14.13 5.412-19.17a46 46 0 0 0 14.007 0" class="cls-4"/><path d="m37.25 63.593-1.095 10.404-.61-.02c-1.316-.044-2.713-2.203-1.735-4.893a23.8 23.8 0 0 1-.735-5.51" class="cls-3"/><path d="M36.155 74.998h-.034l-.61-.021a2.9 2.9 0 0 1-2.244-1.39 5.31 5.31 0 0 1-.505-4.522 27 27 0 0 1-.687-5.441 1 1 0 0 1 .95-1.048.987.987 0 0 1 1.048.95 23.6 23.6 0 0 0 .69 5.259 1 1 0 0 1-.014.64 3.32 3.32 0 0 0 .175 3.042 1.6 1.6 0 0 0 .347.376l.986-9.355a1 1 0 1 1 1.988.21l-1.097 10.405a1 1 0 0 1-.993.895" class="cls-2"/><path d="M34.68 70.11a1 1 0 0 1-.1-.005l-.821-.081a1 1 0 1 1 .197-1.99l.821.081a1 1 0 0 1-.097 1.995" class="cls-2"/><path d="m55.915 63.593 1.004 10.404.609-.02c1.316-.044 2.806-2.203 1.828-4.893a23.8 23.8 0 0 0 .735-5.51" class="cls-3"/><path d="M56.918 74.998a1 1 0 0 1-.994-.904L54.92 63.689a1 1 0 0 1 .9-1.092 1.01 1.01 0 0 1 1.09.9l.903 9.347a1.7 1.7 0 0 0 .405-.43 3.34 3.34 0 0 0 .199-2.989 1 1 0 0 1-.015-.64 23.5 23.5 0 0 0 .69-5.26 1 1 0 1 1 1.998.099 27 27 0 0 1-.686 5.441 5.26 5.26 0 0 1-.529 4.47 3 3 0 0 1-2.314 1.442l-.609.02Z" class="cls-2"/><path d="M58.486 70.11a1 1 0 0 1-.097-1.995l.821-.081a1 1 0 0 1 .197 1.99l-.821.081a1 1 0 0 1-.1.005" class="cls-2"/><path d="M46.536 87.361c-3.315 0-6.41-.129-8.716-.362-3.6-.366-4.814-.888-4.814-2.07a1 1 0 0 1 .013-.16l.16-.987c.965-5.982 2.163-13.407 5.265-18.354a4.4 4.4 0 0 0-.068-1.142 1 1 0 0 1-.64.231l-5.4-.008a1 1 0 0 1-.98-1.18l1.578-8.617a12.47 12.47 0 0 1 6.904-8.997l.396-.189c.03-.014.082-.034.114-.045a1 1 0 0 1 .672 1.884l-.325.157a10.47 10.47 0 0 0-5.795 7.55l-1.362 7.439 3.349.005.612-3.763q.03-.213.071-.438a1 1 0 0 1 1.971.343l-.065.402a6.33 6.33 0 0 0 .425 3.295 7.5 7.5 0 0 1 .511 3.517 1 1 0 0 1-.155.432c-2.974 4.593-4.154 11.914-5.104 17.796l-.071.44c3.042 1.126 19.843 1.128 22.902.002q-.161-.95-.326-1.93c-.989-5.922-2.11-12.633-5.01-16.223a1 1 0 0 1-.223-.597 14.8 14.8 0 0 1 .475-3.707 8.4 8.4 0 0 0 .326-2.762l-.143-.592a1 1 0 0 1 1.918-.558 4.6 4.6 0 0 1 .19.767l.852 3.533 3.185-.008-1.672-7.655a10.37 10.37 0 0 0-5.697-7.192l-.586-.28a1.01 1.01 0 0 1-.532-1.248.99.99 0 0 1 1.268-.609l.02.007q.05.018.096.04l.598.286a12.36 12.36 0 0 1 6.786 8.569l1.936 8.866a1 1 0 0 1-.974 1.213l-5.213.013h-.002a1 1 0 0 1-.727-.312 9 9 0 0 0-.107 1.25c3.064 4.038 4.203 10.846 5.209 16.869.141.843.28 1.672.42 2.475a1 1 0 0 1 .015.173c0 .85 0 2.431-13.53 2.431" class="cls-2"/><path d="M50.72 43.695a2.13 2.13 0 0 0 .935 2.628c-.724 1.65-3.533 2.545-5.496 3.13-1.962-.585-4.992-1.386-5.495-3.022a2.224 2.224 0 0 0 .924-2.736Z" class="cls-3"/><path d="M46.158 50.452c-2.974 0-5.808-1.638-6.451-3.728a1 1 0 0 1 .426-1.141 1.26 1.26 0 0 0 .537-1.496 1 1 0 0 1 1.84-.785 3.13 3.13 0 0 1-.603 3.375 5.57 5.57 0 0 0 4.251 1.775 5.34 5.34 0 0 0 4.186-1.93 2.97 2.97 0 0 1-.548-3.212 1 1 0 1 1 1.846.77 1.113 1.113 0 0 0 .55 1.422 1 1 0 0 1 .343 1.223 7.07 7.07 0 0 1-6.377 3.727M46.872 67.313a34 34 0 0 1-7.42-.567 1 1 0 1 1 .646-1.893c1.884.645 11.643.553 12.785.037a1 1 0 0 1 .83 1.819c-.915.417-3.843.604-6.84.604" class="cls-2"/><circle cx="46.178" cy="66.314" r="2.148" class="cls-3"/><path d="M46.179 69.461a3.148 3.148 0 1 1 3.147-3.148 3.15 3.15 0 0 1-3.147 3.148m0-4.295a1.148 1.148 0 1 0 1.147 1.147 1.15 1.15 0 0 0-1.147-1.147" class="cls-2"/><g class="cls-5"><path d="M42.658 61.458a4.603 4.603 0 0 1-4.7-4.489 1 1 0 0 1 2 0 2.709 2.709 0 0 0 5.4 0 1 1 0 0 1 2 0 4.603 4.603 0 0 1-4.7 4.489" class="cls-2"/><path d="M50.057 61.458a4.603 4.603 0 0 1-4.7-4.489 1 1 0 0 1 2 0 2.709 2.709 0 0 0 5.4 0 1 1 0 0 1 2 0 4.603 4.603 0 0 1-4.7 4.489" class="cls-2"/></g><path d="M39.378 55.251a19 19 0 0 0-.825 3.246" class="cls-3"/><path d="M38.555 59.497q-.052 0-.105-.005a1 1 0 0 1-.89-1.099 19.7 19.7 0 0 1 .874-3.47 1 1 0 0 1 1.888.657 17.6 17.6 0 0 0-.774 3.021 1 1 0 0 1-.993.896" class="cls-2"/><path d="M53.23 55.251a19 19 0 0 1 .824 3.246" class="cls-3"/><path d="M54.054 59.497a1 1 0 0 1-.996-.919 17.5 17.5 0 0 0-.774-3.002 1 1 0 1 1 1.89-.65 19 19 0 0 1 .878 3.49 1 1 0 0 1-.916 1.078zM46.752 84.184a1 1 0 0 1-.623-.218l-1.458-1.162-1.73 1.13a1 1 0 0 1-1.25-.127l-1.152-1.14-1.534.979a1 1 0 0 1-1.256-.146l-1.248-1.287-1.288.725a1 1 0 0 1-.98-1.745l1.958-1.1a1 1 0 0 1 1.208.175l1.217 1.253 1.52-.97a1 1 0 0 1 1.242.132l1.145 1.134 1.659-1.083a1 1 0 0 1 1.17.055l1.405 1.12 1.452-1.138a1 1 0 0 1 1.217-.014l1.35 1.013 1.19-1.13a1 1 0 0 1 1.247-.104l1.408.948 1.131-1.217a1 1 0 0 1 1.246-.177l1.866 1.118a1 1 0 1 1-1.027 1.715l-1.171-.7-1.162 1.25a1 1 0 0 1-1.291.148l-1.452-.978-1.22 1.159a1 1 0 0 1-1.288.075l-1.413-1.06-1.47 1.154a1 1 0 0 1-.618.213" class="cls-2"/><path d="M46.743 80.514a1 1 0 0 1-.623-.218L44.743 79.2l-1.636 1.068a1 1 0 0 1-1.25-.126l-1.084-1.072-1.445.923a1 1 0 0 1-1.256-.147l-1.177-1.212-1.21.68a1 1 0 1 1-.98-1.744l1.88-1.057a1 1 0 0 1 1.209.175l1.145 1.18 1.432-.914a1 1 0 0 1 1.241.132l1.077 1.066 1.565-1.022a1 1 0 0 1 1.17.055l1.324 1.056 1.37-1.074a1 1 0 0 1 1.216-.013l1.27.951 1.117-1.061a1 1 0 0 1 1.247-.104l1.324.892 1.062-1.143a1 1 0 0 1 1.246-.178l1.79 1.073a1 1 0 0 1-1.027 1.716l-1.095-.657-1.093 1.176a1 1 0 0 1-1.291.15l-1.368-.922-1.148 1.09a1 1 0 0 1-1.288.076l-1.332-.999-1.388 1.088a1 1 0 0 1-.617.213" class="cls-2"/><path d="M46.443 45.53h-.449a4.8 4.8 0 0 1-2.305-.588l-1.188-.65a8.18 8.18 0 0 1-4.283-7.17v-5.205c0-7.643 16-7.643 16 0v5.204a8.18 8.18 0 0 1-4.282 7.171l-1.188.65a4.8 4.8 0 0 1-2.305.589" class="cls-3"/><path d="M46.443 46.53h-.449a5.8 5.8 0 0 1-2.786-.711l-1.187-.65a9.19 9.19 0 0 1-4.802-8.048v-5.204c0-4.625 4.665-6.732 9-6.732s9 2.107 9 6.732v5.204a9.19 9.19 0 0 1-4.803 8.048l-1.187.65a5.8 5.8 0 0 1-2.786.711m-.224-19.345c-3.371 0-7 1.481-7 4.732v5.204a7.19 7.19 0 0 0 3.762 6.294l1.188.65a3.8 3.8 0 0 0 1.825.465h.45a3.8 3.8 0 0 0 1.824-.465l1.187-.65a7.19 7.19 0 0 0 3.764-6.294v-5.204c0-3.251-3.63-4.732-7-4.732" class="cls-2"/><path d="M46.28 39.785a1.84 1.84 0 0 1-1.137-.49 1 1 0 0 1 1.144-1.625 1.02 1.02 0 0 1 1.192.228.98.98 0 0 1-.061 1.397 1.84 1.84 0 0 1-1.138.49M46.265 42.78a3.96 3.96 0 0 1-2.09-.447 1.03 1.03 0 0 1-.484-1.357.97.97 0 0 1 1.309-.469l.12.062a2.05 2.05 0 0 0 1.145.21c.852 0 1.063-.131 1.143-.18a1.035 1.035 0 0 1 1.41.295.965.965 0 0 1-.279 1.355 3.84 3.84 0 0 1-2.274.53M42.993 34.216a1.358 1.358 0 1 0 1.359 1.358 1.36 1.36 0 0 0-1.359-1.358M49.442 34.216a1.358 1.358 0 1 0 1.359 1.358 1.36 1.36 0 0 0-1.359-1.358" class="cls-2"/><circle cx="50.517" cy="39.798" r="1.433" class="cls-6"/><circle cx="41.919" cy="39.798" r="1.433" class="cls-6"/><path d="M38.183 30.148a12.78 12.78 0 0 0 13.026-2.362 2.53 2.53 0 0 0 2.939 2.71l.727-.048c-.218-7.448-17.106-7.466-17.332-.596Z" class="cls-3"/><path d="M42.924 32.007a13.7 13.7 0 0 1-5.078-.942l-.64-.28a1 1 0 1 1 .802-1.833l.64.28a11.68 11.68 0 0 0 11.963-2.196 1 1 0 0 1 1.661.75 1.75 1.75 0 0 0 .454 1.357 1.96 1.96 0 0 0 1.363.36l.445-.037a1 1 0 0 1 .168 1.993l-.407.034a3.93 3.93 0 0 1-2.88-.84 3.14 3.14 0 0 1-.793-1.083 13.2 13.2 0 0 1-7.698 2.437" class="cls-2"/><path d="M54.194 34.126a1 1 0 0 1-1-1v-1.684a6 6 0 0 0-.053-.797 1 1 0 1 1 1.98-.277 8 8 0 0 1 .073 1.074v1.684a1 1 0 0 1-1 1M38.234 33.723a1 1 0 0 1-1-1v-1.281a8 8 0 0 1 .125-1.4 1 1 0 1 1 1.967.357 6 6 0 0 0-.092 1.043v1.281a1 1 0 0 1-1 1" class="cls-2"/><path d="M37.404 79.898H21.033v2.865h-4.775L15.003 72.19a7 7 0 0 1 0-1.777l.92-7.744a4.99 4.99 0 0 1 2.825-3.976l4.952-2.27c.505 1.64 2.947 3.023 5.498 3.023a6.05 6.05 0 0 0 5.464-3.131l.054-.007 5.02 2.378a5.01 5.01 0 0 1 2.777 3.947l.921 7.78a7 7 0 0 1 0 1.777l-1.255 10.573h-4.775Z" class="cls-3"/><path d="M20.167 82.763H16.22l-.367-3.582h4.314zM38.318 82.763l3.95.112.387-3.694h-4.337z" class="cls-4"/><path d="M16.218 83h4v5.6h-.637a3.363 3.363 0 0 1-3.363-3.363z" class="cls-3"/><path d="M20.219 89.6h-.638a4.367 4.367 0 0 1-4.362-4.363V83a1 1 0 0 1 1-1h4a1 1 0 0 1 1 1v5.6a1 1 0 0 1-1 1m-3-5.6v1.237a2.37 2.37 0 0 0 2 2.335V84Z" class="cls-2"/><path d="M38.856 88.6h-.638V83h4v2.237a3.363 3.363 0 0 1-3.362 3.363" class="cls-3"/><path d="M38.855 89.6h-.636a1 1 0 0 1-1-1V83a1 1 0 0 1 1-1h4a1 1 0 0 1 1 1v2.237a4.37 4.37 0 0 1-4.364 4.363m.364-5.6v3.572a2.37 2.37 0 0 0 2-2.335V84ZM38.219 80.898a1 1 0 0 1-1-1V67.414a2.43 2.43 0 0 0-.707-1.707 1 1 0 1 1 1.414-1.414 4.44 4.44 0 0 1 1.293 3.121v12.484a1 1 0 0 1-1 1M20.219 80.898a1 1 0 0 1-1-1V67.414a4.38 4.38 0 0 1 1.293-3.122 1 1 0 0 1 1.414 1.415 2.4 2.4 0 0 0-.707 1.707v12.484a1 1 0 0 1-1 1" class="cls-2"/><path d="M42.179 84h-4.775a1 1 0 0 1 0-2h3.884l1.152-9.925a6 6 0 0 0 .001-1.535l-.921-7.789a4.03 4.03 0 0 0-2.21-3.161l-5.021-2.379a1 1 0 0 1 .855-1.807l5.021 2.378a6.05 6.05 0 0 1 3.34 4.73l.922 7.783a8 8 0 0 1-.001 2.022l-1.254 10.798a1 1 0 0 1-.993.885M21.033 84h-4.775a1 1 0 0 1-.993-.885l-1.255-10.81a8 8 0 0 1 0-2.019l.92-7.735a6.02 6.02 0 0 1 3.4-4.766l4.953-2.272q.05-.022.1-.04a1.01 1.01 0 0 1 1.276.63.99.99 0 0 1-.585 1.248l-4.909 2.252a4 4 0 0 0-2.248 3.182l-.92 7.746a6 6 0 0 0-.002 1.532L17.148 82h3.885a1 1 0 0 1 0 2" class="cls-2"/><path d="M20.218 114h7V87h4v27h7V79.898h-18z" class="cls-3"/><path d="M20.218 114h7V87h4v27h7V79.898h-18z" class="cls-4"/><path d="M20.219 85.7a1 1 0 0 1-.705-1.709l4.829-4.802a1 1 0 1 1 1.41 1.418l-4.83 4.802a1 1 0 0 1-.704.291M38.143 85.396a1 1 0 0 1-.707-.293l-4.498-4.498a1 1 0 0 1 1.414-1.414l4.498 4.498a1 1 0 0 1-.707 1.707" class="cls-2"/><path d="M38.219 115h-7a1 1 0 0 1-1-1V88h-2v26a1 1 0 0 1-1 1h-7a1 1 0 0 1-1-1V79.898a1 1 0 0 1 1-1h18a1 1 0 0 1 1 1V114a1 1 0 0 1-1 1m-6-2h5V80.898h-16V113h5V87a1 1 0 0 1 1-1h4a1 1 0 0 1 1 1Z" class="cls-2"/><path d="M42.219 80h-4a1 1 0 0 1 0-2h4a1 1 0 0 1 0 2M20.219 80h-3.767a1 1 0 0 1 0-2h3.767a1 1 0 0 1 0 2M15.064 72.302a1 1 0 0 1-.336-1.942l1.716-.614a1 1 0 0 1 .674 1.883l-1.717.614a1 1 0 0 1-.337.059M43.373 72.302a1 1 0 0 1-.329-.056l-1.626-.567a1 1 0 1 1 .658-1.888l1.626.566a1 1 0 0 1-.329 1.945" class="cls-2"/><path d="M35.718 58.872H22.765l.065-4.453h12.807z" class="cls-3"/><path d="M35.718 59.872H22.766a1 1 0 0 1-1-1.015l.064-4.452a1 1 0 0 1 1-.986h12.807a1 1 0 0 1 1 .982l.08 4.453a1 1 0 0 1-1 1.018m-11.938-2H34.7l-.046-2.453H23.815Z" class="cls-2"/><path d="M33.943 53.842a2.134 2.134 0 0 0 .965 2.65c-.747 1.62-3.643 2.43-5.666 3.004-2.024-.575-5.148-1.396-5.667-3.003a2.09 2.09 0 0 0 .953-2.651Z" class="cls-3"/><path d="M32.885 58.922h-2.688l-.955.574-.988-.574h-2.655v2.428h7.286z" class="cls-7"/><path d="M29.241 60.496a1 1 0 0 1-.469-.117l-5.666-3.003a1 1 0 0 1-.045-1.74c.094-.057.917-.58.554-1.384a1 1 0 0 1 1.824-.82 2.87 2.87 0 0 1-.204 2.81l4.006 2.122 4.02-2.13a2.84 2.84 0 0 1-.234-2.793 1 1 0 1 1 1.832.802c-.311.712.318 1.228.602 1.416a1 1 0 0 1-.084 1.717L29.71 60.38a1 1 0 0 1-.469.116" class="cls-2"/><path d="m24.41 60.764-3.668-3.057 2.023-3.238 4.858 4.048-1.204 1.925a1.35 1.35 0 0 1-2.01.322M34.074 60.764l3.668-3.057-2.024-3.238-4.857 4.048 1.203 1.925a1.35 1.35 0 0 0 2.01.322" class="cls-3"/><path d="M25.273 62.077a2.35 2.35 0 0 1-1.504-.545L20.1 58.475a1 1 0 0 1-.207-1.298l2.024-3.238a1 1 0 0 1 1.487-.238l4.859 4.048a1 1 0 0 1 .207 1.298l-1.204 1.925a2.35 2.35 0 0 1-1.621 1.075 2.4 2.4 0 0 1-.373.03m-3.221-4.58 2.998 2.499a.35.35 0 0 0 .52-.084l.742-1.186-3.306-2.755ZM33.193 62.077a2.4 2.4 0 0 1-.372-.03 2.35 2.35 0 0 1-1.622-1.075l-1.202-1.926a1 1 0 0 1 .207-1.297l4.857-4.048a1 1 0 0 1 1.489.238l2.023 3.238a1 1 0 0 1-.207 1.298l-3.668 3.057a2.35 2.35 0 0 1-1.505.545m-1.038-3.35.74 1.185a.35.35 0 0 0 .243.16.34.34 0 0 0 .279-.076l2.998-2.499-.953-1.526Z" class="cls-2"/><path d="m26.635 60.498 1.766 2.633h1.681l1.734-2.659-.893-1.55H27.56z" class="cls-3"/><path d="m32.042 72.675-1.96-9.544h-1.681l-1.96 9.544 2.784 2.795z" class="cls-2"/><path d="M29.226 76.47a1 1 0 0 1-.708-.294l-2.786-2.795a1 1 0 0 1-.271-.907l1.96-9.544a1 1 0 0 1 .98-.799h1.681a1 1 0 0 1 .98.8l1.96 9.543a1 1 0 0 1-.276.911L29.93 76.18a1 1 0 0 1-.704.29m-1.698-4.12 1.701 1.708 1.724-1.711-1.737-8.216Z" class="cls-2"/><path d="m26.635 60.498 1.766 2.633h1.681l1.734-2.659-.893-1.55H27.56z" class="cls-2"/><path d="M22.917 109.91h.602a3.7 3.7 0 0 1 3.7 3.698V115H19.89a.673.673 0 0 1-.673-.672v-.72a3.7 3.7 0 0 1 3.7-3.699" class="cls-3"/><path d="M27.219 116H19.89a1.674 1.674 0 0 1-1.672-1.672v-.72a4.704 4.704 0 0 1 4.698-4.699h.603a4.705 4.705 0 0 1 4.699 4.699V115a1 1 0 0 1-1 1m-7-2h6v-.392a2.7 2.7 0 0 0-2.7-2.699h-.602a2.7 2.7 0 0 0-2.698 2.699Z" class="cls-2"/><path d="M34.917 109.91h.602a3.7 3.7 0 0 1 3.7 3.698v.72a.673.673 0 0 1-.673.672h-7.328v-1.392a3.7 3.7 0 0 1 3.7-3.699" class="cls-3"/><path d="M38.546 116h-7.327a1 1 0 0 1-1-1v-1.392a4.704 4.704 0 0 1 4.698-4.699h.603a4.705 4.705 0 0 1 4.699 4.699v.72A1.674 1.674 0 0 1 38.546 116m-6.327-2h6v-.392a2.7 2.7 0 0 0-2.7-2.699h-.602a2.7 2.7 0 0 0-2.698 2.699Z" class="cls-2"/><path d="M30.323 55h-2.209a4.3 4.3 0 0 1-3.028-1.242l-2.614-2.588a4.22 4.22 0 0 1-1.254-2.998v-7.34c0-6.177 16-6.177 16 0v7.34a4.22 4.22 0 0 1-1.254 2.998l-2.614 2.588A4.3 4.3 0 0 1 30.323 55" class="cls-3"/><path d="M30.323 56h-2.209a5.27 5.27 0 0 1-3.731-1.53l-2.614-2.59a5.26 5.26 0 0 1-1.55-3.708v-7.34c0-3.87 4.665-5.633 9-5.633s9 1.763 9 5.634v7.339a5.18 5.18 0 0 1-1.552 3.709l-2.612 2.588A5.34 5.34 0 0 1 30.323 56M29.22 37.2c-3.479 0-7 1.247-7 3.633v7.339a3.2 3.2 0 0 0 .958 2.287l2.613 2.589a3.28 3.28 0 0 0 2.324.952h2.21a3.32 3.32 0 0 0 2.323-.952l2.613-2.589a3.2 3.2 0 0 0 .959-2.287v-7.34a2.98 2.98 0 0 0-1.958-2.585 11.5 11.5 0 0 0-5.042-1.048" class="cls-2"/><path d="M34.398 33.957c2.302 1.065 4.259 2.246 4.261 5.524a11.4 11.4 0 0 1-.253 2.28c-.145.71-1.18.39-1.18.39s-.04-1.906-1.402-2.452c-3.523-1.412-9.254 1.066-13.13-1.561a3.57 3.57 0 0 1-1.17 2.842s-1.361-.005-1.447-.78c-.39-3.512 1.056-5.073 2.617-4.682 3.901-3.902 10.32-2.202 11.704-1.561" class="cls-3"/><path d="M37.713 43.224a2.8 2.8 0 0 1-.781-.118 1 1 0 0 1-.703-.892 2.3 2.3 0 0 0-.9-1.646c-.988-.564-2.674-.44-4.458-.308-2.305.17-4.903.361-7.369-.668a5.2 5.2 0 0 1-1.191 2.006 1.07 1.07 0 0 1-.789.382h-.002c-1.12-.004-2.309-.522-2.438-1.67-.26-2.348.213-4.18 1.333-5.158a2.73 2.73 0 0 1 1.941-.691c4.21-3.776 10.369-2.33 12.444-1.42 2.209.968 4.757 2.572 4.86 6.414a11 11 0 0 1-.274 2.505 1.52 1.52 0 0 1-.716 1.021 1.86 1.86 0 0 1-.957.243m-4.643-5.076a6.47 6.47 0 0 1 3.25.683 3.5 3.5 0 0 1 1.317 1.352 6 6 0 0 0 .022-.676c-.067-2.543-1.513-3.692-3.662-4.634-1.667-.732-7.193-2.051-10.596 1.352a1 1 0 0 1-.949.263.75.75 0 0 0-.72.17c-.445.388-.847 1.441-.681 3.245l.052.015a2.36 2.36 0 0 0 .529-1.102 1.65 1.65 0 0 1 .875-1.171 1.67 1.67 0 0 1 1.48-.025c2.102.988 4.457.815 6.738.646.805-.06 1.593-.118 2.345-.118M29.41 48.827a1.84 1.84 0 0 1-1.139-.49 1 1 0 0 1 1.145-1.625 1.02 1.02 0 0 1 1.19.228.98.98 0 0 1-.06 1.397 1.84 1.84 0 0 1-1.137.49M29.33 52a3.6 3.6 0 0 1-2.089-.527 1.035 1.035 0 0 1-.483-1.36.973.973 0 0 1 1.307-.47q.1.049.215.12a1.7 1.7 0 0 0 1.05.237 1.9 1.9 0 0 0 1.097-.227 1 1 0 0 1 1.289 1.53A3.58 3.58 0 0 1 29.33 52M25.406 43.512a1.358 1.358 0 1 0 1.359 1.358 1.36 1.36 0 0 0-1.359-1.358M33.286 43.512a1.358 1.358 0 1 0 1.358 1.358 1.36 1.36 0 0 0-1.358-1.358" class="cls-2"/><path d="M120.404 69.898h-16.371v2.865h-4.775L98.003 62.19a7 7 0 0 1 0-1.777l.92-7.744a4.99 4.99 0 0 1 2.825-3.976l4.952-2.27c.505 1.64 2.947 3.023 5.498 3.023a6.05 6.05 0 0 0 5.464-3.131l.054-.007 5.02 2.378a5.01 5.01 0 0 1 2.777 3.947l.921 7.78a7 7 0 0 1 0 1.777l-1.255 10.573h-4.775Z" class="cls-3"/><path d="M103.167 72.763H99.22l-.367-3.582h4.314z" class="cls-3"/><path d="m121.318 72.763 3.95.112.387-3.694h-4.337z" class="cls-4"/><path d="M99.218 73h4v5.6h-.637a3.363 3.363 0 0 1-3.363-3.363z" class="cls-3"/><path d="M103.219 79.6h-.638a4.367 4.367 0 0 1-4.362-4.363V73a1 1 0 0 1 1-1h4a1 1 0 0 1 1 1v5.6a1 1 0 0 1-1 1m-3-5.6v1.237a2.37 2.37 0 0 0 2 2.335V74Z" class="cls-2"/><path d="M121.856 78.6h-.638V73h4v2.237a3.363 3.363 0 0 1-3.362 3.363" class="cls-3"/><path d="M121.855 79.6h-.636a1 1 0 0 1-1-1V73a1 1 0 0 1 1-1h4a1 1 0 0 1 1 1v2.237a4.37 4.37 0 0 1-4.364 4.363m.364-5.6v3.572a2.37 2.37 0 0 0 2-2.335V74ZM121.219 70.898a1 1 0 0 1-1-1V57.414a2.43 2.43 0 0 0-.707-1.707 1 1 0 1 1 1.414-1.414 4.44 4.44 0 0 1 1.293 3.121v12.484a1 1 0 0 1-1 1M103.219 70.898a1 1 0 0 1-1-1V57.414a4.38 4.38 0 0 1 1.293-3.122 1 1 0 0 1 1.414 1.415 2.4 2.4 0 0 0-.707 1.707v12.484a1 1 0 0 1-1 1" class="cls-2"/><path d="M125.179 74h-4.775a1 1 0 0 1 0-2h3.884l1.152-9.925a6 6 0 0 0 .001-1.535l-.921-7.789a4.03 4.03 0 0 0-2.21-3.161l-5.021-2.379a1 1 0 0 1 .856-1.807l5.02 2.378a6.05 6.05 0 0 1 3.34 4.73l.922 7.783a8 8 0 0 1-.001 2.022l-1.254 10.798a1 1 0 0 1-.993.885M104.033 74h-4.775a1 1 0 0 1-.993-.885l-1.255-10.81a8 8 0 0 1 0-2.019l.92-7.735a6.02 6.02 0 0 1 3.4-4.766l4.953-2.272q.05-.022.1-.04a1.007 1.007 0 0 1 1.276.63.99.99 0 0 1-.585 1.248l-4.909 2.252a4 4 0 0 0-2.248 3.182l-.92 7.746a6 6 0 0 0-.002 1.532L100.148 72h3.885a1 1 0 0 1 0 2" class="cls-2"/><path d="M103.218 104h7V77h4v27h7V69.898h-18z" class="cls-3"/><path d="M121.219 105h-7a1 1 0 0 1-1-1V78h-2v26a1 1 0 0 1-1 1h-7a1 1 0 0 1-1-1V69.898a1 1 0 0 1 1-1h18a1 1 0 0 1 1 1V104a1 1 0 0 1-1 1m-6-2h5V70.898h-16V103h5V77a1 1 0 0 1 1-1h4a1 1 0 0 1 1 1Z" class="cls-2"/><path d="M103.219 75.7a1 1 0 0 1-.705-1.709l4.829-4.802a1 1 0 1 1 1.41 1.418l-4.83 4.802a1 1 0 0 1-.704.291M121.143 75.396a1 1 0 0 1-.707-.293l-4.499-4.498a1 1 0 0 1 1.415-1.414l4.498 4.498a1 1 0 0 1-.707 1.707M125.219 70h-4a1 1 0 0 1 0-2h4a1 1 0 0 1 0 2M103.219 70h-3.767a1 1 0 0 1 0-2h3.767a1 1 0 0 1 0 2M98.064 62.302a1 1 0 0 1-.336-1.942l1.716-.614a1 1 0 0 1 .674 1.883l-1.717.614a1 1 0 0 1-.337.059M126.373 62.302a1 1 0 0 1-.329-.056l-1.626-.567a1 1 0 1 1 .658-1.888l1.626.566a1 1 0 0 1-.329 1.945" class="cls-2"/><path d="M118.718 48.872h-12.953l.065-4.453h12.807z" class="cls-3"/><path d="M118.718 49.872h-12.952a1 1 0 0 1-1-1.015l.064-4.452a1 1 0 0 1 1-.986h12.807a1 1 0 0 1 1 .982l.08 4.453a1 1 0 0 1-1 1.018m-11.938-2h10.92l-.046-2.453h-10.839Z" class="cls-2"/><path d="M116.943 43.842a2.134 2.134 0 0 0 .965 2.65c-.747 1.62-3.643 2.43-5.666 3.004-2.024-.575-5.148-1.396-5.667-3.003a2.09 2.09 0 0 0 .953-2.651Z" class="cls-3"/><path d="M115.885 48.922h-2.688l-.955.574-.988-.574h-2.655v2.428h7.286z" class="cls-7"/><path d="M112.241 50.496a1 1 0 0 1-.469-.117l-5.666-3.003a1 1 0 0 1-.045-1.74c.094-.057.917-.58.554-1.384a1 1 0 0 1 1.824-.82 2.87 2.87 0 0 1-.204 2.81l4.006 2.122 4.02-2.13a2.84 2.84 0 0 1-.234-2.793 1 1 0 1 1 1.832.802c-.311.712.318 1.228.602 1.416a1 1 0 0 1-.084 1.717l-5.667 3.004a1 1 0 0 1-.469.116" class="cls-2"/><path d="m107.41 50.764-3.668-3.057 2.023-3.238 4.858 4.048-1.204 1.925a1.35 1.35 0 0 1-2.01.322M117.074 50.764l3.668-3.057-2.024-3.238-4.857 4.048 1.203 1.925a1.35 1.35 0 0 0 2.01.322" class="cls-3"/><path d="M108.273 52.077a2.35 2.35 0 0 1-1.504-.545l-3.668-3.057a1 1 0 0 1-.207-1.298l2.024-3.238a1 1 0 0 1 1.487-.238l4.859 4.048a1 1 0 0 1 .207 1.298l-1.204 1.925a2.35 2.35 0 0 1-1.621 1.075 2.4 2.4 0 0 1-.373.03m-3.221-4.58 2.998 2.499a.35.35 0 0 0 .52-.084l.742-1.186-3.306-2.755ZM116.193 52.077a2.4 2.4 0 0 1-.372-.03 2.35 2.35 0 0 1-1.622-1.075l-1.202-1.926a1 1 0 0 1 .207-1.297l4.857-4.048a1 1 0 0 1 1.489.238l2.023 3.238a1 1 0 0 1-.207 1.298l-3.668 3.057a2.35 2.35 0 0 1-1.505.545m-1.038-3.35.74 1.185a.35.35 0 0 0 .243.16.34.34 0 0 0 .279-.076l2.998-2.499-.953-1.526Z" class="cls-2"/><path d="m109.635 50.498 1.766 2.633h1.681l1.734-2.659-.893-1.55h-3.363z" class="cls-3"/><path d="m115.042 62.675-1.96-9.544h-1.681l-1.96 9.544 2.784 2.795z" class="cls-2"/><path d="M112.226 66.47a1 1 0 0 1-.708-.294l-2.786-2.795a1 1 0 0 1-.271-.907l1.96-9.544a1 1 0 0 1 .98-.799h1.681a1 1 0 0 1 .98.8l1.96 9.543a1 1 0 0 1-.276.911l-2.816 2.795a1 1 0 0 1-.704.29m-1.698-4.12 1.701 1.708 1.724-1.711-1.737-8.216Z" class="cls-2"/><path d="m109.635 50.498 1.766 2.633h1.681l1.734-2.659-.893-1.55h-3.363z" class="cls-2"/><path d="M105.917 99.91h.602a3.7 3.7 0 0 1 3.7 3.698V105h-7.328a.673.673 0 0 1-.673-.672v-.72a3.7 3.7 0 0 1 3.7-3.699" class="cls-3"/><path d="M110.219 106h-7.328a1.674 1.674 0 0 1-1.672-1.672v-.72a4.704 4.704 0 0 1 4.698-4.699h.603a4.705 4.705 0 0 1 4.699 4.699V105a1 1 0 0 1-1 1m-7-2h6v-.392a2.7 2.7 0 0 0-2.7-2.699h-.602a2.7 2.7 0 0 0-2.698 2.699Z" class="cls-2"/><path d="M117.917 99.91h.602a3.7 3.7 0 0 1 3.7 3.698v.72a.673.673 0 0 1-.673.672h-7.328v-1.392a3.7 3.7 0 0 1 3.7-3.699" class="cls-3"/><path d="M121.546 106h-7.327a1 1 0 0 1-1-1v-1.392a4.704 4.704 0 0 1 4.698-4.699h.603a4.705 4.705 0 0 1 4.699 4.699v.72a1.674 1.674 0 0 1-1.673 1.672m-6.327-2h6v-.392a2.7 2.7 0 0 0-2.7-2.699h-.602a2.7 2.7 0 0 0-2.698 2.699Z" class="cls-2"/><path d="M113.323 45h-2.209a4.3 4.3 0 0 1-3.028-1.242l-2.614-2.588a4.22 4.22 0 0 1-1.254-2.998v-7.34c0-6.177 16-6.177 16 0v7.34a4.22 4.22 0 0 1-1.254 2.998l-2.614 2.588A4.3 4.3 0 0 1 113.323 45" class="cls-3"/><path d="M113.323 46h-2.209a5.27 5.27 0 0 1-3.731-1.53l-2.614-2.59a5.26 5.26 0 0 1-1.55-3.708v-7.34c0-3.87 4.665-5.633 9-5.633s9 1.763 9 5.634v7.339a5.18 5.18 0 0 1-1.552 3.709l-2.612 2.588A5.34 5.34 0 0 1 113.323 46m-1.104-18.8c-3.479 0-7 1.247-7 3.633v7.339a3.2 3.2 0 0 0 .958 2.287l2.613 2.589a3.28 3.28 0 0 0 2.324.952h2.21a3.32 3.32 0 0 0 2.323-.952l2.613-2.589a3.2 3.2 0 0 0 .959-2.287v-7.34a2.98 2.98 0 0 0-1.958-2.585 11.5 11.5 0 0 0-5.042-1.048" class="cls-2"/><path d="M117.398 23.957c2.302 1.065 4.259 2.246 4.261 5.524a11.4 11.4 0 0 1-.253 2.28c-.145.71-1.18.39-1.18.39s-.04-1.906-1.402-2.452c-3.523-1.412-9.254 1.066-13.13-1.561a3.57 3.57 0 0 1-1.17 2.842s-1.361-.005-1.447-.78c-.39-3.512 1.056-5.072 2.617-4.682 3.901-3.902 10.32-2.202 11.704-1.561" class="cls-3"/><path d="M120.713 33.224a2.8 2.8 0 0 1-.781-.118 1 1 0 0 1-.703-.892 2.3 2.3 0 0 0-.9-1.646c-.988-.564-2.674-.44-4.458-.308-2.305.17-4.903.362-7.369-.668a5.2 5.2 0 0 1-1.191 2.006 1.07 1.07 0 0 1-.789.382h-.002c-1.12-.004-2.31-.522-2.438-1.67-.26-2.348.213-4.18 1.333-5.158a2.73 2.73 0 0 1 1.941-.691c4.211-3.776 10.37-2.33 12.444-1.42 2.209.968 4.757 2.572 4.86 6.414a11 11 0 0 1-.274 2.505 1.52 1.52 0 0 1-.716 1.021 1.86 1.86 0 0 1-.957.243m-4.643-5.076a6.47 6.47 0 0 1 3.25.683 3.5 3.5 0 0 1 1.317 1.352 6 6 0 0 0 .022-.676c-.067-2.543-1.513-3.692-3.662-4.634-1.668-.731-7.193-2.052-10.596 1.352a1 1 0 0 1-.949.263.75.75 0 0 0-.72.17c-.445.388-.847 1.441-.681 3.245l.052.015a2.36 2.36 0 0 0 .529-1.102 1.65 1.65 0 0 1 .875-1.171 1.67 1.67 0 0 1 1.48-.025c2.102.988 4.457.814 6.738.646.805-.06 1.593-.118 2.345-.118M112.41 38.827a1.84 1.84 0 0 1-1.139-.49 1 1 0 0 1 1.145-1.625 1.02 1.02 0 0 1 1.19.228.98.98 0 0 1-.06 1.397 1.84 1.84 0 0 1-1.137.49M112.33 42a3.6 3.6 0 0 1-2.089-.527 1.035 1.035 0 0 1-.483-1.36.97.97 0 0 1 1.307-.47c.068.032.137.073.215.12a1.7 1.7 0 0 0 1.05.237 1.9 1.9 0 0 0 1.097-.227 1 1 0 0 1 1.289 1.53 3.58 3.58 0 0 1-2.386.697M108.406 33.512a1.358 1.358 0 1 0 1.359 1.358 1.36 1.36 0 0 0-1.359-1.358M116.286 33.512a1.358 1.358 0 1 0 1.358 1.358 1.36 1.36 0 0 0-1.358-1.358" class="cls-2"/><path d="M103.788 56.044a15.3 15.3 0 0 0 4.18-.604 4.17 4.17 0 0 0 2.866-5.328c-1.138-3.454-.225-6.244-1.022-9.637-1.06-4.518-5.145-7.927-10.64-7.927s-9.856 3.26-10.758 7.927c-.652 3.375.227 6.123-.854 9.509a4.196 4.196 0 0 0 2.798 5.321 14.7 14.7 0 0 0 3.947.745Z" class="cls-3"/><path d="M94.898 57.05h-.024a20 20 0 0 1-4.798-.785 5.13 5.13 0 0 1-3.11-2.536 5.2 5.2 0 0 1-.36-4.05 15.3 15.3 0 0 0 .54-5.013 21.5 21.5 0 0 1 .287-4.38c.993-5.145 5.82-8.738 11.74-8.738 5.724 0 10.391 3.495 11.613 8.698a19.8 19.8 0 0 1 .406 4.595 15.2 15.2 0 0 0 .592 4.958 5.2 5.2 0 0 1-.363 4.079 5.1 5.1 0 0 1-3.194 2.528 20.6 20.6 0 0 1-5.054.638 1 1 0 0 1 .022-2c.064.003.146.003.221.003a19 19 0 0 0 4.293-.572 3.167 3.167 0 0 0 2.175-4.05 17.1 17.1 0 0 1-.692-5.572 18 18 0 0 0-.353-4.15c-1.005-4.28-4.889-7.155-9.666-7.155-4.947 0-8.968 2.926-9.777 7.116a19.6 19.6 0 0 0-.25 3.99 17.1 17.1 0 0 1-.634 5.634 3.22 3.22 0 0 0 .22 2.504 3.15 3.15 0 0 0 1.908 1.554 18.2 18.2 0 0 0 4.283.704 1 1 0 0 1-.025 2" class="cls-2"/><path d="M100.61 96.362v2.864c0 6.444 3.58 13.604 3.58 13.604l.716 1.432a84.6 84.6 0 0 0 .76-17.9ZM97.956 96.362s-.043 1.432-.043 2.864a26 26 0 0 1-3.58 12.172l-.716 2.864a86.5 86.5 0 0 1-.716-17.9Z" class="cls-3"/><path d="M104.906 115.262a1 1 0 0 1-.894-.553l-.716-1.432c-.15-.301-3.686-7.447-3.686-14.051V96.36a1 1 0 0 1 2 0v2.865c0 4.345 1.725 9.1 2.744 11.528a88 88 0 0 0 .314-14.33 1 1 0 0 1 .936-1.06.984.984 0 0 1 1.06.935 84.8 84.8 0 0 1-.772 18.136 1 1 0 0 1-.841.816 1 1 0 0 1-.145.01M93.45 115.262l-.038-.001a1 1 0 0 1-.948-.832 86.8 86.8 0 0 1-.728-18.13 1 1 0 1 1 1.996.125 90 90 0 0 0 .192 13.347 24.4 24.4 0 0 0 2.822-10.545c0-1.448.044-2.895.044-2.895a1 1 0 0 1 1-.97h.03a1 1 0 0 1 .97 1.031c-.001.005-.044 1.42-.044 2.834a26.73 26.73 0 0 1-3.646 12.561l-.68 2.717a1 1 0 0 1-.97.758" class="cls-2"/><path d="M93.45 114.978h-3.58v-1.29l1.432-1.574 1.432-4.297h3.58v4.297a2.864 2.864 0 0 1-2.864 2.864M104.906 114.978h3.58v-1.29l-1.432-1.574-1.432-4.297h-3.58v4.297a2.864 2.864 0 0 0 2.864 2.864" class="cls-3"/><path d="M93.45 115.978h-3.58a1 1 0 0 1-1-1v-1.29a1 1 0 0 1 .26-.673l1.29-1.418 1.366-4.096a1 1 0 0 1 .948-.684h3.58a1 1 0 0 1 1 1v4.296a3.87 3.87 0 0 1-3.864 3.865m-2.491-2h2.491a1.866 1.866 0 0 0 1.864-1.865v-3.296h-1.859l-1.204 3.612a1 1 0 0 1-.209.357ZM108.486 115.978h-3.58a3.87 3.87 0 0 1-3.864-3.865v-4.296a1 1 0 0 1 1-1h3.58a1 1 0 0 1 .948.684l1.367 4.096 1.29 1.418a1 1 0 0 1 .26.673v1.29a1 1 0 0 1-1 1m-5.444-7.16v3.295a1.866 1.866 0 0 0 1.864 1.865h2.492l-1.084-1.192a1 1 0 0 1-.208-.356l-1.205-3.613Z" class="cls-2"/><path d="M93.45 113.113h-2.147a1 1 0 0 1 0-2h2.147a1 1 0 0 1 0 2M107.055 113.113h-2.149a1 1 0 0 1 0-2h2.149a1 1 0 0 1 0 2" class="cls-2"/><path d="m104.673 56.423.02.007.598.286a11.44 11.44 0 0 1 6.242 7.88l1.936 8.866-5.213.013-1.202-4.978c.716 2.088-.716 4.427-.629 7.263a45.8 45.8 0 0 1-14.007 0c.316-2.836-1.519-3.722-.865-7.263l-.816 5.02-5.399-.008 1.58-8.617a11.44 11.44 0 0 1 6.349-8.274l.396-.188.02-.007c1.916 4.138 9.076 4.138 10.99 0" class="cls-3"/><g class="cls-1"><path d="m91.553 71.204-.008.052v.002q.005-.027.008-.054" class="cls-3"/></g><path d="M106.425 75.76c3.493 4.324 4.487 12.585 5.641 19.17 0 1.909-25.06 1.909-25.06 0 .982-6.035 2.148-14.13 5.412-19.17a46 46 0 0 0 14.007 0" class="cls-3"/><path d="m90.25 73.593-1.095 10.404-.61-.02c-1.316-.044-2.713-2.203-1.735-4.893a23.8 23.8 0 0 1-.735-5.51" class="cls-3"/><path d="M89.155 84.998h-.034l-.61-.021a2.9 2.9 0 0 1-2.244-1.39 5.31 5.31 0 0 1-.505-4.522 27 27 0 0 1-.687-5.441 1 1 0 0 1 .95-1.048.99.99 0 0 1 1.048.95 23.6 23.6 0 0 0 .69 5.259 1 1 0 0 1-.014.64 3.32 3.32 0 0 0 .175 3.042 1.6 1.6 0 0 0 .347.376l.986-9.355a1 1 0 1 1 1.988.21l-1.097 10.405a1 1 0 0 1-.993.895" class="cls-2"/><path d="M87.68 80.11a1 1 0 0 1-.1-.005l-.821-.081a1 1 0 1 1 .197-1.99l.821.081a1 1 0 0 1-.097 1.995" class="cls-2"/><path d="m108.915 73.593 1.004 10.404.609-.02c1.316-.044 2.806-2.203 1.828-4.893a23.8 23.8 0 0 0 .735-5.51" class="cls-3"/><path d="M109.918 84.998a1 1 0 0 1-.994-.904l-1.004-10.405a1 1 0 0 1 .9-1.092 1.01 1.01 0 0 1 1.09.9l.903 9.347a1.7 1.7 0 0 0 .405-.43 3.34 3.34 0 0 0 .199-2.989 1 1 0 0 1-.015-.64 23.5 23.5 0 0 0 .69-5.26 1 1 0 1 1 1.998.099 27 27 0 0 1-.686 5.441 5.26 5.26 0 0 1-.529 4.47 3 3 0 0 1-2.314 1.442l-.609.02Z" class="cls-2"/><path d="M111.486 80.11a1 1 0 0 1-.097-1.995l.821-.081a1 1 0 0 1 .197 1.99l-.821.081a1 1 0 0 1-.1.005" class="cls-2"/><path d="M99.536 97.361c-3.315 0-6.41-.129-8.716-.362-3.6-.366-4.814-.888-4.814-2.07a1 1 0 0 1 .013-.16l.16-.987c.965-5.982 2.163-13.407 5.265-18.354a4.4 4.4 0 0 0-.068-1.142 1 1 0 0 1-.639.231h-.002l-5.398-.008a1 1 0 0 1-.982-1.18l1.579-8.617a12.47 12.47 0 0 1 6.904-8.997l.396-.189c.03-.014.082-.034.114-.045a1 1 0 0 1 .671 1.884l-.324.157a10.47 10.47 0 0 0-5.795 7.55l-1.362 7.439 3.349.005.612-3.763q.03-.213.071-.438a1 1 0 0 1 1.971.343l-.065.402a6.33 6.33 0 0 0 .425 3.295 7.5 7.5 0 0 1 .511 3.517 1 1 0 0 1-.155.432c-2.974 4.593-4.155 11.914-5.104 17.796l-.071.44c3.041 1.126 19.842 1.127 22.902.002q-.162-.95-.326-1.93c-.99-5.922-2.11-12.633-5.01-16.223a1 1 0 0 1-.223-.597 14.8 14.8 0 0 1 .475-3.707 8.4 8.4 0 0 0 .326-2.762l-.143-.592a1 1 0 0 1 1.918-.558 4.6 4.6 0 0 1 .19.767l.852 3.533 3.185-.008-1.672-7.655a10.37 10.37 0 0 0-5.697-7.192l-.586-.28a1.01 1.01 0 0 1-.532-1.248.99.99 0 0 1 1.268-.609l.02.007q.05.018.096.04l.598.286a12.36 12.36 0 0 1 6.786 8.569l1.936 8.866a1 1 0 0 1-.974 1.213l-5.213.013h-.002a1 1 0 0 1-.727-.312 9 9 0 0 0-.107 1.25c3.064 4.038 4.203 10.846 5.209 16.869.141.843.28 1.672.42 2.475a1 1 0 0 1 .015.173c0 .85 0 2.431-13.53 2.431" class="cls-2"/><path d="M103.72 53.695a2.13 2.13 0 0 0 .935 2.628c-.724 1.65-3.533 2.545-5.496 3.13-1.962-.585-4.992-1.386-5.495-3.022a2.224 2.224 0 0 0 .924-2.736Z" class="cls-3"/><path d="M99.158 60.452c-2.974 0-5.808-1.638-6.451-3.728a1 1 0 0 1 .426-1.141 1.26 1.26 0 0 0 .537-1.496 1 1 0 0 1 1.84-.785 3.13 3.13 0 0 1-.603 3.375 5.57 5.57 0 0 0 4.251 1.775 5.34 5.34 0 0 0 4.186-1.93 2.97 2.97 0 0 1-.548-3.212 1 1 0 1 1 1.846.77 1.113 1.113 0 0 0 .55 1.422 1 1 0 0 1 .343 1.223 7.07 7.07 0 0 1-6.377 3.727M99.872 77.313a34 34 0 0 1-7.42-.567 1 1 0 1 1 .646-1.893c1.884.645 11.643.553 12.785.037a1 1 0 0 1 .83 1.819c-.915.417-3.843.604-6.84.604" class="cls-2"/><circle cx="99.178" cy="76.314" r="2.148" class="cls-2"/><path d="M99.179 79.461a3.148 3.148 0 1 1 3.147-3.148 3.15 3.15 0 0 1-3.147 3.148m0-4.295a1.148 1.148 0 1 0 1.147 1.147 1.15 1.15 0 0 0-1.147-1.147" class="cls-2"/><g class="cls-5"><path d="M95.658 71.458a4.603 4.603 0 0 1-4.7-4.489 1 1 0 0 1 2 0 2.709 2.709 0 0 0 5.4 0 1 1 0 0 1 2 0 4.603 4.603 0 0 1-4.7 4.489" class="cls-2"/><path d="M103.057 71.458a4.603 4.603 0 0 1-4.7-4.489 1 1 0 0 1 2 0 2.709 2.709 0 0 0 5.4 0 1 1 0 0 1 2 0 4.603 4.603 0 0 1-4.7 4.489" class="cls-2"/></g><path d="M92.378 65.251a19 19 0 0 0-.825 3.246" class="cls-3"/><path d="M91.555 69.497q-.052 0-.105-.005a1 1 0 0 1-.89-1.099 19.7 19.7 0 0 1 .874-3.47 1 1 0 0 1 1.888.657 17.6 17.6 0 0 0-.774 3.021 1 1 0 0 1-.993.896" class="cls-2"/><path d="M106.23 65.251a19 19 0 0 1 .824 3.246" class="cls-3"/><path d="M107.054 69.497a1 1 0 0 1-.996-.919 17.5 17.5 0 0 0-.774-3.002 1 1 0 1 1 1.89-.65 19 19 0 0 1 .878 3.49 1 1 0 0 1-.916 1.078zM99.752 94.184a1 1 0 0 1-.623-.218l-1.458-1.162-1.73 1.13a1 1 0 0 1-1.25-.127l-1.152-1.14-1.534.979a1 1 0 0 1-1.256-.146l-1.248-1.287-1.288.725a1 1 0 0 1-.98-1.745l1.958-1.1a1 1 0 0 1 1.208.175l1.217 1.253 1.52-.97a1 1 0 0 1 1.242.132l1.145 1.134 1.659-1.083a1 1 0 0 1 1.17.055l1.405 1.12 1.452-1.138a1 1 0 0 1 1.217-.014l1.35 1.013 1.19-1.13a1 1 0 0 1 1.247-.104l1.408.948 1.131-1.217a1 1 0 0 1 1.246-.177l1.866 1.118a1 1 0 1 1-1.027 1.715l-1.17-.7-1.163 1.25a1 1 0 0 1-1.291.148l-1.452-.978-1.22 1.159a1 1 0 0 1-1.288.075l-1.413-1.06-1.47 1.154a1 1 0 0 1-.618.213" class="cls-2"/><path d="M99.443 55.53h-.449a4.8 4.8 0 0 1-2.305-.588l-1.188-.65a8.18 8.18 0 0 1-4.283-7.17v-5.205c0-7.643 16-7.643 16 0v5.204a8.18 8.18 0 0 1-4.282 7.171l-1.188.65a4.8 4.8 0 0 1-2.305.589" class="cls-3"/><path d="M99.443 56.53h-.449a5.8 5.8 0 0 1-2.786-.711l-1.187-.65a9.19 9.19 0 0 1-4.802-8.048v-5.204c0-4.625 4.665-6.732 9-6.732s9 2.107 9 6.732v5.204a9.19 9.19 0 0 1-4.803 8.048l-1.187.65a5.8 5.8 0 0 1-2.786.711m-.224-19.345c-3.371 0-7 1.481-7 4.732v5.204a7.19 7.19 0 0 0 3.762 6.294l1.188.65a3.8 3.8 0 0 0 1.825.465h.45a3.8 3.8 0 0 0 1.824-.465l1.187-.65a7.19 7.19 0 0 0 3.764-6.294v-5.204c0-3.251-3.63-4.732-7-4.732" class="cls-2"/><path d="M91.183 40.148a12.78 12.78 0 0 0 13.026-2.362 2.53 2.53 0 0 0 2.939 2.71l.727-.048c-.218-7.448-17.106-7.466-17.332-.596Z" class="cls-3"/><path d="M95.924 42.007a13.7 13.7 0 0 1-5.078-.942l-.64-.28a1 1 0 1 1 .802-1.833l.64.28a11.68 11.68 0 0 0 11.963-2.196 1 1 0 0 1 1.661.75 1.75 1.75 0 0 0 .454 1.357 1.95 1.95 0 0 0 1.363.36l.445-.037a1 1 0 0 1 .168 1.993l-.407.034a3.92 3.92 0 0 1-2.88-.84 3.14 3.14 0 0 1-.793-1.083 13.2 13.2 0 0 1-7.698 2.437" class="cls-2"/><path d="M107.194 44.126a1 1 0 0 1-1-1v-1.684a6 6 0 0 0-.053-.797 1 1 0 1 1 1.98-.277 8 8 0 0 1 .073 1.074v1.684a1 1 0 0 1-1 1M91.234 43.723a1 1 0 0 1-1-1v-1.281a8 8 0 0 1 .125-1.4 1 1 0 1 1 1.967.357 6 6 0 0 0-.092 1.043v1.281a1 1 0 0 1-1 1M99.28 49.785a1.84 1.84 0 0 1-1.137-.49 1 1 0 0 1 1.144-1.625 1.02 1.02 0 0 1 1.192.228.98.98 0 0 1-.061 1.397 1.84 1.84 0 0 1-1.138.49M95.993 44.216a1.358 1.358 0 1 0 1.359 1.358 1.36 1.36 0 0 0-1.359-1.358M102.442 44.216a1.358 1.358 0 1 0 1.359 1.358 1.36 1.36 0 0 0-1.359-1.358" class="cls-2"/><circle cx="103.517" cy="49.798" r="1.433" class="cls-6"/><circle cx="94.919" cy="49.798" r="1.433" class="cls-6"/><path d="M99.265 52.78a3.96 3.96 0 0 1-2.09-.447 1.03 1.03 0 0 1-.484-1.357.97.97 0 0 1 1.309-.469l.12.062a2.05 2.05 0 0 0 1.145.21c.852 0 1.063-.131 1.143-.18a1.036 1.036 0 0 1 1.41.295.965.965 0 0 1-.279 1.355 3.84 3.84 0 0 1-2.274.53" class="cls-2"/></g><path d="M66.218 99v4c0 9 5 19 5 19l1 2a118 118 0 0 0 1.06-25ZM62.511 99s-.06 2-.06 4c0 9-5 17-5 17l-1 4a121 121 0 0 1-1-25Z" class="cls-3"/><path d="M72.218 125a1 1 0 0 1-.895-.553l-1-2c-.208-.417-5.105-10.316-5.105-19.447v-4a1 1 0 0 1 2 0v4c0 7.106 3.26 14.97 4.459 17.623a123 123 0 0 0 .603-21.56 1 1 0 0 1 .936-1.061.99.99 0 0 1 1.06.935 120.4 120.4 0 0 1-1.073 25.236 1 1 0 0 1-.84.816 1 1 0 0 1-.145.011M56.218 125l-.038-.001a1 1 0 0 1-.949-.832 123 123 0 0 1-1.011-25.23 1 1 0 1 1 1.996.125 126 126 0 0 0 .391 20.003c.976-1.71 4.61-8.586 4.61-16.065 0-2.015.061-4.03.061-4.03a1 1 0 0 1 2 .06c0 .005-.06 1.988-.06 3.97 0 8.638-4.374 16.242-5.068 17.391l-.962 3.852a1 1 0 0 1-.97.757" class="cls-2"/><path d="M56.218 125h-5v-1.801l2-2.199 2-6h5v6a4 4 0 0 1-4 4M72.218 125h5v-1.801l-2-2.199-2-6h-5v6a4 4 0 0 0 4 4" class="cls-3"/><path d="M50.103 50.776V24.051a13.74 13.74 0 0 1 14.042-14.042 13.74 13.74 0 0 1 14.042 14.042v26.725Z" class="cls-2"/><path d="M78.188 51.776H50.103a1 1 0 0 1-1-1V24.05A14.71 14.71 0 0 1 64.146 9.009 14.71 14.71 0 0 1 79.189 24.05v26.725a1 1 0 0 1-1 1m-27.085-2h26.084V24.05a13.042 13.042 0 1 0-26.083 0ZM56.218 126h-5a1 1 0 0 1-1-1v-1.8a1 1 0 0 1 .26-.674l1.858-2.043 1.934-5.8a1 1 0 0 1 .948-.683h5a1 1 0 0 1 1 1v6a5.006 5.006 0 0 1-5 5m-4-2h4a3.003 3.003 0 0 0 3-3v-5h-3.28l-1.772 5.316a1 1 0 0 1-.208.357l-1.74 1.912ZM77.218 126h-5a5.006 5.006 0 0 1-5-5v-6a1 1 0 0 1 1-1h5a1 1 0 0 1 .948.684l1.934 5.8 1.858 2.042a1 1 0 0 1 .26.673V125a1 1 0 0 1-1 1m-8-10v5a3.003 3.003 0 0 0 3 3h4v-.414l-1.74-1.913a1 1 0 0 1-.208-.357L72.497 116Z" class="cls-2"/><path d="M56.218 122h-3a1 1 0 0 1 0-2h3a1 1 0 0 1 0 2M75.218 122h-3a1 1 0 0 1 0-2h3a1 1 0 0 1 0 2" class="cls-2"/><path d="m71.892 43.22.029.01.834.399a15.98 15.98 0 0 1 8.717 11.006l2.704 12.383-7.28.018-1.678-6.953c1 2.917-1 6.183-.879 10.145a63.9 63.9 0 0 1-19.562 0c.44-3.962-2.122-5.2-1.209-10.145l-1.14 7.011-7.54-.01 2.206-12.035a15.98 15.98 0 0 1 8.867-11.556l.554-.263.028-.01c2.675 5.78 12.675 5.78 15.35 0" class="cls-3"/><g class="cls-5"><path d="m53.568 63.863-.012.073.001.003q.006-.038.011-.076" class="cls-3"/></g><path d="M74.34 70.228c4.878 6.038 6.266 17.576 7.878 26.772 0 2.667-35 2.667-35 0 1.37-8.428 3-19.734 7.559-26.772a64.2 64.2 0 0 0 19.562 0" class="cls-2"/><path d="m51.75 67.2-1.532 14.532-.85-.029c-1.839-.06-3.79-3.077-2.424-6.834a33.2 33.2 0 0 1-1.027-7.694" class="cls-3"/><path d="M50.22 82.732h-.034l-.851-.029a3.66 3.66 0 0 1-2.822-1.767 7.05 7.05 0 0 1-.62-6.087 37 37 0 0 1-.975-7.625 1 1 0 0 1 .95-1.048 1.014 1.014 0 0 1 1.048.95 33.2 33.2 0 0 0 .981 7.443 1 1 0 0 1-.014.642 5.16 5.16 0 0 0 .287 4.605 1.89 1.89 0 0 0 1.152.881l1.433-13.602a1 1 0 1 1 1.988.21l-1.53 14.531a1 1 0 0 1-.993.896" class="cls-2"/><path d="M48.158 75.906a1 1 0 0 1-.1-.005l-1.146-.113a1 1 0 1 1 .197-1.99l1.147.113a1 1 0 0 1-.098 1.995" class="cls-2"/><path d="m77.817 67.2 1.401 14.532.85-.029c1.84-.06 3.92-3.077 2.554-6.834a33.2 33.2 0 0 0 1.027-7.694" class="cls-3"/><path d="M79.218 82.732a1 1 0 0 1-.994-.904L76.82 67.296a1 1 0 0 1 .9-1.092 1.01 1.01 0 0 1 1.09.9l1.312 13.592a2.08 2.08 0 0 0 1.238-.953 5.06 5.06 0 0 0 .322-4.532 1 1 0 0 1-.015-.642 33.2 33.2 0 0 0 .982-7.444 1 1 0 0 1 1.998.1 36.7 36.7 0 0 1-.976 7.624 6.98 6.98 0 0 1-.653 6.014 3.8 3.8 0 0 1-2.916 1.84l-.851.028Z" class="cls-2"/><path d="M81.408 75.906a1 1 0 0 1-.097-1.995l1.146-.114a1 1 0 0 1 .197 1.99l-1.146.114a1 1 0 0 1-.1.005" class="cls-2"/><path d="M64.718 100c-18.5 0-18.5-2.103-18.5-3a1 1 0 0 1 .012-.16l.225-1.388c1.348-8.35 3.022-18.722 7.35-25.56a7.1 7.1 0 0 0-.357-2.836l-.032.199a1 1 0 0 1-.987.84h-.002l-7.54-.012a1 1 0 0 1-.982-1.18l2.205-12.034a17.02 17.02 0 0 1 9.423-12.28l.552-.262q.05-.024.103-.042a1.014 1.014 0 0 1 1.287.614.99.99 0 0 1-.606 1.267l-.477.23a15.02 15.02 0 0 0-8.315 10.833l-1.99 10.856 5.491.008.91-5.596q.04-.29.097-.595a1 1 0 0 1 1.97.342l-.09.557a9.3 9.3 0 0 0 .61 4.798 10 10 0 0 1 .696 4.74 1 1 0 0 1-.156.432c-4.197 6.482-5.854 16.75-7.185 24.999l-.152.936c3.449 1.714 29.403 1.715 32.874.002-.17-.98-.338-1.985-.508-3.006-1.39-8.32-2.965-17.75-7.083-22.846a1 1 0 0 1-.222-.598 20.3 20.3 0 0 1 .654-5.076 12 12 0 0 0 .458-4.014l-.205-.85a1 1 0 0 1 1.918-.559 6 6 0 0 1 .256 1.042l1.264 5.233 5.252-.013-2.44-11.172a14.88 14.88 0 0 0-8.173-10.318l-.822-.393a1.013 1.013 0 0 1-.54-1.24.985.985 0 0 1 1.258-.623l.028.01a1 1 0 0 1 .106.043l.834.399a16.87 16.87 0 0 1 9.262 11.695l2.704 12.383a1 1 0 0 1-.973 1.213l-7.28.018h-.003a1 1 0 0 1-.972-.765l-.179-.738a16.3 16.3 0 0 0-.412 3.34c4.284 5.55 5.875 15.077 7.282 23.5.198 1.176.39 2.333.587 3.455a1 1 0 0 1 .015.172c0 .897 0 3-18.5 3" class="cls-2"/><path d="M70.56 39.41a2.97 2.97 0 0 0 1.307 3.67c-1.012 2.304-4.934 3.555-7.676 4.373-2.74-.818-6.973-1.936-7.675-4.222a3.106 3.106 0 0 0 1.29-3.821Z" class="cls-3"/><path d="M64.19 48.45c-3.99 0-7.78-2.163-8.631-4.926a1 1 0 0 1 .425-1.142 2.14 2.14 0 0 0 .906-2.579 1 1 0 0 1 1.84-.786 4.015 4.015 0 0 1-.986 4.513c.914 1.501 3.466 2.92 6.445 2.92a7.78 7.78 0 0 0 6.36-3.133 3.78 3.78 0 0 1-.912-4.292 1 1 0 1 1 1.845.77 1.99 1.99 0 0 0 .907 2.465 1 1 0 0 1 .343 1.222c-1.262 2.879-4.855 4.968-8.543 4.968M64.847 71.99c-4.18 0-8.406-.252-9.897-.762a1 1 0 0 1 .649-1.893c2.787.955 16.468.802 18.147.037a1 1 0 1 1 .83 1.82c-1.163.53-5.422.799-9.73.799" class="cls-2"/><circle cx="64.218" cy="71" r="3" class="cls-3"/><path d="M64.218 75a4 4 0 1 1 4-4 4.004 4.004 0 0 1-4 4m0-6a2 2 0 1 0 2 2 2 2 0 0 0-2-2" class="cls-2"/><g class="cls-5"><path d="M59.3 63.821a6.03 6.03 0 0 1-6.166-5.872 1 1 0 0 1 2 0 4.178 4.178 0 0 0 8.334 0 1 1 0 0 1 2 0 6.03 6.03 0 0 1-6.167 5.872" class="cls-2"/><path d="M69.635 63.821a6.03 6.03 0 0 1-6.167-5.872 1 1 0 0 1 2 0 4.178 4.178 0 0 0 8.334 0 1 1 0 0 1 2 0 6.03 6.03 0 0 1-6.167 5.872" class="cls-2"/></g><path d="M54.72 55.55a26.7 26.7 0 0 0-1.152 4.533" class="cls-3"/><path d="M53.57 61.084q-.053 0-.106-.006a1 1 0 0 1-.89-1.099 27.3 27.3 0 0 1 1.202-4.758 1 1 0 0 1 1.889.657 26 26 0 0 0-1.102 4.31 1 1 0 0 1-.994.895" class="cls-2"/><path d="M74.066 55.55a26.6 26.6 0 0 1 1.152 4.533" class="cls-3"/><path d="M75.217 61.084a1 1 0 0 1-.996-.92 24.6 24.6 0 0 0-1.102-4.29 1 1 0 0 1 1.892-.649 27 27 0 0 1 1.204 4.778 1 1 0 0 1-.916 1.077z" class="cls-2"/><path d="M64.526 42h-.617a6.5 6.5 0 0 1-3.17-.821l-1.632-.907a11.45 11.45 0 0 1-5.89-10.009V23c0-10.666 22-10.667 22 0v7.263a11.45 11.45 0 0 1-5.888 10.009l-1.633.907a6.5 6.5 0 0 1-3.17.821" class="cls-3"/><path d="M64.526 43h-.617a7.55 7.55 0 0 1-3.655-.947l-1.633-.907a12.45 12.45 0 0 1-6.403-10.883V23c0-6.184 6.22-9 12-9s12 2.816 12 9v7.263a12.45 12.45 0 0 1-6.404 10.883l-1.632.907a7.55 7.55 0 0 1-3.656.947m-.308-27c-4.817 0-10 2.19-10 7v7.263a10.46 10.46 0 0 0 5.374 9.134l1.633.908a5.55 5.55 0 0 0 2.684.695h.617a5.55 5.55 0 0 0 2.685-.695l1.633-.908a10.46 10.46 0 0 0 5.374-9.134V23a6.04 6.04 0 0 0-2.98-5.16 13.27 13.27 0 0 0-7.02-1.84" class="cls-2"/><path d="M53.226 20.531a17.45 17.45 0 0 0 17.96-3.296 3.497 3.497 0 0 0 4.053 3.783l1.004-.069c.312-8.994-23.588-9.825-23.9-.83Z" class="cls-2"/><path d="M59.673 22.732a18.2 18.2 0 0 1-6.852-1.286l-.883-.39a1 1 0 0 1 .81-1.83l.882.39a16.3 16.3 0 0 0 16.89-3.128 1 1 0 0 1 1.667.747 2.81 2.81 0 0 0 .777 2.211 3.13 3.13 0 0 0 2.143.58l.61-.052a1 1 0 0 1 .168 1.993l-.562.047a5.1 5.1 0 0 1-3.676-1.063 4.06 4.06 0 0 1-1.188-1.831 17.74 17.74 0 0 1-10.786 3.612" class="cls-2"/><path d="M75.216 25.688a1 1 0 0 1-1-1v-2.351a9 9 0 0 0-.077-1.171 1 1 0 0 1 1.982-.269 11 11 0 0 1 .095 1.44v2.35a1 1 0 0 1-1 1M53.21 25.125a1 1 0 0 1-1-1v-1.788a10.5 10.5 0 0 1 .166-1.885 1 1 0 1 1 1.967.36 8.6 8.6 0 0 0-.133 1.525v1.788a1 1 0 0 1-1 1M64.305 34.08a2.16 2.16 0 0 1-1.324-.582 1 1 0 0 1 1.324-1.5 1 1 0 0 1 1.324 1.5 2.16 2.16 0 0 1-1.324.582M64.195 37.765a5.17 5.17 0 0 1-2.73-.577l-.1-.052a1 1 0 0 1 .889-1.792l.156.081a3.24 3.24 0 0 0 1.785.34c1.32 0 1.657-.217 1.88-.36l1.091 1.676a4.86 4.86 0 0 1-2.97.684M70.6 29.468c-.372 0-.73-.004-1.12-.008-.456-.004-.954-.01-1.567-.01a1 1 0 0 1 0-2c.622 0 1.127.006 1.588.01.382.004.734.008 1.099.008a1 1 0 0 1 0 2M59.718 31a1.5 1.5 0 1 1 1.5-1.5 1.5 1.5 0 0 1-1.5 1.5m0-2a.5.5 0 1 0 .5.5.5.5 0 0 0-.5-.5" class="cls-2"/><path d="M60.467 29.467h-.003l-2.901-.008a1 1 0 0 1 .002-2h.003l2.902.008a1 1 0 0 1-.003 2M71.813 27.217a1 1 0 0 1-.446-.106 6.7 6.7 0 0 0-4.15-.242 1 1 0 1 1-.608-1.906 8.52 8.52 0 0 1 5.653.36 1 1 0 0 1-.449 1.894M56.566 27.155a1 1 0 0 1-.486-1.874 7.15 7.15 0 0 1 5.788-.197 1 1 0 0 1-.803 1.832 5.2 5.2 0 0 0-4.014.113 1 1 0 0 1-.485.126M68.718 31a1.5 1.5 0 1 1 1.5-1.5 1.5 1.5 0 0 1-1.5 1.5m0-2a.5.5 0 1 0 .5.5.5.5 0 0 0-.5-.5" class="cls-2"/><circle cx="59.718" cy="29.5" r="1" class="cls-2"/><circle cx="68.718" cy="29.5" r="1" class="cls-2"/><circle cx="70.218" cy="34" r="2" class="cls-6"/><circle cx="58.218" cy="34" r="2" class="cls-6"/></svg>
